<?xml version="1.0" encoding="UTF-8" ?>
<!DOCTYPE svg PUBLIC "-//W3C//DTD SVG 1.1//EN" "http://www.w3.org/Graphics/SVG/1.1/DTD/svg11.dtd">
<svg width="256pt" height="256pt" viewBox="0 0 256 256" version="1.1" xmlns="http://www.w3.org/2000/svg">
<path fill="#f4d051" stroke="#f4d051" stroke-width="0.09375" opacity="1.00" d=" M 112.8 5.0 C 120.3 3.8 128.1 3.4 135.7 4.3 C 137.9 5.0 140.0 5.8 142.1 6.5 C 140.6 7.0 139.1 7.4 137.6 7.9 C 137.7 8.6 138.0 10.1 138.1 10.9 C 139.3 10.9 140.5 11.0 141.8 11.1 C 140.4 21.9 136.1 32.1 131.5 42.0 C 136.0 42.1 140.5 42.3 145.0 42.7 C 135.4 42.5 125.7 42.5 116.1 43.7 C 115.8 42.4 115.3 41.0 115.8 39.7 C 119.2 29.8 125.7 21.2 128.4 11.1 C 130.5 10.4 132.5 9.7 134.6 9.0 C 135.4 9.6 136.1 10.2 136.9 10.8 C 136.9 9.6 136.9 8.4 136.9 7.1 C 134.5 6.7 132.1 6.3 129.7 6.0 C 124.1 5.3 118.4 5.1 112.8 5.0 Z" />
<path fill="#f3ca34" stroke="#f3ca34" stroke-width="0.09375" opacity="1.00" d=" M 135.7 4.3 C 142.0 4.4 148.3 5.6 154.4 6.8 C 156.3 7.2 158.3 7.4 159.9 8.7 C 160.6 9.3 161.3 9.9 162.1 10.5 C 161.7 10.7 160.8 11.1 160.4 11.3 C 160.2 12.5 159.9 13.8 159.7 15.0 C 160.3 14.7 161.6 14.1 162.2 13.8 C 158.6 23.9 151.7 32.6 148.9 43.0 C 147.6 42.9 146.3 42.8 145.0 42.7 C 140.5 42.3 136.0 42.1 131.5 42.0 C 136.1 32.1 140.4 21.9 141.8 11.1 C 146.8 11.6 151.7 13.1 156.8 12.1 C 157.0 12.6 157.3 13.5 157.5 14.0 C 158.2 12.8 158.9 11.7 159.6 10.6 C 153.8 9.1 147.8 8.6 142.1 6.5 C 140.0 5.8 137.9 5.0 135.7 4.3 Z" />
<path fill="#f3d467" stroke="#f3d467" stroke-width="0.09375" opacity="1.00" d=" M 89.9 10.1 C 97.2 7.1 105.0 5.5 112.8 5.0 C 118.4 5.1 124.1 5.3 129.7 6.0 C 129.3 7.7 128.9 9.4 128.4 11.1 C 125.7 21.2 119.2 29.8 115.8 39.7 C 115.3 41.0 115.8 42.4 116.1 43.7 L 117.0 44.2 C 111.8 44.2 106.7 45.1 101.8 46.4 C 103.6 39.3 107.2 32.8 109.8 25.9 C 112.4 20.5 114.1 12.9 120.8 11.3 C 122.3 11.0 123.8 10.6 125.3 10.4 C 124.9 8.9 125.2 7.1 123.8 6.2 C 122.5 6.2 121.2 6.4 119.9 6.7 L 119.1 6.8 C 113.6 7.8 107.8 7.7 102.3 9.0 C 98.3 10.0 94.1 10.1 89.9 10.1 Z" />
<path fill="#fbe69a" stroke="#fbe69a" stroke-width="0.09375" opacity="1.00" d=" M 119.9 6.7 C 121.2 6.4 122.5 6.2 123.8 6.2 C 125.2 7.1 124.9 8.9 125.3 10.4 C 123.8 10.6 122.3 11.0 120.8 11.3 C 120.5 9.8 120.2 8.2 119.9 6.7 Z" />
<path fill="#fbe9b2" stroke="#fbe9b2" stroke-width="0.09375" opacity="1.00" d=" M 129.7 6.0 C 132.1 6.3 134.5 6.7 136.9 7.1 C 136.9 8.4 136.9 9.6 136.9 10.8 C 136.1 10.2 135.4 9.6 134.6 9.0 C 132.5 9.7 130.5 10.4 128.4 11.1 C 128.9 9.4 129.3 7.7 129.7 6.0 Z" />
<path fill="#faebb6" stroke="#faebb6" stroke-width="0.09375" opacity="1.00" d=" M 102.3 9.0 C 107.8 7.7 113.6 7.8 119.1 6.8 C 118.8 8.0 118.4 9.1 118.0 10.3 C 116.1 11.1 114.0 11.2 111.9 11.4 C 111.4 10.8 110.9 10.2 110.4 9.6 C 109.7 10.4 108.9 11.3 108.2 12.2 C 106.1 12.6 103.9 13.1 101.8 13.5 C 99.5 13.9 97.2 14.3 95.0 14.7 C 89.5 15.7 84.0 18.0 80.3 22.4 C 76.6 26.7 75.9 32.8 72.1 37.1 C 69.9 39.6 67.7 42.1 65.4 44.4 C 62.3 47.6 58.0 49.0 54.4 51.4 C 51.1 53.4 48.3 56.4 44.5 57.4 C 40.7 58.3 36.9 58.6 33.1 59.1 C 37.7 52.1 44.2 46.5 51.5 42.3 C 57.5 38.9 61.8 33.4 66.7 28.7 C 70.4 25.0 75.2 22.8 79.9 20.7 C 79.9 19.4 79.9 18.2 79.9 16.9 C 76.2 17.7 72.6 18.4 68.9 19.2 C 75.2 14.9 82.5 11.9 89.9 10.1 C 94.1 10.1 98.3 10.0 102.3 9.0 Z" />
<path fill="#f4d97c" stroke="#f4d97c" stroke-width="0.09375" opacity="1.00" d=" M 119.1 6.8 L 119.9 6.7 C 120.2 8.2 120.5 9.8 120.8 11.3 C 114.1 12.9 112.4 20.5 109.8 25.9 C 107.2 32.8 103.6 39.3 101.8 46.4 C 95.9 48.2 90.2 50.3 84.7 52.8 C 93.7 41.6 98.6 27.5 101.8 13.5 C 103.9 13.1 106.1 12.6 108.2 12.2 C 108.9 11.3 109.7 10.4 110.4 9.6 C 110.9 10.2 111.4 10.8 111.9 11.4 C 114.0 11.2 116.1 11.1 118.0 10.3 C 118.4 9.1 118.8 8.0 119.1 6.8 Z" />
<path fill="#f9dc70" stroke="#f9dc70" stroke-width="0.09375" opacity="1.00" d=" M 137.6 7.9 C 139.1 7.4 140.6 7.0 142.1 6.5 C 147.8 8.6 153.8 9.1 159.6 10.6 C 158.9 11.7 158.2 12.8 157.5 14.0 C 157.3 13.5 157.0 12.6 156.8 12.1 C 151.7 13.1 146.8 11.6 141.8 11.1 C 140.5 11.0 139.3 10.9 138.1 10.9 C 138.0 10.1 137.7 8.6 137.6 7.9 Z" />
<path fill="#f3c41a" stroke="#f3c41a" stroke-width="0.09375" opacity="1.00" d=" M 159.9 8.7 C 166.8 9.6 173.1 12.7 179.5 15.3 C 188.5 19.3 196.7 24.7 204.4 30.6 C 206.4 32.2 208.5 33.8 209.8 36.0 L 210.2 36.6 C 209.4 36.7 207.8 36.9 207.0 37.0 C 207.1 36.5 207.4 35.7 207.5 35.3 C 206.9 34.8 206.4 34.4 205.9 34.0 C 202.9 31.9 200.2 29.4 197.0 27.9 C 195.6 28.2 194.4 28.8 193.1 29.4 C 188.6 32.4 184.8 36.4 181.2 40.4 C 182.2 40.6 183.2 40.7 184.2 40.8 C 185.8 42.6 187.2 44.9 189.7 45.4 C 193.1 46.2 196.7 45.9 200.2 45.9 C 198.4 44.9 196.7 43.8 194.9 42.8 C 196.4 41.8 197.8 40.8 199.2 39.8 C 201.0 41.6 203.4 43.3 204.0 45.9 C 203.0 48.0 201.3 49.6 199.8 51.3 C 200.5 53.4 201.2 55.5 201.9 57.6 C 198.1 58.1 194.4 57.0 191.4 54.8 C 191.4 53.5 191.4 52.2 191.4 50.9 C 190.6 51.8 189.9 52.6 189.2 53.4 C 188.9 52.4 188.7 51.4 188.4 50.4 C 184.6 50.5 179.7 49.5 177.3 53.3 C 175.0 57.1 176.9 61.5 178.4 65.2 C 178.4 66.6 178.4 68.0 178.4 69.4 C 181.3 69.8 184.3 70.2 187.3 70.5 C 184.1 70.7 180.7 70.3 177.7 71.7 C 174.5 73.7 174.7 78.2 175.6 81.4 C 176.9 86.1 183.0 86.6 186.8 84.9 C 190.5 83.2 190.3 78.5 190.1 75.1 C 190.8 76.9 191.4 78.8 192.0 80.7 C 196.5 80.5 201.0 79.2 205.5 80.5 C 209.6 81.6 213.8 81.4 218.0 81.1 C 217.6 82.3 217.2 83.6 216.8 84.8 C 211.6 85.1 205.7 84.0 201.3 87.3 C 200.0 88.4 197.8 90.7 199.9 92.1 C 204.7 96.6 212.2 95.1 217.6 98.5 C 219.5 100.2 220.7 102.5 222.1 104.7 C 225.2 104.0 228.3 103.3 231.5 103.5 C 234.9 103.8 238.4 104.7 241.9 104.2 C 241.9 105.4 242.0 106.6 242.0 107.9 C 243.7 106.4 245.4 105.0 247.2 103.6 C 246.7 103.6 245.7 103.6 245.3 103.6 L 244.2 103.4 C 244.9 102.6 245.6 101.7 246.3 100.9 C 245.9 99.9 245.6 98.8 245.3 97.7 C 245.8 97.7 246.8 97.6 247.3 97.6 C 249.0 102.6 249.7 107.9 250.4 113.1 C 250.7 116.2 250.8 119.2 251.0 122.3 C 250.1 120.9 249.1 119.5 248.0 118.3 C 247.4 117.7 246.2 116.5 245.6 115.9 C 245.6 115.1 245.7 114.2 245.8 113.3 C 247.9 111.9 248.2 109.7 247.6 107.5 C 245.6 108.0 243.5 108.6 241.4 109.2 C 242.3 110.9 243.4 112.6 244.4 114.3 C 243.6 114.8 242.7 115.4 241.8 116.0 C 239.2 114.5 236.6 112.2 233.4 112.4 C 229.1 112.5 225.1 114.2 221.1 115.7 C 219.8 115.1 218.5 114.6 217.3 114.0 C 215.4 114.7 213.5 115.4 211.7 116.2 C 211.6 114.0 211.6 111.9 211.1 109.8 C 208.1 108.5 204.7 108.1 202.0 106.1 C 199.2 104.1 196.1 102.6 192.8 101.8 C 193.0 104.5 193.9 107.0 195.3 109.3 C 193.9 109.5 192.6 109.7 191.2 109.9 C 191.0 112.0 190.8 114.1 190.5 116.1 C 189.0 114.2 187.8 111.5 185.2 110.9 C 182.3 110.2 179.2 110.0 176.2 110.1 L 176.2 111.1 C 176.0 116.0 176.2 120.8 176.3 125.7 C 179.1 125.7 182.0 125.8 184.9 125.8 C 182.9 126.7 181.0 127.6 179.0 128.6 C 178.7 129.3 178.5 130.0 178.2 130.8 C 177.4 133.4 176.2 136.0 176.3 138.9 C 176.7 141.1 177.8 143.1 178.7 145.1 C 176.0 144.8 173.3 144.5 170.6 144.2 C 170.6 134.8 170.6 125.5 170.7 116.2 C 156.2 116.0 141.8 116.0 127.3 116.2 C 127.3 119.4 127.2 122.6 127.2 125.8 C 125.0 128.1 123.1 130.8 120.2 132.2 C 116.3 132.8 112.3 131.3 108.5 132.4 C 106.3 133.0 105.7 135.5 104.7 137.3 C 102.6 137.7 100.4 138.1 98.3 138.5 C 96.8 141.8 95.3 145.2 94.0 148.6 C 92.0 147.3 90.0 146.0 88.1 144.7 C 87.3 143.4 86.6 142.1 85.9 140.8 C 85.3 136.9 84.8 133.0 84.7 129.0 C 88.9 127.8 93.1 126.6 97.3 125.3 C 97.4 123.6 97.5 121.8 97.5 120.1 C 101.1 119.7 104.7 119.8 108.1 118.8 C 110.7 117.0 112.4 114.3 114.4 112.0 C 120.0 111.1 123.9 106.4 129.5 105.4 C 130.3 104.4 131.1 103.3 131.9 102.3 C 133.2 103.7 134.5 105.1 135.8 106.5 C 136.8 105.1 137.9 103.6 139.0 102.2 C 135.0 97.9 131.7 92.8 131.7 86.7 C 144.5 85.8 157.3 87.7 169.9 89.1 C 170.3 76.1 170.2 63.1 170.3 50.1 C 170.2 49.3 170.2 47.9 170.2 47.2 C 170.1 46.6 170.0 45.6 170.0 45.1 C 162.9 44.6 155.9 44.1 148.9 43.0 C 151.7 32.6 158.6 23.9 162.2 13.8 C 162.5 13.7 163.2 13.3 163.5 13.2 C 163.6 14.2 163.7 15.2 163.9 16.2 C 164.6 15.0 165.2 13.8 165.9 12.6 C 164.6 11.9 163.3 11.2 162.1 10.5 C 161.3 9.9 160.6 9.3 159.9 8.7 M 168.8 13.7 C 168.8 15.0 167.7 16.8 169.2 17.8 C 170.6 19.3 172.8 18.2 174.6 18.2 C 174.4 17.7 174.2 16.7 174.0 16.1 C 173.8 13.6 170.6 14.2 168.8 13.7 M 175.4 16.5 C 174.3 17.2 174.3 19.6 175.8 19.7 C 178.0 19.6 177.6 15.3 175.4 16.5 M 178.2 17.5 C 177.8 18.6 177.5 19.8 177.1 20.9 C 181.2 22.3 185.0 26.0 189.7 24.4 C 189.4 25.2 189.1 26.0 188.9 26.8 C 190.1 26.6 191.4 26.3 192.6 26.0 C 192.2 27.2 191.8 28.3 191.5 29.5 C 192.8 28.5 194.1 27.4 195.4 26.4 C 189.9 22.9 184.3 19.5 178.2 17.5 M 178.7 90.8 C 178.4 95.6 178.5 100.5 178.7 105.3 C 181.9 105.2 186.1 106.6 188.4 103.5 C 186.3 103.2 184.2 102.9 182.2 102.6 C 182.0 98.7 181.9 94.8 181.8 90.9 C 181.1 90.9 179.5 90.8 178.7 90.8 Z" />
<path fill="#f9df94" stroke="#f9df94" stroke-width="0.09375" opacity="1.00" d=" M 160.4 11.3 C 160.8 11.1 161.7 10.7 162.1 10.5 C 163.3 11.2 164.6 11.9 165.9 12.6 C 165.2 13.8 164.6 15.0 163.9 16.2 C 163.7 15.2 163.6 14.2 163.5 13.2 C 163.2 13.3 162.5 13.7 162.2 13.8 C 161.6 14.1 160.3 14.7 159.7 15.0 C 159.9 13.8 160.2 12.5 160.4 11.3 Z" />
<path fill="#f7e190" stroke="#f7e190" stroke-width="0.09375" opacity="1.00" d=" M 95.0 14.7 C 97.2 14.3 99.5 13.9 101.8 13.5 C 98.6 27.5 93.7 41.6 84.7 52.8 C 79.3 56.7 73.5 60.1 68.8 64.8 C 66.0 67.6 63.0 70.2 60.3 73.0 C 53.4 74.3 47.3 78.1 40.5 79.4 C 33.3 81.1 25.7 78.3 18.6 81.3 C 19.5 83.9 19.9 86.6 19.8 89.4 C 18.2 88.9 16.6 88.4 15.0 87.9 C 14.7 84.6 14.3 81.3 14.2 78.0 C 15.4 73.9 17.6 70.1 20.2 66.7 C 20.5 68.0 20.8 69.3 21.2 70.6 C 20.2 72.6 19.2 74.7 18.7 76.9 C 19.2 77.3 20.4 78.1 21.0 78.5 C 23.8 77.4 23.9 74.1 24.7 71.7 C 30.3 69.9 36.0 68.9 41.8 67.8 C 48.9 66.6 55.4 63.1 61.7 59.7 C 64.7 58.1 67.1 55.7 69.4 53.3 C 72.2 50.4 75.8 48.4 78.4 45.4 C 83.3 39.6 86.9 32.8 88.3 25.3 C 89.0 21.0 91.3 17.1 95.0 14.7 Z" />
<path fill="#f8e6a4" stroke="#f8e6a4" stroke-width="0.09375" opacity="1.00" d=" M 80.3 22.4 C 84.0 18.0 89.5 15.7 95.0 14.7 C 91.3 17.1 89.0 21.0 88.3 25.3 C 86.9 32.8 83.3 39.6 78.4 45.4 C 75.8 48.4 72.2 50.4 69.4 53.3 C 67.1 55.7 64.7 58.1 61.7 59.7 C 55.4 63.1 48.9 66.6 41.8 67.8 C 36.0 68.9 30.3 69.9 24.7 71.7 C 23.9 74.1 23.8 77.4 21.0 78.5 C 20.4 78.1 19.2 77.3 18.7 76.9 C 19.2 74.7 20.2 72.6 21.2 70.6 C 20.8 69.3 20.5 68.0 20.2 66.7 C 22.1 61.6 25.6 57.0 29.3 53.0 C 28.6 58.1 25.5 62.3 24.4 67.3 C 25.4 67.7 26.4 68.1 27.4 68.5 C 29.2 65.3 31.0 62.1 33.1 59.1 C 36.9 58.6 40.7 58.3 44.5 57.4 C 48.3 56.4 51.1 53.4 54.4 51.4 C 58.0 49.0 62.3 47.6 65.4 44.4 C 67.7 42.1 69.9 39.6 72.1 37.1 C 75.9 32.8 76.6 26.7 80.3 22.4 Z" />
<path fill="#f3d372" stroke="#f3d372" stroke-width="0.09375" opacity="1.00" d=" M 168.8 13.7 C 170.6 14.2 173.8 13.6 174.0 16.1 C 174.2 16.7 174.4 17.7 174.6 18.2 C 172.8 18.2 170.6 19.3 169.2 17.8 C 167.7 16.8 168.8 15.0 168.8 13.7 Z" />
<path fill="#f7e0a0" stroke="#f7e0a0" stroke-width="0.09375" opacity="1.00" d=" M 175.4 16.5 C 177.6 15.3 178.0 19.6 175.8 19.7 C 174.3 19.6 174.3 17.2 175.4 16.5 Z" />
<path fill="#fbf2d4" stroke="#fbf2d4" stroke-width="0.09375" opacity="1.00" d=" M 68.9 19.2 C 72.6 18.4 76.2 17.7 79.9 16.9 C 79.9 18.2 79.9 19.4 79.9 20.7 C 75.2 22.8 70.4 25.0 66.7 28.7 C 61.8 33.4 57.5 38.9 51.5 42.3 C 44.2 46.5 37.7 52.1 33.1 59.1 C 31.0 62.1 29.2 65.3 27.4 68.5 C 26.4 68.1 25.4 67.7 24.4 67.3 C 25.5 62.3 28.6 58.1 29.3 53.0 C 29.7 51.7 30.7 50.6 31.5 49.5 C 40.7 38.3 51.9 28.7 64.3 21.2 C 65.7 20.4 67.2 19.6 68.9 19.2 Z" />
<path fill="#f6d775" stroke="#f6d775" stroke-width="0.09375" opacity="1.00" d=" M 178.2 17.5 C 184.3 19.5 189.9 22.9 195.4 26.4 C 194.1 27.4 192.8 28.5 191.5 29.5 C 191.8 28.3 192.2 27.2 192.6 26.0 C 191.4 26.3 190.1 26.6 188.9 26.8 C 189.1 26.0 189.4 25.2 189.7 24.4 C 185.0 26.0 181.2 22.3 177.1 20.9 C 177.5 19.8 177.8 18.6 178.2 17.5 Z" />
<path fill="#f7d673" stroke="#f7d673" stroke-width="0.09375" opacity="1.00" d=" M 193.1 29.4 C 194.4 28.8 195.6 28.2 197.0 27.9 C 200.2 29.4 202.9 31.9 205.9 34.0 C 204.9 34.7 203.8 35.4 202.8 36.0 C 199.0 34.9 196.1 31.9 193.1 29.4 Z" />
<path fill="#edbc14" stroke="#edbc14" stroke-width="0.09375" opacity="1.00" d=" M 181.2 40.4 C 184.8 36.4 188.6 32.4 193.1 29.4 C 196.1 31.9 199.0 34.9 202.8 36.0 C 203.8 35.4 204.9 34.7 205.9 34.0 C 206.4 34.4 206.9 34.8 207.5 35.3 C 207.4 35.7 207.1 36.5 207.0 37.0 C 206.6 38.0 206.3 39.1 206.0 40.1 C 207.6 41.0 209.2 41.9 210.8 42.8 C 213.7 47.6 217.7 51.6 221.0 56.1 C 222.4 58.0 224.4 59.5 226.4 60.8 C 226.1 61.7 225.7 62.6 225.4 63.5 C 226.9 63.0 228.4 62.4 229.9 61.9 C 225.9 55.8 221.6 49.8 216.4 44.7 C 213.9 42.3 211.9 39.6 210.2 36.6 L 209.8 36.0 C 213.6 38.2 216.5 41.4 219.3 44.6 C 228.9 55.4 237.1 67.7 242.1 81.3 C 240.5 80.2 237.9 78.1 236.3 80.3 C 236.1 81.9 236.2 83.4 236.1 85.0 C 238.4 84.1 240.7 83.0 242.9 81.9 C 244.3 87.1 246.5 92.2 247.3 97.6 C 246.8 97.6 245.8 97.7 245.3 97.7 C 243.9 97.9 242.5 98.0 241.1 98.2 C 241.0 99.7 240.9 101.3 240.8 102.9 C 241.7 103.0 243.4 103.3 244.2 103.4 L 245.3 103.6 C 244.1 103.8 243.0 104.0 241.9 104.2 C 238.4 104.7 234.9 103.8 231.5 103.5 C 228.3 103.3 225.2 104.0 222.1 104.7 C 220.7 102.5 219.5 100.2 217.6 98.5 C 212.2 95.1 204.7 96.6 199.9 92.1 C 197.8 90.7 200.0 88.4 201.3 87.3 C 205.7 84.0 211.6 85.1 216.8 84.8 C 217.2 83.6 217.6 82.3 218.0 81.1 C 213.8 81.4 209.6 81.6 205.5 80.5 C 201.0 79.2 196.5 80.5 192.0 80.7 C 191.4 78.8 190.8 76.9 190.1 75.1 C 189.3 73.5 188.3 72.0 187.3 70.5 C 184.3 70.2 181.3 69.8 178.4 69.4 C 178.4 68.0 178.4 66.6 178.4 65.2 C 182.0 65.5 185.7 65.6 189.3 65.3 C 189.2 62.9 189.1 60.6 189.0 58.2 C 188.3 58.2 187.0 58.3 186.3 58.3 C 186.0 60.0 185.6 61.6 185.2 63.3 C 181.8 62.8 178.7 60.0 180.0 56.3 C 181.0 52.1 186.1 53.6 189.2 53.4 C 189.9 52.6 190.6 51.8 191.4 50.9 C 191.4 52.2 191.4 53.5 191.4 54.8 C 194.4 57.0 198.1 58.1 201.9 57.6 C 201.2 55.5 200.5 53.4 199.8 51.3 C 201.3 49.6 203.0 48.0 204.0 45.9 C 203.4 43.3 201.0 41.6 199.2 39.8 C 197.8 40.8 196.4 41.8 194.9 42.8 C 196.7 43.8 198.4 44.9 200.2 45.9 C 196.7 45.9 193.1 46.2 189.7 45.4 C 187.2 44.9 185.8 42.6 184.2 40.8 C 183.2 40.7 182.2 40.6 181.2 40.4 M 229.3 62.6 C 228.6 63.5 227.8 64.4 227.1 65.2 C 229.3 68.1 230.7 71.5 232.5 74.7 C 233.6 75.0 234.8 75.2 235.9 75.4 C 235.9 74.1 235.8 72.7 235.8 71.4 C 232.6 69.2 232.8 64.6 229.3 62.6 M 237.2 86.5 C 237.9 87.4 238.5 88.3 239.1 89.1 C 239.2 88.6 239.5 87.7 239.6 87.2 C 240.6 86.6 241.6 86.0 242.6 85.4 C 242.5 85.2 242.1 84.7 242.0 84.5 C 240.4 85.2 238.8 85.9 237.2 86.5 M 237.8 90.8 C 238.6 92.3 239.4 93.9 240.2 95.4 C 241.5 94.9 243.1 94.9 244.1 93.8 C 244.3 92.1 244.3 90.4 244.3 88.7 C 242.1 89.3 239.9 90.0 237.8 90.8 Z" />
<path fill="#f3d278" stroke="#f3d278" stroke-width="0.09375" opacity="1.00" d=" M 207.0 37.0 C 207.8 36.9 209.4 36.7 210.2 36.6 C 211.9 39.6 213.9 42.3 216.4 44.7 C 221.6 49.8 225.9 55.8 229.9 61.9 C 228.4 62.4 226.9 63.0 225.4 63.5 C 225.7 62.6 226.1 61.7 226.4 60.8 C 224.4 59.5 222.4 58.0 221.0 56.1 C 217.7 51.6 213.7 47.6 210.8 42.8 C 209.2 41.9 207.6 41.0 206.0 40.1 C 206.3 39.1 206.6 38.0 207.0 37.0 Z" />
<path fill="#cccac3" stroke="#cccac3" stroke-width="0.09375" opacity="1.00" d=" M 116.1 43.7 C 125.7 42.5 135.4 42.5 145.0 42.7 C 146.3 42.8 147.6 42.9 148.9 43.0 C 155.9 44.1 162.9 44.6 170.0 45.1 C 170.0 45.6 170.1 46.6 170.2 47.2 C 161.1 47.0 152.1 45.1 143.0 44.8 C 134.3 44.0 125.6 44.8 117.0 44.2 L 116.1 43.7 Z" />
<path fill="#e0e0e1" stroke="#e0e0e1" stroke-width="0.09375" opacity="1.00" d=" M 101.8 46.4 C 106.7 45.1 111.8 44.2 117.0 44.2 C 125.6 44.8 134.3 44.0 143.0 44.8 C 152.1 45.1 161.1 47.0 170.2 47.2 C 170.2 47.9 170.2 49.3 170.3 50.1 C 154.7 48.3 139.1 46.2 123.4 47.5 C 111.6 48.7 99.7 50.7 89.0 56.0 C 65.1 67.9 48.5 92.3 44.6 118.5 C 43.0 132.6 43.6 147.2 48.3 160.6 C 50.5 169.0 55.4 176.3 59.1 184.0 C 52.1 176.2 47.2 166.7 43.9 156.8 C 42.6 152.3 41.6 147.7 40.9 143.1 C 40.5 137.4 40.6 131.7 40.6 126.0 C 40.4 114.4 43.3 102.8 48.1 92.3 C 51.6 85.6 55.7 79.1 60.3 73.0 C 63.0 70.2 66.0 67.6 68.8 64.8 C 73.5 60.1 79.3 56.7 84.7 52.8 C 90.2 50.3 95.9 48.2 101.8 46.4 Z" />
<path fill="#fefefe" stroke="#fefefe" stroke-width="0.09375" opacity="1.00" d=" M 123.4 47.5 C 139.1 46.2 154.7 48.3 170.3 50.1 C 170.2 63.1 170.3 76.1 169.9 89.1 C 157.3 87.7 144.5 85.8 131.7 86.7 C 120.3 87.3 108.5 90.2 99.3 97.3 C 89.9 104.8 84.7 117.0 84.7 129.0 C 84.8 133.0 85.3 136.9 85.9 140.8 C 87.7 160.0 105.7 176.2 125.0 176.1 C 127.3 176.1 130.0 175.3 131.0 172.9 C 132.3 169.5 132.1 165.7 132.2 162.0 C 132.0 152.0 132.2 142.0 132.0 132.0 C 132.0 129.0 131.9 125.9 133.0 123.0 C 136.5 121.6 140.3 122.0 144.0 121.9 C 152.6 122.2 161.3 121.5 169.9 122.8 C 170.2 143.3 169.7 163.8 170.2 184.2 C 170.0 193.4 170.4 202.6 169.9 211.8 C 166.6 212.4 163.2 213.1 159.9 213.5 C 147.4 215.8 134.7 216.0 122.0 215.6 C 97.9 214.2 74.1 203.1 59.1 184.0 C 55.4 176.3 50.5 169.0 48.3 160.6 C 43.6 147.2 43.0 132.6 44.6 118.5 C 48.5 92.3 65.1 67.9 89.0 56.0 C 99.7 50.7 111.6 48.7 123.4 47.5 Z" />
<path fill="#efefee" stroke="#efefee" stroke-width="0.09375" opacity="1.00" d=" M 177.3 53.3 C 179.7 49.5 184.6 50.5 188.4 50.4 C 188.7 51.4 188.9 52.4 189.2 53.4 C 186.1 53.6 181.0 52.1 180.0 56.3 C 178.7 60.0 181.8 62.8 185.2 63.3 C 185.6 61.6 186.0 60.0 186.3 58.3 C 187.0 58.3 188.3 58.2 189.0 58.2 C 189.1 60.6 189.2 62.9 189.3 65.3 C 185.7 65.6 182.0 65.5 178.4 65.2 C 176.9 61.5 175.0 57.1 177.3 53.3 Z" />
<path fill="#f1d27a" stroke="#f1d27a" stroke-width="0.09375" opacity="1.00" d=" M 229.3 62.6 C 232.8 64.6 232.6 69.2 235.8 71.4 C 235.8 72.7 235.9 74.1 235.9 75.4 C 234.8 75.2 233.6 75.0 232.5 74.7 C 230.7 71.5 229.3 68.1 227.1 65.2 C 227.8 64.4 228.6 63.5 229.3 62.6 Z" />
<path fill="#f5f5f3" stroke="#f5f5f3" stroke-width="0.09375" opacity="1.00" d=" M 177.7 71.7 C 180.7 70.3 184.1 70.7 187.3 70.5 C 188.3 72.0 189.3 73.5 190.1 75.1 C 190.3 78.5 190.5 83.2 186.8 84.9 C 183.0 86.6 176.9 86.1 175.6 81.4 C 174.7 78.2 174.5 73.7 177.7 71.7 M 181.4 73.4 C 178.3 74.1 178.1 78.2 179.1 80.7 C 180.4 84.1 186.2 83.3 186.6 79.6 C 187.7 76.4 185.0 72.3 181.4 73.4 Z" />
<path fill="#f8de7a" stroke="#f8de7a" stroke-width="0.09375" opacity="1.00" d=" M 40.5 79.4 C 47.3 78.1 53.4 74.3 60.3 73.0 C 55.7 79.1 51.6 85.6 48.1 92.3 C 39.9 91.5 32.0 94.3 24.3 96.7 C 26.3 99.5 27.0 102.9 25.7 106.1 C 23.4 104.4 21.3 102.5 18.8 101.2 C 17.1 101.6 15.5 102.5 13.9 103.2 C 12.3 103.2 10.8 103.2 9.2 103.2 C 9.0 104.5 8.8 105.9 8.7 107.2 C 8.1 105.3 7.4 103.4 6.8 101.6 C 8.1 93.4 10.7 85.5 14.2 78.0 C 14.3 81.3 14.7 84.6 15.0 87.9 C 16.6 88.4 18.2 88.9 19.8 89.4 C 19.9 86.6 19.5 83.9 18.6 81.3 C 25.7 78.3 33.3 81.1 40.5 79.4 M 11.9 93.3 C 10.5 95.8 11.1 98.2 13.0 100.2 C 14.5 99.3 15.9 98.5 17.3 97.7 C 16.4 95.3 14.1 94.1 11.9 93.3 Z" />
<path fill="#f1c116" stroke="#f1c116" stroke-width="0.09375" opacity="1.00" d=" M 181.4 73.4 C 185.0 72.3 187.7 76.4 186.6 79.6 C 186.2 83.3 180.4 84.1 179.1 80.7 C 178.1 78.2 178.3 74.1 181.4 73.4 Z" />
<path fill="#f4d686" stroke="#f4d686" stroke-width="0.09375" opacity="1.00" d=" M 236.3 80.3 C 237.9 78.1 240.5 80.2 242.1 81.3 L 242.9 81.9 C 240.7 83.0 238.4 84.1 236.1 85.0 C 236.2 83.4 236.1 81.9 236.3 80.3 Z" />
<path fill="#f4f4f3" stroke="#f4f4f3" stroke-width="0.09375" opacity="1.00" d=" M 237.2 86.5 C 238.8 85.9 240.4 85.2 242.0 84.5 C 242.1 84.7 242.5 85.2 242.6 85.4 C 241.6 86.0 240.6 86.6 239.6 87.2 C 239.5 87.7 239.2 88.6 239.1 89.1 C 238.5 88.3 237.9 87.4 237.2 86.5 Z" />
<path fill="#f7cf2c" stroke="#f7cf2c" stroke-width="0.09375" opacity="1.00" d=" M 99.3 97.3 C 108.5 90.2 120.3 87.3 131.7 86.7 C 131.7 92.8 135.0 97.9 139.0 102.2 C 137.9 103.6 136.8 105.1 135.8 106.5 C 134.5 105.1 133.2 103.7 131.9 102.3 C 131.1 103.3 130.3 104.4 129.5 105.4 C 123.9 106.4 120.0 111.1 114.4 112.0 C 112.4 114.3 110.7 117.0 108.1 118.8 C 104.7 119.8 101.1 119.7 97.5 120.1 C 97.5 121.8 97.4 123.6 97.3 125.3 C 93.1 126.6 88.9 127.8 84.7 129.0 C 84.7 117.0 89.9 104.8 99.3 97.3 Z" />
<path fill="#efc852" stroke="#efc852" stroke-width="0.09375" opacity="1.00" d=" M 237.8 90.8 C 239.9 90.0 242.1 89.3 244.3 88.7 C 244.3 90.4 244.3 92.1 244.1 93.8 C 243.1 94.9 241.5 94.9 240.2 95.4 C 239.4 93.9 238.6 92.3 237.8 90.8 Z" />
<path fill="#f6f6f7" stroke="#f6f6f7" stroke-width="0.09375" opacity="1.00" d=" M 178.7 90.8 C 179.5 90.8 181.1 90.9 181.8 90.9 C 181.9 94.8 182.0 98.7 182.2 102.6 C 184.2 102.9 186.3 103.2 188.4 103.5 C 186.1 106.6 181.9 105.2 178.7 105.3 C 178.5 100.5 178.4 95.6 178.7 90.8 Z" />
<path fill="#f9dd60" stroke="#f9dd60" stroke-width="0.09375" opacity="1.00" d=" M 24.3 96.7 C 32.0 94.3 39.9 91.5 48.1 92.3 C 43.3 102.8 40.4 114.4 40.6 126.0 C 40.6 131.7 40.5 137.4 40.9 143.1 C 40.5 140.8 40.1 138.6 39.8 136.3 C 39.5 130.4 39.8 124.6 40.1 118.8 C 35.1 119.8 29.9 119.3 25.0 118.0 C 20.9 116.8 16.7 117.3 12.6 118.2 C 12.4 117.5 11.9 116.2 11.6 115.5 C 10.2 114.9 8.7 114.2 7.2 113.5 C 6.4 112.9 5.6 112.3 4.8 111.8 C 5.3 108.3 5.8 104.9 6.8 101.6 C 7.4 103.4 8.1 105.3 8.7 107.2 L 8.9 108.0 C 10.6 108.1 12.3 108.1 14.0 108.2 C 14.0 106.5 14.0 104.9 13.9 103.2 C 15.5 102.5 17.1 101.6 18.8 101.2 C 21.3 102.5 23.4 104.4 25.7 106.1 C 27.0 102.9 26.3 99.5 24.3 96.7 M 7.3 112.3 C 9.1 112.5 11.0 112.7 12.8 112.9 C 13.0 111.7 13.1 110.5 13.2 109.2 C 11.2 110.3 9.2 111.3 7.3 112.3 Z" />
<path fill="#fae9a0" stroke="#fae9a0" stroke-width="0.09375" opacity="1.00" d=" M 11.9 93.3 C 14.1 94.1 16.4 95.3 17.3 97.7 C 15.9 98.5 14.5 99.3 13.0 100.2 C 11.1 98.2 10.5 95.8 11.9 93.3 Z" />
<path fill="#f2d064" stroke="#f2d064" stroke-width="0.09375" opacity="1.00" d=" M 241.1 98.2 C 242.5 98.0 243.9 97.9 245.3 97.7 C 245.6 98.8 245.9 99.9 246.3 100.9 C 245.6 101.7 244.9 102.6 244.2 103.4 C 243.4 103.3 241.7 103.0 240.8 102.9 C 240.9 101.3 241.0 99.7 241.1 98.2 Z" />
<path fill="#f7cf20" stroke="#f7cf20" stroke-width="0.09375" opacity="1.00" d=" M 192.8 101.8 C 196.1 102.6 199.2 104.1 202.0 106.1 C 204.7 108.1 208.1 108.5 211.1 109.8 C 211.6 111.9 211.6 114.0 211.7 116.2 C 213.5 115.4 215.4 114.7 217.3 114.0 C 218.5 114.6 219.8 115.1 221.1 115.7 C 225.1 114.2 229.1 112.5 233.4 112.4 C 236.6 112.2 239.2 114.5 241.8 116.0 C 242.7 115.4 243.6 114.8 244.4 114.3 C 244.8 114.0 245.5 113.5 245.8 113.3 C 245.7 114.2 245.6 115.1 245.6 115.9 C 244.5 117.7 243.5 119.5 242.5 121.4 C 235.1 121.7 227.8 121.8 220.5 122.7 C 220.5 125.5 219.4 129.1 221.8 131.2 C 225.1 133.9 229.1 135.5 232.9 137.2 C 235.5 138.5 238.4 138.4 241.2 138.1 C 242.8 139.2 244.5 140.3 246.1 141.4 C 244.8 141.7 243.6 142.1 242.3 142.5 C 242.2 143.0 241.8 144.2 241.7 144.7 C 237.2 144.6 233.1 142.7 229.0 141.1 C 226.2 139.8 223.1 140.8 220.2 141.2 C 216.7 141.8 213.0 141.8 209.4 141.7 C 208.2 142.8 207.0 143.9 205.8 145.0 C 205.2 144.5 204.5 144.0 203.8 143.5 C 203.8 142.1 203.7 140.7 203.6 139.3 C 201.9 140.5 200.2 141.7 198.4 142.9 C 198.8 140.7 199.2 138.5 199.6 136.3 C 197.6 136.7 195.6 137.4 193.6 137.2 C 191.8 136.5 190.6 135.0 189.4 133.6 C 189.0 132.6 188.6 131.6 188.2 130.6 C 185.2 130.4 182.3 130.5 179.4 130.7 L 178.2 130.8 C 178.5 130.0 178.7 129.3 179.0 128.6 C 181.0 127.6 182.9 126.7 184.9 125.8 C 189.0 124.4 189.8 119.8 190.5 116.1 C 190.8 114.1 191.0 112.0 191.2 109.9 C 192.6 109.7 193.9 109.5 195.3 109.3 C 193.9 107.0 193.0 104.5 192.8 101.8 Z" />
<path fill="#fbea9f" stroke="#fbea9f" stroke-width="0.09375" opacity="1.00" d=" M 9.2 103.2 C 10.8 103.2 12.3 103.2 13.9 103.2 C 14.0 104.9 14.0 106.5 14.0 108.2 C 12.3 108.1 10.6 108.1 8.9 108.0 L 8.7 107.2 C 8.8 105.9 9.0 104.5 9.2 103.2 Z" />
<path fill="#f7dd93" stroke="#f7dd93" stroke-width="0.09375" opacity="1.00" d=" M 245.3 103.6 C 245.7 103.6 246.7 103.6 247.2 103.6 C 245.4 105.0 243.7 106.4 242.0 107.9 C 242.0 106.6 241.9 105.4 241.9 104.2 C 243.0 104.0 244.1 103.8 245.3 103.6 Z" />
<path fill="#f5c933" stroke="#f5c933" stroke-width="0.09375" opacity="1.00" d=" M 241.4 109.2 C 243.5 108.6 245.6 108.0 247.6 107.5 C 248.2 109.7 247.9 111.9 245.8 113.3 C 245.5 113.5 244.8 114.0 244.4 114.3 C 243.4 112.6 242.3 110.9 241.4 109.2 Z" />
<path fill="#fae9aa" stroke="#fae9aa" stroke-width="0.09375" opacity="1.00" d=" M 7.3 112.3 C 9.2 111.3 11.2 110.3 13.2 109.2 C 13.1 110.5 13.0 111.7 12.8 112.9 C 11.0 112.7 9.1 112.5 7.3 112.3 Z" />
<path fill="#e0c477" stroke="#e0c477" stroke-width="0.09375" opacity="1.00" d=" M 176.2 110.1 C 179.2 110.0 182.3 110.2 185.2 110.9 C 182.2 110.8 179.2 111.0 176.2 111.1 L 176.2 110.1 Z" />
<path fill="#f6f7f6" stroke="#f6f7f6" stroke-width="0.09375" opacity="1.00" d=" M 176.2 111.1 C 179.2 111.0 182.2 110.8 185.2 110.9 C 187.8 111.5 189.0 114.2 190.5 116.1 C 189.8 119.8 189.0 124.4 184.9 125.8 C 182.0 125.8 179.1 125.7 176.3 125.7 C 176.2 120.8 176.0 116.0 176.2 111.1 M 180.0 112.9 C 179.7 116.3 179.7 119.8 179.9 123.2 C 181.4 123.0 182.9 122.8 184.4 122.4 C 186.5 121.1 186.8 118.3 186.2 116.1 C 185.5 113.4 182.2 113.6 180.0 112.9 Z" />
<path fill="#f7d23d" stroke="#f7d23d" stroke-width="0.09375" opacity="1.00" d=" M 4.8 111.8 C 5.6 112.3 6.4 112.9 7.2 113.5 C 7.2 115.4 7.2 117.3 7.1 119.2 C 9.0 118.9 10.8 118.5 12.6 118.2 C 16.7 117.3 20.9 116.8 25.0 118.0 C 29.9 119.3 35.1 119.8 40.1 118.8 C 39.8 124.6 39.5 130.4 39.8 136.3 C 39.4 134.0 39.0 131.7 38.6 129.4 C 37.2 129.8 35.7 130.2 34.3 130.7 C 33.1 129.8 32.0 129.0 30.9 128.2 C 29.7 129.3 28.5 130.4 27.2 131.6 C 25.5 130.8 23.9 129.9 22.0 129.4 C 19.4 129.9 17.1 131.4 14.8 132.6 C 14.0 132.2 13.3 131.7 12.6 131.3 C 11.8 130.8 11.0 130.3 10.2 129.8 C 9.7 129.9 8.7 130.1 8.2 130.2 C 8.4 129.8 9.0 129.1 9.2 128.7 C 10.3 127.9 11.4 127.1 12.4 126.3 C 10.9 124.1 8.6 122.7 5.8 122.7 C 6.0 125.0 6.2 127.5 8.3 128.9 C 6.8 129.3 5.3 129.7 3.8 130.0 C 3.5 123.9 4.1 117.8 4.8 111.8 Z" />
<path fill="#f4c81e" stroke="#f4c81e" stroke-width="0.09375" opacity="1.00" d=" M 180.0 112.9 C 182.2 113.6 185.5 113.4 186.2 116.1 C 186.8 118.3 186.5 121.1 184.4 122.4 C 182.9 122.8 181.4 123.0 179.9 123.2 C 179.7 119.8 179.7 116.3 180.0 112.9 Z" />
<path fill="#010000" stroke="#010000" stroke-width="0.09375" opacity="0.25" d=" M 250.4 113.1 C 251.4 113.8 252.4 114.7 252.4 116.0 C 252.5 123.6 253.7 131.3 253.3 139.0 C 251.3 181.9 224.1 221.8 186.1 241.1 C 172.7 248.1 157.9 252.3 142.9 254.1 C 137.3 254.8 131.7 255.6 126.0 255.1 C 108.5 253.5 90.8 250.0 74.9 242.2 C 65.5 237.8 56.8 231.9 48.6 225.4 C 45.8 223.1 42.0 221.0 41.8 216.9 C 61.5 235.5 87.1 247.7 114.0 250.6 C 142.9 253.7 172.9 246.4 196.9 229.9 C 222.4 212.6 241.4 185.5 247.9 155.2 C 249.2 150.0 250.1 144.7 250.6 139.3 C 251.1 133.6 251.4 128.0 251.0 122.3 C 250.8 119.2 250.7 116.2 250.4 113.1 Z" />
<path fill="#fae288" stroke="#fae288" stroke-width="0.09375" opacity="1.00" d=" M 7.2 113.5 C 8.7 114.2 10.2 114.9 11.6 115.5 C 11.9 116.2 12.4 117.5 12.6 118.2 C 10.8 118.5 9.0 118.9 7.1 119.2 C 7.2 117.3 7.2 115.4 7.2 113.5 Z" />
<path fill="#d2d2d3" stroke="#d2d2d3" stroke-width="0.09375" opacity="1.00" d=" M 127.3 116.2 C 141.8 116.0 156.2 116.0 170.7 116.2 C 170.6 125.5 170.6 134.8 170.6 144.2 C 170.6 152.1 170.6 160.0 170.7 167.9 C 170.8 173.3 170.5 178.8 170.2 184.2 C 169.7 163.8 170.2 143.3 169.9 122.8 C 169.9 122.1 169.9 120.7 169.8 120.0 C 159.2 119.3 148.6 119.8 137.9 119.6 C 135.1 119.8 130.7 119.5 130.1 123.2 C 129.0 129.7 129.9 136.4 129.7 143.0 C 129.5 151.3 130.0 159.6 129.6 167.9 C 129.5 170.6 128.1 174.1 124.9 173.8 C 116.3 173.9 107.2 171.0 101.7 164.1 C 109.5 168.3 118.1 170.8 127.0 170.9 C 127.8 155.9 127.2 140.8 127.2 125.8 C 127.2 122.6 127.3 119.4 127.3 116.2 Z" />
<path fill="#f9dd6c" stroke="#f9dd6c" stroke-width="0.09375" opacity="1.00" d=" M 242.5 121.4 C 243.5 119.5 244.5 117.7 245.6 115.9 C 246.2 116.5 247.4 117.7 248.0 118.3 C 247.9 119.0 247.9 120.3 247.9 121.0 C 246.1 121.1 244.3 121.3 242.5 121.4 Z" />
<path fill="#f7d532" stroke="#f7d532" stroke-width="0.09375" opacity="1.00" d=" M 248.0 118.3 C 249.1 119.5 250.1 120.9 251.0 122.3 C 251.4 128.0 251.1 133.6 250.6 139.3 C 250.3 139.1 249.6 138.7 249.3 138.5 C 247.9 137.6 246.5 136.6 245.0 135.8 C 243.7 136.5 242.5 137.3 241.2 138.1 C 238.4 138.4 235.5 138.5 232.9 137.2 C 229.1 135.5 225.1 133.9 221.8 131.2 C 219.4 129.1 220.5 125.5 220.5 122.7 C 227.8 121.8 235.1 121.7 242.5 121.4 C 244.3 121.3 246.1 121.1 247.9 121.0 C 247.9 120.3 247.9 119.0 248.0 118.3 M 243.1 123.1 C 243.1 123.9 243.0 125.5 243.0 126.2 C 244.8 125.1 246.5 124.1 248.3 123.0 C 246.5 123.0 244.8 123.1 243.1 123.1 M 242.6 128.0 C 242.8 129.4 242.8 131.2 244.2 132.0 C 245.5 132.2 246.8 132.3 248.2 132.4 C 248.2 130.5 248.2 128.7 248.2 126.9 C 246.3 127.2 244.5 127.6 242.6 128.0 Z" />
<path fill="#ededec" stroke="#ededec" stroke-width="0.09375" opacity="1.00" d=" M 130.1 123.2 C 130.7 119.5 135.1 119.8 137.9 119.6 C 148.6 119.8 159.2 119.3 169.8 120.0 C 169.9 120.7 169.9 122.1 169.9 122.8 C 161.3 121.5 152.6 122.2 144.0 121.9 C 140.3 122.0 136.5 121.6 133.0 123.0 C 131.9 125.9 132.0 129.0 132.0 132.0 C 132.2 142.0 132.0 152.0 132.2 162.0 C 132.1 165.7 132.3 169.5 131.0 172.9 C 130.0 175.3 127.3 176.1 125.0 176.1 C 105.7 176.2 87.7 160.0 85.9 140.8 C 86.6 142.1 87.3 143.4 88.1 144.7 C 90.6 152.4 95.9 158.7 101.7 164.1 C 107.2 171.0 116.3 173.9 124.9 173.8 C 128.1 174.1 129.5 170.6 129.6 167.9 C 130.0 159.6 129.5 151.3 129.7 143.0 C 129.9 136.4 129.0 129.7 130.1 123.2 Z" />
<path fill="#fae085" stroke="#fae085" stroke-width="0.09375" opacity="1.00" d=" M 5.8 122.7 C 8.6 122.7 10.9 124.1 12.4 126.3 C 11.4 127.1 10.3 127.9 9.2 128.7 L 8.3 128.9 C 6.2 127.5 6.0 125.0 5.8 122.7 Z" />
<path fill="#fae79c" stroke="#fae79c" stroke-width="0.09375" opacity="1.00" d=" M 243.1 123.1 C 244.8 123.1 246.5 123.0 248.3 123.0 C 246.5 124.1 244.8 125.1 243.0 126.2 C 243.0 125.5 243.1 123.9 243.1 123.1 Z" />
<path fill="#e9b915" stroke="#e9b915" stroke-width="0.09375" opacity="1.00" d=" M 120.2 132.2 C 123.1 130.8 125.0 128.1 127.2 125.8 C 127.2 140.8 127.8 155.9 127.0 170.9 C 118.1 170.8 109.5 168.3 101.7 164.1 C 95.9 158.7 90.6 152.4 88.1 144.7 C 90.0 146.0 92.0 147.3 94.0 148.6 C 95.3 145.2 96.8 141.8 98.3 138.5 C 100.4 138.1 102.6 137.7 104.7 137.3 C 105.7 135.5 106.3 133.0 108.5 132.4 C 112.3 131.3 116.3 132.8 120.2 132.2 Z" />
<path fill="#f6d852" stroke="#f6d852" stroke-width="0.09375" opacity="1.00" d=" M 242.6 128.0 C 244.5 127.6 246.3 127.2 248.2 126.9 C 248.2 128.7 248.2 130.5 248.2 132.4 C 246.8 132.3 245.5 132.2 244.2 132.0 C 242.8 131.2 242.8 129.4 242.6 128.0 Z" />
<path fill="#f1c31d" stroke="#f1c31d" stroke-width="0.09375" opacity="1.00" d=" M 8.3 128.9 L 9.2 128.7 C 9.0 129.1 8.4 129.8 8.2 130.2 C 7.4 131.4 6.6 132.7 5.8 134.0 C 8.1 133.2 10.3 132.3 12.6 131.3 C 13.3 131.7 14.0 132.2 14.8 132.6 C 17.1 131.4 19.4 129.9 22.0 129.4 C 23.9 129.9 25.5 130.8 27.2 131.6 C 28.5 130.4 29.7 129.3 30.9 128.2 C 32.0 129.0 33.1 129.8 34.3 130.7 C 35.7 130.2 37.2 129.8 38.6 129.4 C 39.0 131.7 39.4 134.0 39.8 136.3 C 40.1 138.6 40.5 140.8 40.9 143.1 C 41.6 147.7 42.6 152.3 43.9 156.8 C 42.7 157.2 41.4 157.7 40.1 158.1 C 38.9 161.7 38.1 165.6 35.6 168.6 C 32.6 171.3 28.2 171.3 24.3 172.0 C 23.8 175.3 23.4 178.7 23.7 182.1 C 23.0 182.0 21.6 181.8 20.9 181.7 C 20.7 181.0 20.5 180.3 20.3 179.7 C 20.3 177.7 21.4 175.4 19.8 173.8 C 17.7 174.1 16.0 175.3 14.4 176.6 L 14.0 177.2 C 11.8 172.2 9.7 167.2 8.5 161.9 C 6.0 151.4 3.8 140.8 3.8 130.0 C 5.3 129.7 6.8 129.3 8.3 128.9 M 5.5 135.0 C 6.1 137.2 7.4 139.0 9.1 140.5 C 10.5 139.0 11.5 137.1 12.3 135.1 C 10.0 135.0 7.8 135.0 5.5 135.0 M 7.3 143.2 C 7.3 145.1 7.3 147.1 7.5 149.1 C 9.4 148.6 11.3 148.0 13.1 147.4 C 12.6 146.2 12.2 144.8 11.2 143.8 C 9.9 143.5 8.6 143.4 7.3 143.2 M 7.9 153.9 C 9.8 153.3 11.6 152.7 13.5 152.2 C 13.3 151.3 12.9 149.7 12.7 148.9 C 11.1 150.6 9.5 152.2 7.9 153.9 M 8.6 155.1 C 9.1 156.9 9.4 159.8 11.9 159.7 C 14.5 159.7 14.9 156.6 14.4 154.7 C 12.4 154.8 10.5 154.9 8.6 155.1 M 13.2 162.9 C 11.1 164.4 12.0 167.2 11.8 169.3 C 13.4 168.8 15.1 168.4 16.5 167.4 C 18.5 165.6 15.3 162.6 13.2 162.9 M 13.9 173.9 C 15.6 173.3 17.4 172.6 19.1 171.9 C 18.7 170.9 18.3 169.8 17.9 168.7 C 16.6 170.4 15.2 172.2 13.9 173.9 Z" />
<path fill="#faebb6" stroke="#faebb6" stroke-width="0.09375" opacity="1.00" d=" M 10.2 129.8 C 11.0 130.3 11.8 130.8 12.6 131.3 C 10.3 132.3 8.1 133.2 5.8 134.0 C 6.6 132.7 7.4 131.4 8.2 130.2 C 8.7 130.1 9.7 129.9 10.2 129.8 Z" />
<path fill="#ddc981" stroke="#ddc981" stroke-width="0.09375" opacity="1.00" d=" M 179.4 130.7 C 182.3 130.5 185.2 130.4 188.2 130.6 C 185.3 130.6 182.3 130.7 179.4 130.7 Z" />
<path fill="#f4f4f3" stroke="#f4f4f3" stroke-width="0.09375" opacity="1.00" d=" M 178.2 130.8 L 179.4 130.7 C 182.3 130.7 185.3 130.6 188.2 130.6 C 188.6 131.6 189.0 132.6 189.4 133.6 C 186.9 133.5 184.3 133.1 181.7 133.7 C 179.2 135.5 179.1 139.6 181.3 141.8 C 183.8 142.9 186.7 142.6 189.4 142.8 C 188.6 143.8 187.9 144.8 187.1 145.9 C 184.3 145.6 181.5 145.4 178.7 145.1 C 177.8 143.1 176.7 141.1 176.3 138.9 C 176.2 136.0 177.4 133.4 178.2 130.8 Z" />
<path fill="#f2c218" stroke="#f2c218" stroke-width="0.09375" opacity="1.00" d=" M 181.7 133.7 C 184.3 133.1 186.9 133.5 189.4 133.6 C 190.6 135.0 191.8 136.5 193.6 137.2 C 195.6 137.4 197.6 136.7 199.6 136.3 C 199.2 138.5 198.8 140.7 198.4 142.9 C 200.2 141.7 201.9 140.5 203.6 139.3 C 203.7 140.7 203.8 142.1 203.8 143.5 C 204.5 144.0 205.2 144.5 205.8 145.0 C 207.0 143.9 208.2 142.8 209.4 141.7 C 213.0 141.8 216.7 141.8 220.2 141.2 C 223.1 140.8 226.2 139.8 229.0 141.1 C 233.1 142.7 237.2 144.6 241.7 144.7 C 245.1 144.0 247.4 141.3 249.3 138.5 C 249.6 138.7 250.3 139.1 250.6 139.3 C 250.1 144.7 249.2 150.0 247.9 155.2 C 247.2 153.9 246.5 152.5 245.9 151.2 C 246.1 149.6 246.3 148.1 246.6 146.5 C 244.8 146.4 243.0 146.3 241.2 146.2 C 241.3 147.8 241.3 149.4 241.4 150.9 C 241.1 151.5 240.9 152.2 240.6 152.8 C 240.8 153.0 241.2 153.4 241.4 153.6 C 240.5 154.3 239.6 155.1 238.8 155.9 C 236.2 155.0 233.3 153.3 230.5 154.5 C 226.7 155.7 223.4 158.0 220.0 159.9 C 219.3 158.6 218.7 157.2 218.0 155.9 C 213.0 157.6 207.6 153.2 203.1 156.7 C 201.9 154.9 200.8 153.0 199.7 151.1 C 196.4 152.2 193.2 153.4 189.9 154.5 C 189.8 153.8 189.6 152.4 189.5 151.7 C 189.3 149.8 189.2 147.9 189.2 146.1 C 188.7 146.0 187.6 145.9 187.1 145.9 C 187.9 144.8 188.6 143.8 189.4 142.8 C 186.7 142.6 183.8 142.9 181.3 141.8 C 179.1 139.6 179.2 135.5 181.7 133.7 Z" />
<path fill="#f8e1a3" stroke="#f8e1a3" stroke-width="0.09375" opacity="1.00" d=" M 5.5 135.0 C 7.8 135.0 10.0 135.0 12.3 135.1 C 11.5 137.1 10.5 139.0 9.1 140.5 C 7.4 139.0 6.1 137.2 5.5 135.0 Z" />
<path fill="#f8dd72" stroke="#f8dd72" stroke-width="0.09375" opacity="1.00" d=" M 241.2 138.1 C 242.5 137.3 243.7 136.5 245.0 135.8 C 246.5 136.6 247.9 137.6 249.3 138.5 C 247.4 141.3 245.1 144.0 241.7 144.7 C 241.8 144.2 242.2 143.0 242.3 142.5 C 243.6 142.1 244.8 141.7 246.1 141.4 C 244.5 140.3 242.8 139.2 241.2 138.1 Z" />
<path fill="#f9e19c" stroke="#f9e19c" stroke-width="0.09375" opacity="1.00" d=" M 7.3 143.2 C 8.6 143.4 9.9 143.5 11.2 143.8 C 12.2 144.8 12.6 146.2 13.1 147.4 C 11.3 148.0 9.4 148.6 7.5 149.1 C 7.3 147.1 7.3 145.1 7.3 143.2 Z" />
<path fill="#e8b813" stroke="#e8b813" stroke-width="0.09375" opacity="1.00" d=" M 170.6 144.2 C 173.3 144.5 176.0 144.8 178.7 145.1 C 181.5 145.4 184.3 145.6 187.1 145.9 C 187.6 145.9 188.7 146.0 189.2 146.1 C 189.2 147.9 189.3 149.8 189.5 151.7 C 185.2 151.1 179.4 149.0 176.1 153.1 C 174.3 156.6 174.6 161.7 177.7 164.4 C 180.6 165.9 184.4 165.9 187.4 164.4 C 190.7 162.4 190.4 157.9 189.9 154.5 C 193.2 153.4 196.4 152.2 199.7 151.1 C 200.8 153.0 201.9 154.9 203.1 156.7 C 207.6 153.2 213.0 157.6 218.0 155.9 C 218.7 157.2 219.3 158.6 220.0 159.9 C 223.4 158.0 226.7 155.7 230.5 154.5 C 233.3 153.3 236.2 155.0 238.8 155.9 C 239.2 157.0 239.7 158.2 240.2 159.3 C 241.9 159.2 243.7 159.0 245.5 158.9 C 244.4 156.9 243.1 155.0 241.4 153.6 C 241.2 153.4 240.8 153.0 240.6 152.8 C 240.9 152.2 241.1 151.5 241.4 150.9 C 242.9 151.0 244.4 151.1 245.9 151.2 C 246.5 152.5 247.2 153.9 247.9 155.2 C 241.4 185.5 222.4 212.6 196.9 229.9 C 172.9 246.4 142.9 253.7 114.0 250.6 C 87.1 247.7 61.5 235.5 41.8 216.9 C 30.3 205.5 20.5 192.1 14.0 177.2 L 14.4 176.6 C 16.3 177.7 18.3 178.7 20.3 179.7 C 20.5 180.3 20.7 181.0 20.9 181.7 C 20.7 182.7 20.5 183.7 20.3 184.7 C 22.5 188.1 24.1 192.3 27.9 194.3 C 30.2 189.7 24.9 186.2 23.7 182.1 C 23.4 178.7 23.8 175.3 24.3 172.0 C 28.2 171.3 32.6 171.3 35.6 168.6 C 38.1 165.6 38.9 161.7 40.1 158.1 C 41.4 157.7 42.7 157.2 43.9 156.8 C 47.2 166.7 52.1 176.2 59.1 184.0 C 74.1 203.1 97.9 214.2 122.0 215.6 C 134.7 216.0 147.4 215.8 159.9 213.5 C 163.8 214.3 167.0 217.0 171.0 217.7 C 174.4 217.1 176.8 214.3 180.0 213.1 C 182.6 213.9 182.3 217.0 183.0 219.0 C 186.4 215.0 192.6 210.9 190.8 204.9 C 190.5 203.2 190.2 201.5 189.9 199.9 C 191.7 200.1 193.5 200.4 195.2 200.6 C 195.1 202.2 194.6 203.8 194.9 205.4 C 196.5 208.1 200.1 206.6 201.9 204.9 C 204.5 202.2 205.7 198.6 207.3 195.2 C 209.8 195.5 212.3 195.8 214.9 196.0 C 217.1 192.4 220.0 188.5 219.4 184.0 C 218.5 177.4 216.3 171.1 215.2 164.5 C 213.7 166.7 212.2 168.9 210.7 171.1 C 209.8 171.3 208.8 171.6 207.9 171.8 C 206.9 173.8 206.2 176.1 204.7 177.8 C 202.3 179.1 199.5 178.8 197.0 179.1 C 197.6 175.6 198.3 172.1 198.6 168.5 C 194.3 170.8 192.7 175.6 190.7 179.7 C 190.3 177.2 190.1 174.7 190.2 172.2 C 189.8 171.8 189.2 171.0 188.9 170.6 C 187.7 175.7 186.4 180.7 184.5 185.6 C 184.4 180.4 184.5 175.2 184.0 170.0 C 182.4 171.0 181.0 172.3 180.4 174.1 C 180.1 172.6 179.7 171.1 179.4 169.6 C 176.5 169.0 173.6 168.4 170.7 167.9 C 170.6 160.0 170.6 152.1 170.6 144.2 M 238.1 159.8 C 238.0 160.6 237.8 162.2 237.8 163.0 C 239.9 162.5 242.0 162.0 244.1 161.5 C 242.1 160.9 240.1 160.4 238.1 159.8 M 236.7 164.1 C 235.8 166.5 235.9 169.7 239.0 170.3 C 242.1 170.9 242.3 167.2 242.3 165.1 C 240.4 164.7 238.6 164.4 236.7 164.1 M 233.0 175.1 C 232.8 177.1 230.9 179.7 233.2 181.1 C 236.8 181.7 236.9 177.6 237.1 175.1 C 235.8 175.1 234.4 175.1 233.0 175.1 M 229.7 182.1 C 231.0 183.1 232.4 184.1 233.8 185.1 C 233.9 184.3 234.0 182.8 234.1 182.0 C 232.6 182.1 231.1 182.1 229.7 182.1 M 228.1 186.0 C 226.5 188.7 225.0 191.4 223.1 193.9 C 223.3 194.6 223.9 195.9 224.1 196.6 C 228.3 196.0 228.7 190.9 231.8 188.6 C 231.9 187.2 232.0 185.9 232.0 184.5 C 230.7 184.9 228.8 184.6 228.1 186.0 M 27.0 195.3 C 30.9 201.0 35.2 206.4 39.6 211.5 C 40.9 213.5 43.0 211.8 44.4 211.0 C 40.9 206.6 36.7 202.9 33.8 198.0 C 32.7 197.5 31.6 197.1 30.5 196.6 C 30.6 195.6 30.7 194.7 30.8 193.7 C 29.5 194.2 28.2 194.8 27.0 195.3 M 220.8 195.4 C 220.3 197.8 219.9 200.1 219.7 202.5 C 218.7 202.1 217.7 201.6 216.7 201.2 C 217.5 202.7 218.3 204.1 219.2 205.6 C 221.5 203.3 223.9 201.0 225.2 198.0 C 224.2 196.5 222.3 196.2 220.8 195.4 M 215.2 204.1 C 215.5 205.5 215.9 206.8 216.2 208.2 C 214.8 207.9 213.4 207.5 212.0 207.2 C 213.0 208.5 214.0 209.7 214.9 210.9 C 216.2 209.3 217.5 207.7 218.8 206.1 C 217.6 205.4 216.4 204.8 215.2 204.1 M 45.2 211.4 C 43.8 211.5 42.5 213.4 43.4 214.7 C 45.0 215.7 47.1 212.1 45.2 211.4 M 207.3 212.3 C 206.0 213.5 206.5 215.4 206.3 217.0 C 205.2 216.6 204.0 216.3 202.8 216.0 C 203.8 217.3 204.7 218.6 205.6 219.9 C 207.5 218.2 209.4 216.6 211.3 214.9 C 211.3 214.1 211.3 212.5 211.2 211.6 C 209.9 211.6 208.3 211.2 207.3 212.3 M 45.8 213.5 C 45.8 215.0 44.6 216.9 46.0 218.0 C 47.4 219.5 49.6 219.0 51.4 219.4 C 51.2 218.1 50.8 216.8 50.5 215.6 C 49.4 214.1 47.4 214.1 45.8 213.5 M 193.3 226.6 C 192.4 226.4 191.5 226.3 190.6 226.1 C 191.1 227.3 191.6 228.4 192.1 229.6 C 195.9 227.2 199.3 224.4 203.1 221.9 C 205.2 220.8 203.6 216.7 201.3 218.3 C 198.2 220.5 194.2 222.5 193.3 226.6 M 52.7 223.2 C 56.0 225.5 59.2 230.0 63.7 228.3 C 62.6 224.3 58.4 222.9 55.5 220.4 C 53.8 218.8 50.7 221.6 52.7 223.2 M 62.4 229.9 C 66.9 233.2 71.9 235.9 77.2 237.9 C 78.8 238.8 81.0 237.0 80.1 235.2 C 76.4 233.1 72.5 230.4 68.0 231.2 C 68.3 230.5 68.6 229.7 68.9 228.9 C 67.7 229.2 66.5 229.5 65.3 229.8 C 65.4 228.7 65.5 227.5 65.5 226.4 C 64.4 227.6 63.4 228.7 62.4 229.9 M 188.1 227.8 C 187.0 229.1 188.9 231.6 190.4 230.6 C 191.5 229.3 189.6 226.9 188.1 227.8 M 177.6 233.0 C 177.4 234.3 177.2 235.5 177.0 236.8 C 177.7 236.8 179.1 236.7 179.8 236.7 C 182.4 235.1 185.3 233.9 187.8 232.0 C 187.5 230.9 187.3 229.8 187.0 228.7 C 183.9 230.2 180.8 231.7 177.6 233.0 M 79.5 238.9 C 82.6 240.5 86.0 242.3 89.6 241.2 C 89.1 240.0 88.6 238.9 88.0 237.8 C 86.3 236.6 84.2 237.8 82.3 237.9 C 82.3 237.3 82.4 236.1 82.5 235.4 C 81.5 236.6 80.5 237.7 79.5 238.9 M 167.5 239.6 C 167.0 239.2 166.1 238.4 165.6 238.0 C 166.0 239.4 166.3 240.7 166.7 242.1 C 169.8 240.7 174.9 240.2 174.4 235.7 C 171.2 235.2 169.0 237.1 167.5 239.6 M 149.3 242.2 C 148.5 243.1 147.8 243.9 147.1 244.8 C 146.3 244.2 145.6 243.5 144.8 242.8 C 144.9 244.3 144.9 245.7 145.0 247.2 C 151.6 245.8 158.2 244.1 164.9 243.0 C 164.9 241.5 164.9 240.1 165.0 238.6 C 159.6 239.5 154.7 242.2 149.3 242.2 M 93.2 240.3 C 91.6 240.5 91.2 243.4 92.9 243.6 C 94.5 243.5 94.9 240.6 93.2 240.3 M 94.6 243.9 C 98.8 245.3 103.2 247.0 107.7 246.0 C 108.6 246.6 109.4 247.2 110.3 247.8 C 111.4 247.6 112.5 247.3 113.5 247.0 C 115.8 247.7 118.4 249.1 120.2 247.0 C 120.9 244.8 118.7 243.9 117.0 244.1 C 112.6 244.0 108.3 243.3 104.1 242.1 C 103.1 242.7 102.1 243.2 101.1 243.8 C 101.0 243.1 100.8 241.7 100.7 241.0 C 99.9 241.9 99.1 242.8 98.3 243.6 C 97.9 242.6 97.5 241.6 97.0 240.6 C 96.2 241.7 95.4 242.8 94.6 243.9 M 132.8 244.0 C 132.6 245.4 131.2 247.3 133.3 247.9 C 136.9 248.1 140.8 248.4 144.1 246.9 C 144.1 245.5 144.3 243.8 142.8 243.1 C 139.5 243.7 136.2 244.3 132.8 244.0 M 121.1 243.9 C 121.0 245.3 120.9 246.7 120.9 248.1 C 123.7 248.2 128.9 250.4 129.4 246.0 C 128.1 242.2 124.4 244.8 122.4 246.5 C 122.0 245.6 121.5 244.7 121.1 243.9 Z" />
<path fill="#f3d680" stroke="#f3d680" stroke-width="0.09375" opacity="1.00" d=" M 241.2 146.2 C 243.0 146.3 244.8 146.4 246.6 146.5 C 246.3 148.1 246.1 149.6 245.9 151.2 C 244.4 151.1 242.9 151.0 241.4 150.9 C 241.3 149.4 241.3 147.8 241.2 146.2 Z" />
<path fill="#faebb6" stroke="#faebb6" stroke-width="0.09375" opacity="1.00" d=" M 7.9 153.9 C 9.5 152.2 11.1 150.6 12.7 148.9 C 12.9 149.7 13.3 151.3 13.5 152.2 C 11.6 152.7 9.8 153.3 7.9 153.9 Z" />
<path fill="#f5f6f5" stroke="#f5f6f5" stroke-width="0.09375" opacity="1.00" d=" M 176.1 153.1 C 179.4 149.0 185.2 151.1 189.5 151.7 C 189.6 152.4 189.8 153.8 189.9 154.5 C 190.4 157.9 190.7 162.4 187.4 164.4 C 184.4 165.9 180.6 165.9 177.7 164.4 C 174.6 161.7 174.3 156.6 176.1 153.1 M 181.4 153.4 C 178.6 154.0 178.3 157.5 178.8 159.9 C 179.3 163.1 184.7 164.1 186.1 161.0 C 188.1 157.7 185.9 152.1 181.4 153.4 Z" />
<path fill="#e7b714" stroke="#e7b714" stroke-width="0.09375" opacity="1.00" d=" M 181.4 153.4 C 185.9 152.1 188.1 157.7 186.1 161.0 C 184.7 164.1 179.3 163.1 178.8 159.9 C 178.3 157.5 178.6 154.0 181.4 153.4 Z" />
<path fill="#efcc64" stroke="#efcc64" stroke-width="0.09375" opacity="1.00" d=" M 241.4 153.6 C 243.1 155.0 244.4 156.9 245.5 158.9 C 243.7 159.0 241.9 159.2 240.2 159.3 C 239.7 158.2 239.2 157.0 238.8 155.9 C 239.6 155.1 240.5 154.3 241.4 153.6 Z" />
<path fill="#f6d87d" stroke="#f6d87d" stroke-width="0.09375" opacity="1.00" d=" M 8.6 155.1 C 10.5 154.9 12.4 154.8 14.4 154.7 C 14.9 156.6 14.5 159.7 11.9 159.7 C 9.4 159.8 9.1 156.9 8.6 155.1 Z" />
<path fill="#f4da96" stroke="#f4da96" stroke-width="0.09375" opacity="1.00" d=" M 238.1 159.8 C 240.1 160.4 242.1 160.9 244.1 161.5 C 242.0 162.0 239.9 162.5 237.8 163.0 C 237.8 162.2 238.0 160.6 238.1 159.8 Z" />
<path fill="#f4ce52" stroke="#f4ce52" stroke-width="0.09375" opacity="1.00" d=" M 13.2 162.9 C 15.3 162.6 18.5 165.6 16.5 167.4 C 15.1 168.4 13.4 168.8 11.8 169.3 C 12.0 167.2 11.1 164.4 13.2 162.9 Z" />
<path fill="#ebc03a" stroke="#ebc03a" stroke-width="0.09375" opacity="1.00" d=" M 236.7 164.1 C 238.6 164.4 240.4 164.7 242.3 165.1 C 242.3 167.2 242.1 170.9 239.0 170.3 C 235.9 169.7 235.8 166.5 236.7 164.1 Z" />
<path fill="#f1c117" stroke="#f1c117" stroke-width="0.09375" opacity="1.00" d=" M 210.7 171.1 C 212.2 168.9 213.7 166.7 215.2 164.5 C 216.3 171.1 218.5 177.4 219.4 184.0 C 220.0 188.5 217.1 192.4 214.9 196.0 C 212.3 195.8 209.8 195.5 207.3 195.2 C 205.7 198.6 204.5 202.2 201.9 204.9 C 200.1 206.6 196.5 208.1 194.9 205.4 C 194.6 203.8 195.1 202.2 195.2 200.6 C 193.5 200.4 191.7 200.1 189.9 199.9 C 189.7 196.6 189.7 193.4 189.7 190.2 C 188.6 190.2 187.5 190.2 186.4 190.2 C 186.0 193.1 185.7 196.0 185.4 198.9 C 183.2 196.2 181.2 193.4 179.2 190.5 C 177.9 190.4 176.6 190.2 175.3 190.1 C 175.1 195.3 175.1 200.5 175.3 205.8 C 176.4 205.9 177.6 206.0 178.8 206.1 L 178.9 205.1 C 179.0 202.3 179.2 199.5 179.4 196.7 C 181.7 199.6 183.9 202.5 186.0 205.6 C 187.6 205.4 189.2 205.1 190.8 204.9 C 192.6 210.9 186.4 215.0 183.0 219.0 C 182.3 217.0 182.6 213.9 180.0 213.1 C 176.8 214.3 174.4 217.1 171.0 217.7 C 167.0 217.0 163.8 214.3 159.9 213.5 C 163.2 213.1 166.6 212.4 169.9 211.8 C 170.4 202.6 170.0 193.4 170.2 184.2 C 170.5 178.8 170.8 173.3 170.7 167.9 C 173.6 168.4 176.5 169.0 179.4 169.6 C 179.7 171.1 180.1 172.6 180.4 174.1 C 180.8 177.8 181.0 181.4 181.1 185.1 C 181.9 185.2 183.7 185.5 184.5 185.6 C 186.4 180.7 187.7 175.7 188.9 170.6 C 189.2 171.0 189.8 171.8 190.2 172.2 C 190.1 174.7 190.3 177.2 190.7 179.7 C 192.7 175.6 194.3 170.8 198.6 168.5 C 198.3 172.1 197.6 175.6 197.0 179.1 C 199.5 178.8 202.3 179.1 204.7 177.8 C 206.2 176.1 206.9 173.8 207.9 171.8 C 208.8 171.6 209.8 171.3 210.7 171.1 Z" />
<path fill="#f8df97" stroke="#f8df97" stroke-width="0.09375" opacity="1.00" d=" M 13.9 173.9 C 15.2 172.2 16.6 170.4 17.9 168.7 C 18.3 169.8 18.7 170.9 19.1 171.9 C 17.4 172.6 15.6 173.3 13.9 173.9 Z" />
<path fill="#f6f7f5" stroke="#f6f7f5" stroke-width="0.09375" opacity="1.00" d=" M 180.4 174.1 C 181.0 172.3 182.4 171.0 184.0 170.0 C 184.5 175.2 184.4 180.4 184.5 185.6 C 183.7 185.5 181.9 185.2 181.1 185.1 C 181.0 181.4 180.8 177.8 180.4 174.1 Z" />
<path fill="#f5d985" stroke="#f5d985" stroke-width="0.09375" opacity="1.00" d=" M 14.4 176.6 C 16.0 175.3 17.7 174.1 19.8 173.8 C 21.4 175.4 20.3 177.7 20.3 179.7 C 18.3 178.7 16.3 177.7 14.4 176.6 Z" />
<path fill="#f2d796" stroke="#f2d796" stroke-width="0.09375" opacity="1.00" d=" M 233.0 175.1 C 234.4 175.1 235.8 175.1 237.1 175.1 C 236.9 177.6 236.8 181.7 233.2 181.1 C 230.9 179.7 232.8 177.1 233.0 175.1 Z" />
<path fill="#f1d37a" stroke="#f1d37a" stroke-width="0.09375" opacity="1.00" d=" M 20.9 181.7 C 21.6 181.8 23.0 182.0 23.7 182.1 C 24.9 186.2 30.2 189.7 27.9 194.3 C 24.1 192.3 22.5 188.1 20.3 184.7 C 20.5 183.7 20.7 182.7 20.9 181.7 Z" />
<path fill="#f2da9d" stroke="#f2da9d" stroke-width="0.09375" opacity="1.00" d=" M 229.7 182.1 C 231.1 182.1 232.6 182.1 234.1 182.0 C 234.0 182.8 233.9 184.3 233.8 185.1 C 232.4 184.1 231.0 183.1 229.7 182.1 Z" />
<path fill="#ecc96a" stroke="#ecc96a" stroke-width="0.09375" opacity="1.00" d=" M 228.1 186.0 C 228.8 184.6 230.7 184.9 232.0 184.5 C 232.0 185.9 231.9 187.2 231.8 188.6 C 228.7 190.9 228.3 196.0 224.1 196.6 C 223.9 195.9 223.3 194.6 223.1 193.9 C 225.0 191.4 226.5 188.7 228.1 186.0 Z" />
<path fill="#e0c477" stroke="#e0c477" stroke-width="0.09375" opacity="1.00" d=" M 175.3 190.1 C 176.6 190.2 177.9 190.4 179.2 190.5 C 178.4 190.7 176.9 191.0 176.1 191.1 C 175.9 195.7 175.9 200.2 176.1 204.8 C 176.8 204.9 178.2 205.0 178.9 205.1 L 178.8 206.1 C 177.6 206.0 176.4 205.9 175.3 205.8 C 175.1 200.5 175.1 195.3 175.3 190.1 Z" />
<path fill="#e3ce99" stroke="#e3ce99" stroke-width="0.09375" opacity="1.00" d=" M 186.4 190.2 C 187.5 190.2 188.6 190.2 189.7 190.2 C 189.7 193.4 189.7 196.6 189.9 199.9 C 190.2 201.5 190.5 203.2 190.8 204.9 C 189.2 205.1 187.6 205.4 186.0 205.6 C 186.7 205.4 188.2 205.0 188.9 204.8 C 188.9 200.0 191.0 194.3 187.4 190.4 C 186.8 193.6 186.6 196.9 186.4 200.2 C 186.1 199.9 185.6 199.2 185.4 198.9 C 185.7 196.0 186.0 193.1 186.4 190.2 Z" />
<path fill="#f3f4f3" stroke="#f3f4f3" stroke-width="0.09375" opacity="1.00" d=" M 176.1 191.1 C 176.9 191.0 178.4 190.7 179.2 190.5 C 181.2 193.4 183.2 196.2 185.4 198.9 C 185.6 199.2 186.1 199.9 186.4 200.2 C 186.6 196.9 186.8 193.6 187.4 190.4 C 191.0 194.3 188.9 200.0 188.9 204.8 C 188.2 205.0 186.7 205.4 186.0 205.6 C 183.9 202.5 181.7 199.6 179.4 196.7 C 179.2 199.5 179.0 202.3 178.9 205.1 C 178.2 205.0 176.8 204.9 176.1 204.8 C 175.9 200.2 175.9 195.7 176.1 191.1 Z" />
<path fill="#f1d381" stroke="#f1d381" stroke-width="0.09375" opacity="1.00" d=" M 27.0 195.3 C 28.2 194.8 29.5 194.2 30.8 193.7 C 30.7 194.7 30.6 195.6 30.5 196.6 C 31.6 197.1 32.7 197.5 33.8 198.0 C 36.7 202.9 40.9 206.6 44.4 211.0 C 43.0 211.8 40.9 213.5 39.6 211.5 C 35.2 206.4 30.9 201.0 27.0 195.3 Z" />
<path fill="#eac459" stroke="#eac459" stroke-width="0.09375" opacity="1.00" d=" M 220.8 195.4 C 222.3 196.2 224.2 196.5 225.2 198.0 C 223.9 201.0 221.5 203.3 219.2 205.6 C 218.3 204.1 217.5 202.7 216.7 201.2 C 217.7 201.6 218.7 202.1 219.7 202.5 C 219.9 200.1 220.3 197.8 220.8 195.4 Z" />
<path fill="#f5f5f3" stroke="#f5f5f3" stroke-width="0.09375" opacity="1.00" d=" M 215.2 204.1 C 216.4 204.8 217.6 205.4 218.8 206.1 C 217.5 207.7 216.2 209.3 214.9 210.9 C 214.0 209.7 213.0 208.5 212.0 207.2 C 213.4 207.5 214.8 207.9 216.2 208.2 C 215.9 206.8 215.5 205.5 215.2 204.1 Z" />
<path fill="#f4dea4" stroke="#f4dea4" stroke-width="0.09375" opacity="1.00" d=" M 45.2 211.4 C 47.1 212.1 45.0 215.7 43.4 214.7 C 42.5 213.4 43.8 211.5 45.2 211.4 Z" />
<path fill="#eecf76" stroke="#eecf76" stroke-width="0.09375" opacity="1.00" d=" M 207.3 212.3 C 208.3 211.2 209.9 211.6 211.2 211.6 C 211.3 212.5 211.3 214.1 211.3 214.9 C 209.4 216.6 207.5 218.2 205.6 219.9 C 204.7 218.6 203.8 217.3 202.8 216.0 C 204.0 216.3 205.2 216.6 206.3 217.0 C 206.5 215.4 206.0 213.5 207.3 212.3 Z" />
<path fill="#eec64d" stroke="#eec64d" stroke-width="0.09375" opacity="1.00" d=" M 45.8 213.5 C 47.4 214.1 49.4 214.1 50.5 215.6 C 50.8 216.8 51.2 218.1 51.4 219.4 C 49.6 219.0 47.4 219.5 46.0 218.0 C 44.6 216.9 45.8 215.0 45.8 213.5 Z" />
<path fill="#f1d177" stroke="#f1d177" stroke-width="0.09375" opacity="1.00" d=" M 193.3 226.6 C 194.2 222.5 198.2 220.5 201.3 218.3 C 203.6 216.7 205.2 220.8 203.1 221.9 C 199.3 224.4 195.9 227.2 192.1 229.6 C 191.6 228.4 191.1 227.3 190.6 226.1 C 191.5 226.3 192.4 226.4 193.3 226.6 Z" />
<path fill="#eed184" stroke="#eed184" stroke-width="0.09375" opacity="1.00" d=" M 52.7 223.2 C 50.7 221.6 53.8 218.8 55.5 220.4 C 58.4 222.9 62.6 224.3 63.7 228.3 C 59.2 230.0 56.0 225.5 52.7 223.2 Z" />
<path fill="#e8bc38" stroke="#e8bc38" stroke-width="0.09375" opacity="1.00" d=" M 62.4 229.9 C 63.4 228.7 64.4 227.6 65.5 226.4 C 65.5 227.5 65.4 228.7 65.3 229.8 C 66.5 229.5 67.7 229.2 68.9 228.9 C 68.6 229.7 68.3 230.5 68.0 231.2 C 72.5 230.4 76.4 233.1 80.1 235.2 C 81.0 237.0 78.8 238.8 77.2 237.9 C 71.9 235.9 66.9 233.2 62.4 229.9 Z" />
<path fill="#f4dca2" stroke="#f4dca2" stroke-width="0.09375" opacity="1.00" d=" M 188.1 227.8 C 189.6 226.9 191.5 229.3 190.4 230.6 C 188.9 231.6 187.0 229.1 188.1 227.8 Z" />
<path fill="#f2db9c" stroke="#f2db9c" stroke-width="0.09375" opacity="1.00" d=" M 177.6 233.0 C 180.8 231.7 183.9 230.2 187.0 228.7 C 187.3 229.8 187.5 230.9 187.8 232.0 C 185.3 233.9 182.4 235.1 179.8 236.7 C 179.1 236.7 177.7 236.8 177.0 236.8 C 177.2 235.5 177.4 234.3 177.6 233.0 Z" />
<path fill="#f0d386" stroke="#f0d386" stroke-width="0.09375" opacity="1.00" d=" M 79.5 238.9 C 80.5 237.7 81.5 236.6 82.5 235.4 C 82.4 236.1 82.3 237.3 82.3 237.9 C 84.2 237.8 86.3 236.6 88.0 237.8 C 88.6 238.9 89.1 240.0 89.6 241.2 C 86.0 242.3 82.6 240.5 79.5 238.9 Z" />
<path fill="#e9c24e" stroke="#e9c24e" stroke-width="0.09375" opacity="1.00" d=" M 167.5 239.6 C 169.0 237.1 171.2 235.2 174.4 235.7 C 174.9 240.2 169.8 240.7 166.7 242.1 C 166.3 240.7 166.0 239.4 165.6 238.0 C 166.1 238.4 167.0 239.2 167.5 239.6 Z" />
<path fill="#edcc67" stroke="#edcc67" stroke-width="0.09375" opacity="1.00" d=" M 149.3 242.2 C 154.7 242.2 159.6 239.5 165.0 238.6 C 164.9 240.1 164.9 241.5 164.9 243.0 C 158.2 244.1 151.6 245.8 145.0 247.2 C 144.9 245.7 144.9 244.3 144.8 242.8 C 145.6 243.5 146.3 244.2 147.1 244.8 C 147.8 243.9 148.5 243.1 149.3 242.2 Z" />
<path fill="#f3dda7" stroke="#f3dda7" stroke-width="0.09375" opacity="1.00" d=" M 93.2 240.3 C 94.9 240.6 94.5 243.5 92.9 243.6 C 91.2 243.4 91.6 240.5 93.2 240.3 Z" />
<path fill="#eeca5e" stroke="#eeca5e" stroke-width="0.09375" opacity="1.00" d=" M 94.6 243.9 C 95.4 242.8 96.2 241.7 97.0 240.6 C 97.5 241.6 97.9 242.6 98.3 243.6 C 99.1 242.8 99.9 241.9 100.7 241.0 C 100.8 241.7 101.0 243.1 101.1 243.8 C 102.1 243.2 103.1 242.7 104.1 242.1 C 108.3 243.3 112.6 244.0 117.0 244.1 C 118.7 243.9 120.9 244.8 120.2 247.0 C 118.4 249.1 115.8 247.7 113.5 247.0 C 112.5 247.3 111.4 247.6 110.3 247.8 C 109.4 247.2 108.6 246.6 107.7 246.0 C 103.2 247.0 98.8 245.3 94.6 243.9 Z" />
<path fill="#eecf67" stroke="#eecf67" stroke-width="0.09375" opacity="1.00" d=" M 132.8 244.0 C 136.2 244.3 139.5 243.7 142.8 243.1 C 144.3 243.8 144.1 245.5 144.1 246.9 C 140.8 248.4 136.9 248.1 133.3 247.9 C 131.2 247.3 132.6 245.4 132.8 244.0 Z" />
<path fill="#f2d47c" stroke="#f2d47c" stroke-width="0.09375" opacity="1.00" d=" M 121.1 243.9 C 121.5 244.7 122.0 245.6 122.4 246.5 C 124.4 244.8 128.1 242.2 129.4 246.0 C 128.9 250.4 123.7 248.2 120.9 248.1 C 120.9 246.7 121.0 245.3 121.1 243.9 Z" />
</svg>
