/* XPM */
static char *bitcoin__[] = {
/* columns rows colors chars-per-pixel */
"80 80 256 2",
"   c #5D4201",
".  c #614602",
"X  c #644905",
"o  c #6B4E08",
"O  c #6A4D06",
"+  c #6E520B",
"@  c #72550D",
"#  c #78590C",
"$  c #745A12",
"%  c #7A5D13",
"&  c #7E6217",
"*  c #815D03",
"=  c #815F10",
"-  c #876306",
";  c #936A00",
":  c #846314",
">  c #85691C",
",  c #8C6D1C",
"<  c #876818",
"1  c #926D1A",
"2  c #99771B",
"3  c #9C7502",
"4  c #A57D04",
"5  c #A57A00",
"6  c #A47A1F",
"7  c #8A6E20",
"8  c #8E7224",
"9  c #937423",
"0  c #9C7D2A",
"q  c #987927",
"w  c #997B33",
"e  c #A37D24",
"r  c #AC8402",
"t  c #AB8509",
"y  c #B58B01",
"u  c #B58B04",
"i  c #BC9205",
"p  c #BD940A",
"a  c #B8940E",
"s  c #A9881A",
"d  c #BB9714",
"f  c #B38D11",
"g  c #9D8234",
"h  c #A5832C",
"j  c #AB852B",
"k  c #AB8922",
"l  c #B68C2B",
"z  c #B59526",
"x  c #AC8B34",
"c  c #A78836",
"v  c #B38E37",
"b  c #AD923B",
"n  c #B3943C",
"m  c #B99636",
"M  c #BDA33C",
"N  c #C49C0D",
"B  c #C29807",
"V  c #C49D13",
"C  c #C39E1A",
"Z  c #CBA20E",
"A  c #CCA415",
"S  c #C5A21C",
"D  c #CAA61C",
"F  c #CAA416",
"G  c #D1A715",
"H  c #D5AB1C",
"J  c #D4AB19",
"K  c #DBB21D",
"L  c #C49B38",
"P  c #C1972B",
"I  c #CBA623",
"U  c #CDAA23",
"Y  c #C9A729",
"T  c #D2AD24",
"R  c #D4AE28",
"E  c #D6B023",
"W  c #DBB324",
"Q  c #D6B12A",
"!  c #DAB52B",
"~  c #DFB826",
"^  c #CCAC33",
"/  c #C9A43B",
"(  c #D2AB39",
")  c #D3B234",
"_  c #D4B33C",
"`  c #DBB837",
"'  c #CFB23C",
"]  c #E1B723",
"[  c #E5BC24",
"{  c #E8BF25",
"}  c #E5BC2B",
"|  c #E8BF29",
" . c #E1B728",
".. c #E3BD39",
"X. c #E1B61D",
"o. c #EDC325",
"O. c #ECC42B",
"+. c #E7C02D",
"@. c #F0C626",
"#. c #F1C72B",
"$. c #F4CA2C",
"%. c #F9CE2F",
"&. c #F2C827",
"*. c #E6C23C",
"=. c #EBC537",
"-. c #F4CB31",
";. c #F9CF30",
":. c #F3CC3B",
">. c #F0C731",
",. c #FBD132",
"<. c #FAD23B",
"1. c #A78C46",
"2. c #AC9245",
"3. c #B59944",
"4. c #AD9652",
"5. c #B29B55",
"6. c #BBA459",
"7. c #BEA347",
"8. c #BBAA77",
"9. c #B6A56B",
"0. c #CAAC4C",
"q. c #C5A748",
"w. c #D6AB43",
"e. c #D8B848",
"r. c #C5AA5A",
"t. c #DBBC53",
"y. c #DBBE5B",
"u. c #D4B855",
"i. c #CDB24F",
"p. c #E6BB4B",
"a. c #EABF50",
"s. c #C3AD67",
"d. c #CAB56A",
"f. c #CAB778",
"g. c #CFB96D",
"h. c #DDC259",
"j. c #DDC14C",
"k. c #E9C547",
"l. c #F4CD46",
"z. c #FAD448",
"x. c #ECCC54",
"c. c #E2C55C",
"v. c #E8C657",
"b. c #F4CB57",
"n. c #F4D354",
"m. c #F3D45D",
"M. c #FBD35B",
"N. c #FCDB5D",
"B. c #FBD655",
"V. c #EFD05D",
"C. c #FFE45C",
"Z. c #FFE14F",
"A. c #DDC464",
"S. c #DBC56A",
"D. c #DAC678",
"F. c #E4CA64",
"G. c #E5CA68",
"H. c #EDD26B",
"J. c #E9D269",
"K. c #FDDC64",
"L. c #F2D56C",
"P. c #F5D96C",
"I. c #FCDC6B",
"U. c #F6D765",
"Y. c #E4CC76",
"T. c #E9D377",
"R. c #F5DA73",
"E. c #FBDD73",
"W. c #F4DB7C",
"Q. c #FBDE7A",
"!. c #F1D773",
"~. c #F7CF60",
"^. c #FEE464",
"/. c #FFEA66",
"(. c #FCE36B",
"). c #FFEB6B",
"_. c #F7E06C",
"`. c #FCE375",
"'. c #FEEB74",
"]. c #FCE37B",
"[. c #FEEB7B",
"{. c #F7E37A",
"}. c #FFF17D",
"|. c #FFF174",
" X c #FFF46E",
".X c #C8B985",
"XX c #C9BC94",
"oX c #D9C988",
"OX c #CEC296",
"+X c #D9CA94",
"@X c #CFC084",
"#X c #E2CE87",
"$X c #E4D38B",
"%X c #EAD786",
"&X c #F5DE83",
"*X c #F7DF86",
"=X c #E7D798",
"-X c #EDDA92",
";X c #FBE384",
":X c #FCEB82",
">X c #FCE48B",
",X c #FCEB8B",
"<X c #F6E387",
"1X c #FFF383",
"2X c #FFF985",
"3X c #FFF68B",
"4X c #F3E293",
"5X c #FBE592",
"6X c #FDEB94",
"7X c #FBE69B",
"8X c #FDEB9C",
"9X c #F5E59A",
"0X c #FEF194",
"qX c #FEF29B",
"wX c #FFFA97",
"eX c #D5CCA7",
"rX c #DBD1A9",
"tX c #DBD3B4",
"yX c #D4CDB1",
"uX c #E6DAA7",
"iX c #E3DCB9",
"pX c #FDECA2",
"aX c #FDEEAC",
"sX c #F4E5A7",
"dX c #FEF2A4",
"fX c #FEF3AD",
"gX c #FFFDA8",
"hX c #ECE2BA",
"jX c #FAEDB7",
"kX c #FEF4B4",
"lX c #FFFBB5",
"zX c #FEF5BB",
"xX c #FFFBBD",
"cX c #E9E4CA",
"vX c #F5ECC8",
"bX c #FDF5C3",
"nX c #FFFBC3",
"mX c #FDF4CC",
"MX c #FFFBCD",
"NX c #F7F1CC",
"BX c #EEEAD3",
"VX c #E9E5D9",
"CX c #F2EDD6",
"ZX c #FEF5D4",
"AX c #FFFAD3",
"SX c #FCF5DA",
"DX c #FEFBDC",
"FX c #F6F1D6",
"GX c #FDFCE4",
"HX c #FEFDED",
"JX c #F9F5E4",
"KX c #FEFEF3",
"LX c #FFFFFE",
"PX c #F4F3F0",
"IX c #DFDAC0",
"UX c None",
/* pixels */
"UXUXUXUXUXUXUXUXUXUXUXUXUXUXUXUXUXUXUXUXUXUXUXUXUXUXUXUXUXUXUXUXUXUXUXUXUXUXUXUXUXUXUXUXUXUXUXUXUXUXUXUXUXUXUXUXUXUXUXUXUXUXUXUXUXUXUXUXUXUXUXUXUXUXUXUXUXUXUXUX",
"UXUXUXUXUXUXUXUXUXUXUXUXUXUXUXUXUXUXUXUXUXUXUXUXUXUXUXUXUXUXUXUXUXUXUXUXUXUXUXUXUXUXUXUXUXUXUXUXUXUXUXUXUXUXUXUXUXUXUXUXUXUXUXUXUXUXUXUXUXUXUXUXUXUXUXUXUXUXUXUX",
"UXUXUXUXUXUXUXUXUXUXUXUXUXUXUXUXUXUXUXUXUXUXUXUXUXUXUXUXUXUXUXUXUXUXUXUX@Xf.d.s.s.6.6.UXUXUXUXUXUXUXUXUXUXUXUXUXUXUXUXUXUXUXUXUXUXUXUXUXUXUXUXUXUXUXUXUXUXUXUXUX",
"UXUXUXUXUXUXUXUXUXUXUXUXUXUXUXUXUXUXUXUXUXUXUXUXUXUXUXUXUXUXUXhXuXuX+X+XD.f.f.s.s.6.6.5.5.2.2.2.c UXUXUXUXUXUXUXUXUXUXUXUXUXUXUXUXUXUXUXUXUXUXUXUXUXUXUXUXUXUXUX",
"UXUXUXUXUXUXUXUXUXUXUXUXUXUXUXUXUXUXUXUXUXUXUXUXUXUXUXCXvXvXuX+Xf.r.5.2.x 2.n v x v x x c c c c g g q q UXUXUXUXUXUXUXUXUXUXUXUXUXUXUXUXUXUXUXUXUXUXUXUXUXUXUXUX",
"UXUXUXUXUXUXUXUXUXUXUXUXUXUXUXUXUXUXUXUXUXUXUXUXUXCXNXvX=Xs.2.x b 3.r.d.D.T.Y.G.G.G.F.c.e.i.L m v h 0 q 8 8 9 UXUXUXUXUXUXUXUXUXUXUXUXUXUXUXUXUXUXUXUXUXUXUXUXUX",
"UXUXUXUXUXUXUXUXUXUXUXUXUXUXUXUXUXUXUXUXUXUXUXFXDXmXoX2.0 b s.+XsXxXxXxXlXgXgXgXwX0XwX1X1X[.(.U.V.t.q.v h q 7 > 8 UXUXUXUXUXUXUXUXUXUXUXUXUXUXUXUXUXUXUXUXUXUXUX",
"UXUXUXUXUXUXUXUXUXUXUXUXUXUXUXUXUXUXUXUXUXJXHXZXf.0 q 6.uXMXAXMXxXlXkXkXfXfXfXdX8XqX6X6X,X:X:X[.|.).^.m.p./ j q > > , UXUXUXUXUXUXUXUXUXUXUXUXUXUXUXUXUXUXUXUXUX",
"UXUXUXUXUXUXUXUXUXUXUXUXUXUXUXUXUXUXUXJXHXKX+X2 9 f.NXGXAXnXbXbXnXnXxXxXzXzXkXkXfXdXdX8X6X0X,X,X[.'.).).).K.x.w.j 9 & > UXUXUXUXUXUXUXUXUXUXUXUXUXUXUXUXUXUXUXUX",
"UXUXUXUXUXUXUXUXUXUXUXUXUXUXUXUXUXUXJXLXFXb < 8.DXHXMXbXbXbXbXbXbXbXbXbXbXbXbXnXbXxXzXkXfXdXqX6X,X,X[.`.(.).).N.x.w.e > % < UXUXUXUXUXUXUXUXUXUXUXUXUXUXUXUXUXUX",
"UXUXUXUXUXUXUXUXUXUXUXUXUXUXUXUXUXKXLX+X- 1.CXKXAXmXmXmXmXmXmXmXAXDXDXDXAXMXnXzXzXzXzXnXnXMXnXkXdX6X,X,X:X[.I.^.).m.v.L , $ & UXUXUXUXUXUXUXUXUXUXUXUXUXUXUXUXUX",
"UXUXUXUXUXUXUXUXUXUXUXUXUXUXUXUXLXLX5.* XXLXGXmXmXmXmXmXmXZXDXDXAXzXaX4X%XT.G.F.c.c.c.c.L.W.6XfXzXxXfX8X6X,X{.].I././.b.w.e $ % UXUXUXUXUXUXUXUXUXUXUXUXUXUXUXUX",
"UXUXUXUXUXUXUXUXUXUXUXUXUXUXSXLXHXq < BXLXZXZXZXZXZXZXSXGXZXzXsX%XY.A.u.u.t.t.e.e.e.^ ^ I I R ` x.{.dXxXkX6X,X;X{.`.K.).K.p.l $ $ & UXUXUXUXUXUXUXUXUXUXUXUXUXUX",
"UXUXUXUXUXUXUXUXUXUXUXUXUXvXLXFX- w HXKXZXZXZXZXZXSXGXZXjX-XY.S.S.S.S.G.H.J.V.x.n.k.k.k.` ` Y I F N ! m.6XzXkX5X,X].`.(.^./.b.L % + & UXUXUXUXUXUXUXUXUXUXUXUXUX",
"UXUXUXUXUXUXUXUXUXUXUXUXSXLXFX* 1.LXGXZXZXZXZXSXJXDXjX-X#X#X#X%XW.R.R.L.U.K.N.N.n.l.z.:.:.:.+.=.E T D Z H n.8XxXpX>X,X{.(.)./.M.L % + UXUXUXUXUXUXUXUXUXUXUXUXUX",
"UXUXUXUXUXUXUXUXUXUXUXUXLXSX* 4.LXGXZXZXZXZXDXGXmXsX$X#X$X%X&XW.Q.E.P.U.m.N.N.N.l.z.z.:.z.>.<.#.O.-.O.! I V W E.kXkX5X>X:X`././.M.L @ + UXUXUXUXUXUXUXUXUXUXUXUX",
"UXUXUXUXUXUXUXUXUXUXUXKXLX1 1.LXDXZXZXZXSXGXDXjX=X$X$X-X*X*X&XW.R.R.U.I.m.M.N.n.l.z.:.z.:.<.<.#.,.;.%.$.O.! S Z *.dXzX8X,X:X`.^./.M.l o @ UXUXUXUXUXUXUXUXUXUXUX",
"UXUXUXUXUXUXUXUXUXUXGXLXc w KXGXZXZXSXSXGXSXsX=X=X-X4X5X>X>X;X].].`.P.m.m.m.n.k.n.*.l.:.=.<.O.;.,.,.,.,.%.$.+.S d ~ ,XxXpX,X:X`./.^.b.j X $ UXUXUXUXUXUXUXUXUXUX",
"UXUXUXUXUXUXUXUXUXSXLXs.# GXGXZXZXZXSXGXZXsX=X=X-X4X5X*X>X;X].Q.E.P.H.c.c.t._ _ ) R ) R ..! } -.-.;.,.,.,.,.O.{ ! a J ].xXdX,X:X`.^.^.v.1 X $ UXUXUXUXUXUXUXUXUX",
"UXUXUXUXUXUXUXUXUXKXhX+ rXKXmXZXZXZXGXZXsX=XuX9X7X5X<X>X>X;XQ.!.F.t.t.j.c.c.F.F.h.h.e.) U V A H  .O.$.%.,.%.o.,.o.W C Z `.nXqX,X]._.).N.w.% O UXUXUXUXUXUXUXUXUX",
"UXUXUXUXUXUXUXUXSXHX, 5.LXAXAXAXAXGXAXsX=X=X9X7X5X>X*X;XW.!.G.y.h.Y.9XzXMXDXGXHXHXGXDXmXjX-XA.Y N A W O.;.o.$.%.o.-.E C J ].nX8X<X:X_.^.K.l X @ UXUXUXUXUXUXUXUX",
"UXUXUXUXUXUXUXbXLXs.% GXDXmXZXZXDXDXsX=X=X9X7X4X>X>X<X&XT.A.h.%XzXGXLXLXLXLXLXKXLXLXLXLXLXLXLXSX=Xw.B A ~ { ;.o.,.$.o.} a J 6XzX6X,X{.).^.b.1   UXUXUXUXUXUXUXUX",
"UXUXUXUXUXUXUXDXbX* +XKXMXAXAXDXGXjX=X=X9X7X5X>X<X>X;XY.A.T.zXKXLXLXHXHXHXHXHXHXHXHXHXKXKXKXKXLXLXKX=XY y W [ O.,.o.,.o.E C  .dXlX,X:X`.).^.L o + UXUXUXUXUXUXUX",
"UXUXUXUXUXUXjXHX3.8 HXAXAXAXAXGXbX=X=X4X4X5X*X>X&XW.Y.A.4XGXLXKXHXHXHXHXHXHXHXHXHXHXKXKXKXKXKXKXKXLXLXJXg.y A O.o.%.%.o.-.Q V x.zXdX6X{.'.(.M.q   @ UXUXUXUXUXUX",
"UXUXUXUXUXUXAXjX* +XHXmXAXAXGXAX-X$X4X5X5X5X>X&XW.Y.G.pXKXLXHXHXHXHXHXHXHXHXHXHXKXKXKXKXKXKXKXKXKXKXKXLXLXoXa N  .-.o.%.;.O.I A {.nX6X,X[.).(.( + o UXUXUXUXUXUX",
"UXUXUXUXUXUXGX6.8 GXMXMXAXDXGXsX$X$X5X5X*X<X;XW.Y.A.pXLXLXHXHXHXHXHXHXHXKXLXLXLXLXLXLXLXKXKXKXKXKXKXKXKXLXLXuXf A [ o.,.;.-.+.S ` fXfX0X:X'.'.M.1   UXUXUXUXUXUX",
"UXUXUXUXUXzXMX< s.GXbXmXZXGXbX$X#X*X>X&X;X&XW.Y.A.9XLXLXHXHXHXHXHXHXKXLXLXHXSXZXNXNXSXKXLXLXLXKXKXKXKXKXKXKXLXiXf A O.;.,.$.o.Q A U.nX8X,X:X}.(.m X + UXUXUXUXUX",
"UXUXUXUXUXnXoX< zXMXMXMXAXGXsXD.%X*X&X;X;XW.T.A.&XKXLXHXHXHXHXHXKXLXKXjX%Xh._ ^ ^ ^ ^ i.D.hXLXLXLXKXKXKXKXKXKXLXiXa o.;.$.@.#.~ C ! dXfX0X,X}.'.p.: . UXUXUXUXUX",
"UXUXUXUXUXAXc g AXzXbXmXDXbXT.D.&X&X;X;XR.W.G.J.DXLXHXHXHXHXHXLXLXbXA.^ I U Q T Q E T A B p q.uXLXLXKXKXKXKXLXLXf.V O.,.$.@.%.{ D N E.nXqX6X:X}.K.6   UXUXUXUXUX",
"UXUXUXUXaXzX, f.MXzXbXMXGXsXD.T.W.].].R.R.H.h.aXLXHXHXHXHXHXLXLX4X) I ` ..=.:.>.-.-.>.O.} E N y i.JXLXKXKXLXLXs.r  .#.;.,.&.@.o.~ V *.lXfX0X,X1X'.P X + UXUXUXUX",
"UXUXUXUXkX#X< 9XxXzXbXMXAX%XS.T.R.R.R.L.H.A.T.HXLXHXHXHXHXLXLX%XY _ ..l.:.:.<.-.,.,.;.;.-.$.O.E y z cXLXLXLXd.r H #.%.;.;.,.,.o.#.S A 6XxXqX0X1X'.p.# X UXUXUXUX",
"UXUXUXUXxXr.9 lXfXkXbXAXkXG.Y.!.L.L.L.J.y.t.aXLXHXHXHXHXKXLX4XY ^ k.:.z.:.-.<.$.,.,.;.,.,.,.%.>.~ i f iXPXf.r H | ;.;.;.;.;.,.&.o.T N P.nXqX0X:X}.M.1   UXUXUXUX",
"UXUXUXUXxXc b lXfXkXbXDX9Xy.G.J.G.c.y.u.q.F.DXLXHXHXHXHXLXsXU z Y *.=.<.-.-.<.#.;.;.,.$.@.%.,.,.O.[ G d m a W O.O.,.;.;.;.;.;.,.$.~ V k.lXdX0X,X1XK.e   UXUXUXUX",
"UXUXUX5XfX9 6.gXpXkXzXMX%Xy.G.F.c.!.W.T.F.4XKXHXHXHXHXLXGXF.t.h.t.) ` :.-.-.,.&.;.,.%.o.&.@.;.,.#.o.#.K K ] O.$.&.,.;.;.;.,.,.,.,.| V Q dXkX0X,X2X'.P . o UXUXUX",
"UXUXUX6X7X, S.gXdXfXnXzXG.y.c.c.5XGXHXGXGXHXHXHXHXHXHXKXGXSXHXKXHXD.D +.>.$.,.@.%.,.$.o.%.o.%.,.$.$.,.o.;.O.$.%.@.,.,.;.,.;.$.,.;.#.D D >XlXqX,X3X}.( o O UXUXUX",
"UXUXUX6X%X> Y.wX8XfXbXfXh.u.t.e.bXLXKXKXKXKXHXHXHXHXHXHXKXLXLXLXLXvXV } $.$.,.@.;.;.,.$.o.%.,.,.$.$.$.o.$.$.$.&.o.$.,.,.;.@.o.$.,.$.! A R.kX6X,X:X'.w.@ X UXUXUX",
"UXUXUXqXD., `.,X8XdXnX8Xt.h.v.k.8XLXLXLXLXHXHXHXHXHXHXLXLXLXLXLXLX=XD } o.%.,.o.;.;.,.-.o.-.#.-.O.{ o.$.o.o.{ o.$.{ $.;.@.@.,.o.,.$.! F U.kX5X,X:X[.a.= . UXUXUX",
"UXUXUXqXg., `.,X6XpXzX5Xe.j.x.k.v.4XsX4XsXHXKXHXHXHXLXvXT.$X$X$XoX^ T [ $.,.o.&.,.;.#.[ J G H H A A G G G A G G G J K O.#.o.o.$.,.$.} F V.fX6X;X[.[.x.:   UXUXUX",
"UXUXUX0Xg.< I.].>X8XzX<Xe.v.n.n.k.` ) I c.KXKXHXHXHXLX-XB d N A A H [ ;.%.o.&.,.;.-.| V d z z z z z z z k k k k s k s f } #.$.,.%.-.} F x.aX8X;X{.'.v.:   UXUXUX",
"UXUXUX0Xg., K.].>X6XzX<X_ e.l.l.l.k._ S T.KXKXHXHXKXLX%Xa I } | ] O.;.@.o.%.,.,.;.#.J m cXJXCXCXCXCXBXBXBXBXBXBXBXBXVX9.f o.o.%.,.$.W N x.fX5X;X].`.b.:   UXUXUX",
"UXUXUX0Xg.< M.I.Q.>XaXW.) _ l.l.l.l...U Y.KXKXHXHXKXLXD.N } O.o.;.;.o.@.,.,.;.,.;.O.B f.LXLXLXLXLXLXLXLXLXLXLXLXLXLXLXIX3 ] $.@.,.o.W F x.fX6X;X].(.a.:   UXUXUX",
"UXUXUX,Xg., M.I.`.>XaX&X) e.l.z.l.=.` C A.KXKXHXHXKXLX$Xp D W O.o.{ #.,.,.;.,.%.;.O.p d.LXKXKXHXHXHXHXHXHXHXHXGXGXGXLXrX4 W o.&.,.#.E F x.fX5X;XE.(.k.:   UXUXUX",
"UXUXUX,Xy., b.K.I.;XpX;X) ^ *...Q D C i _ GXLXHXHXHXLX=Xy y N B B W >.$.;.;.@.@.o.| p d.LXKXHXHXHXHXHXHXHXHXGXGXGXGXLXeX4 [ o.,.,.-.W Z m.aX>X].`.I.p.: . UXUXUX",
"UXUXUX].T.> p.K.I.Q.7X>X` ) *.! j.%X-X%X%XJXKXHXHXHXLXNXS.D.oXD.D.Y E O.;.%.@.,.@.[ B d.LXKXHXHXHXHXHXHXHXGXGXGXGXGXLXOX4 O.;.,.,.$.! D L.pX;XQ.(.K.w.# X UXUXUX",
"UXUXUX`.Q.8 _ ^.I.Q.5X6X` I T T jXLXLXLXLXHXHXHXHXKXHXLXLXLXLXLXLXoXN | ;.%.o.$.o.o.B s.LXLXLXLXLXLXLXLXKXGXGXGXGXGXLX.X5 O.-.,.,.#.R H Q.7X;XE.I.K./ O O UXUXUX",
"UXUXUXQ.:Xq m /.K.E.;X8Xk.S I E DXLXLXLXLXLXKXHXKXKXKXKXKXLXLXLXLXcXi | -.,.$.o.&.$.W z OXtXrXrXrXrXrX+XhXKXGXGXGXGXLX9.5 { ;.,.;.O.U Q >X5XQ.I.K.K.m . o UXUXUX",
"UXUXUXUX1Xc j /.K.E.;XpXm.D I D %XHXGXGXDXGXKXKXKXKXKXKXKXFXJXHXJXs.V O.%.,.,.@.;.-.>.H r f t t t 4 r - rXLXGXGXGXHXKX2.i o.,.,.%.+.D ..8X>XQ.I.K.M.j   UXUXUXUX",
"UXUXUXUX1Xq., C.N.I.Q.7XE.F S H U _ _ ' ^ ^ SXLXKXKXKXKXLX=Xa / z V } $.;.,.&.o.&.;.$.{ X.] [ } W D y 2.LXHXGXGXGXLXcX2 J o.,.,.$.! F m.pX*XE.U.M.b.1   UXUXUXUX",
"UXUXUXUX[.F.> x.^.I.Q.5X,X! D } ] H J A V y $XLXKXKXKXKXLXKX0.4 V ~ O.%.,.%.o.,.o.$.$.o.;.o.$.>.} V ; iXLXGXGXGXGXLX8.5 | o.,.;.#.T D ].8XQ.E.M.M.p.# X UXUXUXUX",
"UXUXUXUXE.`.7 q.|.E.].>XpXx.F ! #.#.#.O.} F Y HXLXKXKXKXKXLXKXM y E O.$.;.,.$.@.&.,.,.&.o.&.-.O.H ; .XLXGXGXGXGXHXHX0 i [ &.,.;.+.V ` 6X>XQ.I.N.M.L X + UXUXUXUX",
"UXUXUXUXUX1Xc q }.I.Q.;XpX].H U >.,.,.,.-. .i oXLXKXKXKXKXKXLXPX7.r A } O.#.$.#.%.-.-.$.O.O.+.V ; 9.LXHXGXGXGXDXLXOX; W O.,.,.-.T B U.dX;X`.K.N.M.e   UXUXUXUXUX",
"UXUXUXUXUX[.y.> P.[.].>X8XpX*.V ~ #.$.$.$.>.H d CXLXKXKXKXKXKXLXLXf.s r N K  .| | | |  .K B 5 2 XXLXKXGXGXGXGXKXHX9 i O.;.,.,.[ d W ,XqX].(.K.N.a.: . UXUXUXUXUX",
"UXUXUXUXUXE.[.> 3.2XQ.;X>XaXE.A S o.&.$.@.o.+.N / LXLXKXKXKXKXKXLXLXBXf.n s t r r r r 4 s x 8.CXLXHXGXGXGXGXGXLX9.; [ O.,.,.o.U F n.dX,X].(.C.K.L . + UXUXUXUXUX",
"UXUXUXUXUXUX:Xq.> 1X[.;X>X8XfXk.S ~ -.,.,.&.{  .i d.LXLXKXKXKXKXKXKXLXLXKXcXrXOX.X.XOXeXcXKXLXLXGXGXGXGXGXDXLXrX* G { #.,.o.~ S E 0XqX[.'.^.^.b.1   UXUXUXUXUXUX",
"UXUXUXUXUXUXE.E.% 0.2X].>X5XjX>XG d [ o.@.,.$.[ H y @XLXLXKXKXKXKXKXHXHXKXLXLXLXLXLXLXLXLXKXGXGXGXGXGXGXDXLXcX- i O.{ $.$.[ R N U.lX,X[.)./.^./ o + UXUXUXUXUXUX",
"UXUXUXUXUXUXUX1Xn : [.].;X5X7XkXm.N R -.$.o.$.;.[ A r @XLXLXKXKXKXKXHXHXHXHXHXHXHXHXHXGXGXGXGXGXGXGXGXGXLXcX: r +.-.@.%.O.E C *.gXdX:X'.)./.M.2   UXUXUXUXUXUXUX",
"UXUXUXUXUXUXUXE.`.: q.2X].,X6XfXfX=.d T O.,.o.&.;.| A r s.KXLXKXHXKXHXHXHXHXHXHXHXHXGXGXGXGXGXGXGXDXKXLXyX- u O.o.,.&.$.~ d W 0XlX0X[.`. X^.L o + UXUXUXUXUXUXUX",
"UXUXUXUXUXUXUXUX[.0.$ {.1X;X,X8XzX8XK d E o.,.$.o.;.O.J r v tXLXLXKXHXHXHXHXHXHXHXGXGXGXGXGXGXGXHXLXKX8.- i O.O.@.,.o.} S Z ].xX6X,X{.'.'.b., . UXUXUXUXUXUXUXUX",
"UXUXUXUXUXUXUXUXP.[.9 g 2X].>X6X8XbX>XK S W { ;.%.o.$.>.W i r 6.tXKXLXLXLXKXHXHXHXHXHXHXHXKXLXLXJXXXq ; K O.O.$.&.;.~ I Z U.nXdX6X,X}.}.K.l X @ UXUXUXUXUXUXUXUX",
"UXUXUXUXUXUXUXUXUX`.H.@ 0.2XQ.;X>X7XzX].G C ! [ $.,.o.#.-.[ W i 4 b f.tXBXHXLXLXLXLXLXKXJXcXeX9.0 ; i [ -.o.$.%.o.+.d N m.xXfX6X,X:X2X'.w.@ O UXUXUXUXUXUXUXUXUX",
"UXUXUXUXUXUXUXUXUXL.[.0.o H.1X{.>X5XpXbX;XG d ! [ O.,.o.$.#.o.O. .N r t k b 5.5.4.4.4.2.c 2 3 5 V | O.o.,.&.$.O.E I Z m.xXfX6X,X:X1X1Xa., X # UXUXUXUXUXUXUXUXUX",
"UXUXUXUXUXUXUXUXUXUXL.[.x % [.}.].>X5XpXzX>XK p U ~ O.$.$.$.$.;.$.O.O.[ J N B y y y y i B H } O.#.$.$.@.,.O.+.Q d H P.lXdX6X,X:X:X1Xb.6 X $ UXUXUXUXUXUXUXUXUXUX",
"UXUXUXUXUXUXUXUXUXUXUXP.`.1 , }.[.Q.<X>X7XzXdX*.N C R +.#.#.$.,.,.;.%.$.O.{ >.{ O.| [ o.O.o.$.%.;.,.%.o.-.W S V ~ :XlX8X,X,X;X1X[.V.l o @ UXUXUXUXUXUXUXUXUXUXUX",
"UXUXUXUXUXUXUXUXUXUXUXUXR.E.< q 2X1X;X>X6X8XkXkXI.H V S W | O.;.,.,.,.,.%.&.,.&.%.$.o.&.$.@.,.,.;.-.O.W R d A n.qXfXqX,X:X[.[.1XV.P + @ UXUXUXUXUXUXUXUXUXUXUXUX",
"UXUXUXUXUXUXUXUXUXUXUXUXUXE.L.: 9 [.}.Q.;X>X5XpXzX6Xx.G V C T +.O.$.$.;.$.@.,.&.%.$.$.$.o.$.-.O.+.! U d A *.].fXdX>X:X{.'.'.'.~.P $ + UXUXUXUXUXUXUXUXUXUXUXUXUX",
"UXUXUXUXUXUXUXUXUXUXUXUXUXUXR.L., 7 {.2X].;X>X5X8XkXkX;Xx.T Z F U Q ~ +.+.[ >.{ O.o.O.O. .} Q U D F T k.E.qXdX,X:X{.[.(.|.'.v.l $ @ UXUXUXUXUXUXUXUXUXUXUXUXUXUX",
"UXUXUXUXUXUXUXUXUXUXUXUXUXUXUXP.R.0 % A.2X].{.;X>X>X8XkXkX6XP.k.E F F D S S T S U D D D V D D T ` n.`.6X8X,X].].`._.)./.(.p.j $ $ UXUXUXUXUXUXUXUXUXUXUXUXUXUXUX",
"UXUXUXUXUXUXUXUXUXUXUXUXUXUXUXUXH.R.n # 3.[.}.`.].;X<X>X8XaXkXfX6XR.V.k.` Q Q T T T Q ` ..x.m.E.;X6X,X].`.`.(.(.^.C./.b.w.q $ % UXUXUXUXUXUXUXUXUXUXUXUXUXUXUXUX",
"UXUXUXUXUXUXUXUXUXUXUXUXUXUXUXUXUXF.R.u.< 9 A.2X}.].;X;X<X,X5X7XfXkXkXpX8X6X>X;X].;X;X;X>X>X*X;XE.I.I.K.K.N.N.C.C.B.v.m , $ : UXUXUXUXUXUXUXUXUXUXUXUXUXUXUXUXUX",
"UXUXUXUXUXUXUXUXUXUXUXUXUXUXUXUXUXUXF.H.G.x : b L.2X}.].{.{.>X<X>X5X6X7X8XpXpX8X8X6X>X&XQ.R.I.~.M.M.n.B.B.B.Z.B.k.L h & % > UXUXUXUXUXUXUXUXUXUXUXUXUXUXUXUXUXUX",
"UXUXUXUXUXUXUXUXUXUXUXUXUXUXUXUXUXUXUXUXF.H.u.0 1 n J.}.2X[.{.].].;X;X;X>X>X>X;X;X].E.P.I.U.K.B.l.z.z.z.z.z.k.w.j , & > UXUXUXUXUXUXUXUXUXUXUXUXUXUXUXUXUXUXUXUX",
"UXUXUXUXUXUXUXUXUXUXUXUXUXUXUXUXUXUXUXUXUXh.F.F.0.0 9 x u.P.[.}.[.].].{.].;X].].].`.I.U.K.M.B.B.z.z.l.k.p.L j 9 > > , UXUXUXUXUXUXUXUXUXUXUXUXUXUXUXUXUXUXUXUXUX",
"UXUXUXUXUXUXUXUXUXUXUXUXUXUXUXUXUXUXUXUXUXUXUXy.c.F.i.x q e n 0.c.P.'.[.[.}.}.}.}.[.'.(.(.N.B.k.p.w.L v h q 7 7 8 UXUXUXUXUXUXUXUXUXUXUXUXUXUXUXUXUXUXUXUXUXUXUX",
"UXUXUXUXUXUXUXUXUXUXUXUXUXUXUXUXUXUXUXUXUXUXUXUXUXu.y.y.u.q.x 0 h j m L 0.t.t.t.h.c.t.e.w./ L v j h 0 q 8 9 9 UXUXUXUXUXUXUXUXUXUXUXUXUXUXUXUXUXUXUXUXUXUXUXUXUX",
"UXUXUXUXUXUXUXUXUXUXUXUXUXUXUXUXUXUXUXUXUXUXUXUXUXUXUXUXi.u.u.i.q.n x h h h h j j j j h h h h h 0 q q q UXUXUXUXUXUXUXUXUXUXUXUXUXUXUXUXUXUXUXUXUXUXUXUXUXUXUXUX",
"UXUXUXUXUXUXUXUXUXUXUXUXUXUXUXUXUXUXUXUXUXUXUXUXUXUXUXUXUXUXUX0.0.0.q.q.7.3.3.3.n b b b c c h h h UXUXUXUXUXUXUXUXUXUXUXUXUXUXUXUXUXUXUXUXUXUXUXUXUXUXUXUXUXUXUX",
"UXUXUXUXUXUXUXUXUXUXUXUXUXUXUXUXUXUXUXUXUXUXUXUXUXUXUXUXUXUXUXUXUXUXUXUXUX3.3.n n n b UXUXUXUXUXUXUXUXUXUXUXUXUXUXUXUXUXUXUXUXUXUXUXUXUXUXUXUXUXUXUXUXUXUXUXUXUX",
"UXUXUXUXUXUXUXUXUXUXUXUXUXUXUXUXUXUXUXUXUXUXUXUXUXUXUXUXUXUXUXUXUXUXUXUXUXUXUXUXUXUXUXUXUXUXUXUXUXUXUXUXUXUXUXUXUXUXUXUXUXUXUXUXUXUXUXUXUXUXUXUXUXUXUXUXUXUXUXUX",
"UXUXUXUXUXUXUXUXUXUXUXUXUXUXUXUXUXUXUXUXUXUXUXUXUXUXUXUXUXUXUXUXUXUXUXUXUXUXUXUXUXUXUXUXUXUXUXUXUXUXUXUXUXUXUXUXUXUXUXUXUXUXUXUXUXUXUXUXUXUXUXUXUXUXUXUXUXUXUXUX",
"UXUXUXUXUXUXUXUXUXUXUXUXUXUXUXUXUXUXUXUXUXUXUXUXUXUXUXUXUXUXUXUXUXUXUXUXUXUXUXUXUXUXUXUXUXUXUXUXUXUXUXUXUXUXUXUXUXUXUXUXUXUXUXUXUXUXUXUXUXUXUXUXUXUXUXUXUXUXUXUX"
};
