/* XPM */
static char *bitcoin__[] = {
/* columns rows colors chars-per-pixel */
"32 32 256 2",
"   c #593D00",
".  c #634403",
"X  c #6A4A04",
"o  c #6E510C",
"O  c #745308",
"+  c #7A5509",
"@  c #7E5C0C",
"#  c #7A5C15",
"$  c #7D6017",
"%  c #815D10",
"&  c #8A6617",
"*  c #99741F",
"=  c #B47F00",
"-  c #876B21",
";  c #9A7825",
":  c #B99419",
">  c #9F812E",
",  c #A68229",
"<  c #A78327",
"1  c #B0882B",
"2  c #A68734",
"3  c #BB9533",
"4  c #BC9936",
"5  c #B2943A",
"6  c #B99A3D",
"7  c #B69333",
"8  c #BFA03F",
"9  c #C49302",
"0  c #CD9F00",
"q  c #C99F0A",
"w  c #C3990B",
"e  c #D29B00",
"r  c #C29C1B",
"t  c #CDA004",
"y  c #CCA30D",
"u  c #D1A405",
"i  c #D7A804",
"p  c #DDAD05",
"a  c #D3A70B",
"s  c #D5AA0C",
"d  c #D8AC0C",
"f  c #DFB004",
"g  c #CBA51A",
"h  c #D4AA14",
"j  c #D0AA1F",
"k  c #D8AF13",
"l  c #DCB113",
"z  c #DDB51C",
"x  c #E3B203",
"c  c #E3B50B",
"v  c #E7B80F",
"b  c #EDBC0C",
"n  c #EBB802",
"m  c #E1B715",
"M  c #E4BA17",
"N  c #E1B71A",
"B  c #E7BA18",
"V  c #EBBE17",
"C  c #C59D34",
"Z  c #CAA52A",
"A  c #D4AF27",
"S  c #DBB321",
"D  c #D6B32F",
"F  c #DAB62C",
"G  c #DFB829",
"H  c #C6A43B",
"J  c #CAAA3E",
"K  c #C8A53B",
"L  c #D7AF3B",
"P  c #D6B336",
"I  c #D6B53E",
"U  c #DCBB3C",
"Y  c #DEB931",
"T  c #E3BB29",
"R  c #EFC21C",
"E  c #F4C515",
"W  c #F9CC1F",
"Q  c #F2C318",
"!  c #F1C624",
"~  c #F4C925",
"^  c #FACE22",
"/  c #F1C72B",
"(  c #F9CE2C",
")  c #F5CA29",
"_  c #FFD123",
"`  c #FED42D",
"'  c #FFD82B",
"]  c #E7C23B",
"[  c #F8CF30",
"{  c #F6CC30",
"}  c #FED433",
"|  c #FFD932",
" . c #FAD13C",
".. c #B59946",
"X. c #B49C50",
"o. c #BDA45C",
"O. c #BCA867",
"+. c #BEA972",
"@. c #C4A545",
"#. c #C7A943",
"$. c #CCAC43",
"%. c #C3A74A",
"&. c #C6AC4A",
"*. c #C9AB4C",
"=. c #CEB14C",
"-. c #D3B245",
";. c #D7B84F",
":. c #D8B946",
">. c #C6AD58",
",. c #CBB45C",
"<. c #D8BB59",
"1. c #D6BA58",
"2. c #E3BE46",
"3. c #C3AC65",
"4. c #C5AE6C",
"5. c #CCB764",
"6. c #C6B36B",
"7. c #D2BB6E",
"8. c #D0B966",
"9. c #C1AF74",
"0. c #C4B174",
"q. c #CBB67F",
"w. c #CEBB7E",
"e. c #C6B279",
"r. c #D2BE73",
"t. c #DFC14F",
"y. c #DEC153",
"u. c #DEC059",
"i. c #D5C05B",
"p. c #E0C14A",
"a. c #EBC84B",
"s. c #F3C540",
"d. c #FDD64E",
"f. c #F3D04D",
"g. c #E3C555",
"h. c #EBCB53",
"j. c #E2C65D",
"k. c #E3C85C",
"l. c #EECF5A",
"z. c #F5D256",
"x. c #F7D759",
"c. c #F8D25C",
"v. c #FFE459",
"b. c #DDC56B",
"n. c #DDC770",
"m. c #D6C17C",
"M. c #DEC979",
"N. c #E4CA62",
"B. c #E9CC62",
"V. c #E4CA6A",
"C. c #E9CF6B",
"Z. c #E2C66D",
"A. c #ECD164",
"S. c #EED06B",
"D. c #FBDB61",
"F. c #F1D56C",
"G. c #F8DA6D",
"H. c #E9CF73",
"J. c #ECD374",
"K. c #ECD57E",
"L. c #EDD97F",
"P. c #F5DB7D",
"I. c #F4D470",
"U. c #FEE266",
"Y. c #FFEF66",
"T. c #FCE26E",
"R. c #FFEF6C",
"E. c #FFF268",
"W. c #FCE274",
"Q. c #FDEC7C",
"!. c #FFE776",
"~. c #FFFF74",
"^. c #FFFC7C",
"/. c #FFF572",
"(. c #CDBD8B",
"). c #D6C282",
"_. c #D6C68D",
"`. c #D8C78E",
"'. c #D9C988",
"]. c #D6C793",
"[. c #D8C999",
"{. c #E5D386",
"}. c #E9D682",
"|. c #EED881",
" X c #E9D68C",
".X c #EDDB8E",
"XX c #F3DC83",
"oX c #F2DF8D",
"OX c #E5D696",
"+X c #EAD893",
"@X c #ECDD9E",
"#X c #E8D794",
"$X c #FDE386",
"%X c #FFEC84",
"&X c #FFEA8A",
"*X c #FEE58D",
"=X c #FFF485",
"-X c #FFFE85",
";X c #FFF38A",
":X c #FFFA8A",
">X c #FBE694",
",X c #FDEB93",
"<X c #F7E99B",
"1X c #F5E295",
"2X c #FFFC93",
"3X c #FFF499",
"4X c #FFFB9B",
"5X c #FFF490",
"6X c #D8CDA5",
"7X c #DED1AA",
"8X c #DFD7B9",
"9X c #D9D1B5",
"0X c #E6DAAD",
"qX c #E2DBBD",
"wX c #E5DBB3",
"eX c #EEE3AC",
"rX c #EFE1A1",
"tX c #F6E7A0",
"yX c #F2E6AC",
"uX c #FEEEA5",
"iX c #FFFDA3",
"pX c #F7F1AF",
"aX c #FFF4AC",
"sX c #FFFDAC",
"dX c #FDF1A4",
"fX c #ECE3B7",
"gX c #F1E5B2",
"hX c #F4EABC",
"jX c #FFFCB3",
"kX c #FFFDBA",
"lX c #FEF4B5",
"zX c #E5DEC2",
"xX c #EFE8C7",
"cX c #E6E3CE",
"vX c #F6ECC3",
"bX c #F8EEC7",
"nX c #F8EDCB",
"mX c #FFFFC1",
"MX c #FFFFCB",
"NX c #EDEAD7",
"BX c #F3EFD2",
"VX c #FAF4D4",
"CX c #FFFFD3",
"ZX c #FFFEDD",
"AX c #FAF3D7",
"SX c #E8E7E6",
"DX c #EBEBE4",
"FX c #F0EEE0",
"GX c #F9F7E3",
"HX c #FDFBE4",
"JX c #FEFEEC",
"KX c #F6F5E9",
"LX c #FEFDF4",
"PX c #FFFFFE",
"IX c #F7F8F4",
"UX c None",
/* pixels */
"UXUXUXUXUXUXUXUXUXUXUXUXUXUXUXUXUXUXUXUXUXUXUXUXUXUXUXUXUXUXUXUX",
"UXUXUXUXUXUXUXUXUXUXUXUXwXq.3.o.X...2 ; UXUXUXUXUXUXUXUXUXUXUXUX",
"UXUXUXUXUXUXUXUXUXUX].e.7.M.{.|.J.A.g.-.3 ; $ UXUXUXUXUXUXUXUXUX",
"UXUXUXUXUXUXUXUX7X4.).yXCXZXZXCXMXmXjX2XR.z.H & UXUXUXUXUXUXUXUX",
"UXUXUXUXUXUXLXq.w.bXJXHXVXhXrX.X}.}..XuXjX4X/.z., o UXUXUXUXUXUX",
"UXUXUXUXUXHX+.].LXJXAXgX{.V.g.a.] G S A y.<XjX=XY.3 . UXUXUXUXUX",
"UXUXUXUXUXe.[.PXHXnX@XK.P.W.D.d. . .} ) m A V.aX5XE.1 . UXUXUXUX",
"UXUXUXUX(.(.LXHXvX+XoX&XG.h.h.g.p.Y l b ' ( u :.lX2XY.; UXUXUXUX",
"UXUXUX0X9.JXHXhX+X>X$XB.K.gXVXGXGXAXfXn.h b | d :.lX:Xx.O UXUXUX",
"UXUXUX0.wXJXbX X>X$XC.yXLXPXPXPXPXPXPXPXFXJ x } d N.jX^.4   UXUX",
"UXUX'.O.JXZX#XXX$Xk.gXPXPXPXLXBXxXKXPXPXPXPX5.B ` h <XiXU.+ UXUX",
"UXUX3.'.JXhXH.%XA. XPXPXPXeX<.F S F 1.NXPXPX[.l ` d j.kX-X< UXUX",
"UXUX6.pXCX.XB.a.t.HXPXPXb.u / [ ` ^ n y qX6Xt ` } ! j dXiX-.UXUX",
"UXK.5.kXlXu.J.@XeXPXPXHX{.y./ [ ( ( | ^ d l ^ } } } h L.jXA.X UX",
"UXZ.,.jXtXP .XPXPXJXJXJXPX'.c ( } R x c x x p V ( ( N V.sXT.+ UX",
"UXb.=.iXoX2.f.U gXPXJX-.D T ! ` ~ I m.7.7.7.r.,.S ` m j.sXT.@ UX",
"UXb.$.5X|.U { 9 OXPXJXw e Q } } x `.PXPXPXPXPXSXr _ l j.aXD.@ UX",
"UXV.J Q.P.g B.eXAXPXLXOX0X<.R ` p ].PXPXPXJXLXcXg ' z B.3Xc.O UX",
"UXUX#.U.$Xy M.PXGXLXLXPXPXm.v ` ! -.r.1.>.GXPX9Xq | z J.%X2.X UX",
"UXUX%.l.,Xp.k N g KXPXPX%.9 ' ` } W n = O.PXPX0.f ( D *XR.C UXUX",
"UXUX%.&.iXK.l ' x 8.PXPXPX5.w i p i 9 w.PXPXSX: ' l k.3XY.; UXUX",
"UXUXB...;XuXP M ` t 7XPXPXPXzX_.)._.qXPXPXPXX.p ( j ,X-Xh.o UXUX",
"UXUXUX%.i.jX1Xy ! W q 6XPXPXPXPXPXPXPXPXPXo.u ` t J.iX~.< UXUXUX",
"UXUXUXF.6 Q.kXL.y ~ ^ 0 >.8XDXIXIXKXNX6X4 p ' a j.jX2Xg.. UXUXUX",
"UXUXUXUX1.5 ;XkXK.y M ` b a Z $.#.H Z a E ~ y N.kX4XT.% UXUXUXUX",
"UXUXUXUXUX*.8 =XjX<XI y V ` _ E E E ^ ) k D XXsX2XT.& UXUXUXUXUX",
"UXUXUXUXUXUX@.8 W.sXaXH.:.F z z z z F U k.,X4X^.D.* UXUXUXUXUXUX",
"UXUXUXUXUXUXUX*.6 j.;XsXaX>X|.J.C.S.I.W.Q.R.v.-.& UXUXUXUXUXUXUX",
"UXUXUXUXUXUXUXUX<.6 *.u.F.&X4XiX4X%XU.d.s.L , # UXUXUXUXUXUXUXUX",
"UXUXUXUXUXUXUXUXUXUX*.6 6 @.=.;.;.-.K 7 ; - UXUXUXUXUXUXUXUXUXUX",
"UXUXUXUXUXUXUXUXUXUXUXUXUXUX5 2 2 > UXUXUXUXUXUXUXUXUXUXUXUXUXUX",
"UXUXUXUXUXUXUXUXUXUXUXUXUXUXUXUXUXUXUXUXUXUXUXUXUXUXUXUXUXUXUXUX"
};
