<?xml version="1.0" encoding="UTF-8" ?>
<!DOCTYPE svg PUBLIC "-//W3C//DTD SVG 1.1//EN" "http://www.w3.org/Graphics/SVG/1.1/DTD/svg11.dtd">
<svg width="256pt" height="256pt" viewBox="0 0 256 256" version="1.1" xmlns="http://www.w3.org/2000/svg">
<path fill="#cbb572" stroke="#cbb572" stroke-width="0.09375" opacity="1.00" d=" M 111.8 8.6 C 118.2 7.6 124.8 7.5 131.3 7.8 C 130.3 8.3 129.4 8.8 128.5 9.3 C 129.7 10.4 130.8 11.5 131.9 12.8 C 126.6 13.4 121.2 13.3 115.8 13.9 C 115.4 13.9 114.7 14.0 114.3 14.0 C 113.3 13.4 112.3 12.9 111.3 12.3 C 111.5 11.0 111.6 9.8 111.8 8.6 Z" />
<path fill="#b69c51" stroke="#b69c51" stroke-width="0.09375" opacity="1.00" d=" M 131.3 7.8 C 137.9 7.4 144.5 8.7 151.0 9.9 C 149.9 10.1 148.8 10.4 147.8 10.8 C 147.5 11.8 147.4 12.8 147.2 13.8 C 136.8 13.7 126.3 13.9 115.8 13.9 C 121.2 13.3 126.6 13.4 131.9 12.8 C 130.8 11.5 129.7 10.4 128.5 9.3 C 129.4 8.8 130.3 8.3 131.3 7.8 Z" />
<path fill="#dbca91" stroke="#dbca91" stroke-width="0.09375" opacity="1.00" d=" M 98.6 10.9 C 103.0 10.1 107.4 9.2 111.8 8.6 C 111.6 9.8 111.5 11.0 111.3 12.3 C 112.3 12.9 113.3 13.4 114.3 14.0 C 112.1 14.3 109.9 14.7 107.7 15.2 C 106.5 15.4 105.4 15.7 104.2 15.9 C 101.6 15.5 99.9 13.5 98.8 11.2 L 98.6 10.9 Z" />
<path fill="#b08d36" stroke="#b08d36" stroke-width="0.09375" opacity="1.00" d=" M 147.8 10.8 C 148.8 10.4 149.9 10.1 151.0 9.9 C 153.6 10.4 156.2 11.1 158.8 11.7 C 158.8 13.8 158.8 15.9 158.9 17.9 C 156.1 18.2 153.4 18.8 150.7 19.2 C 142.0 17.4 133.2 16.3 124.3 16.8 C 119.7 16.5 115.2 17.3 110.7 17.7 C 110.0 17.1 108.4 15.8 107.7 15.2 C 109.9 14.7 112.1 14.3 114.3 14.0 C 114.7 14.0 115.4 13.9 115.8 13.9 C 126.3 13.9 136.8 13.7 147.2 13.8 C 147.4 12.8 147.5 11.8 147.8 10.8 Z" />
<path fill="#e6d8aa" stroke="#e6d8aa" stroke-width="0.09375" opacity="1.00" d=" M 85.0 15.3 C 89.4 13.6 94.0 12.0 98.8 11.2 C 99.9 13.5 101.6 15.5 104.2 15.9 C 100.0 16.6 95.8 17.9 91.7 19.2 C 89.6 17.8 87.4 16.4 85.0 15.3 Z" />
<path fill="#977a28" stroke="#977a28" stroke-width="0.09375" opacity="1.00" d=" M 158.8 11.7 C 164.0 13.2 169.2 14.8 174.2 16.9 C 174.1 19.0 173.9 21.1 173.8 23.2 C 168.9 21.3 164.0 19.3 158.9 17.9 C 158.8 15.9 158.8 13.8 158.8 11.7 Z" />
<path fill="#efe5c0" stroke="#efe5c0" stroke-width="0.09375" opacity="1.00" d=" M 72.1 20.9 C 76.4 19.0 80.5 16.8 85.0 15.3 C 87.4 16.4 89.6 17.8 91.7 19.2 C 86.1 21.2 80.5 23.5 75.2 26.2 C 74.6 24.4 73.9 22.6 72.4 21.3 L 72.1 20.9 Z" />
<path fill="#9b7823" stroke="#9b7823" stroke-width="0.09375" opacity="1.00" d=" M 91.7 19.2 C 95.8 17.9 100.0 16.6 104.2 15.9 C 105.4 15.7 106.5 15.4 107.7 15.2 C 108.4 15.8 110.0 17.1 110.7 17.7 C 106.7 18.2 102.7 19.2 98.8 20.3 C 90.1 22.9 81.5 26.2 73.8 30.9 C 72.8 30.2 71.8 29.5 70.9 28.7 C 72.3 27.8 73.8 27.0 75.2 26.2 C 80.5 23.5 86.1 21.2 91.7 19.2 Z" />
<path fill="#fdf0a1" stroke="#fdf0a1" stroke-width="0.09375" opacity="1.00" d=" M 110.7 17.7 C 115.2 17.3 119.7 16.5 124.3 16.8 C 126.3 19.2 130.0 18.1 131.7 21.1 C 135.6 21.4 139.1 23.3 142.6 24.9 C 151.3 27.3 159.1 32.2 167.3 35.7 C 179.1 42.9 191.6 49.5 201.1 59.9 C 206.3 66.6 212.0 73.1 216.7 80.2 C 218.4 84.8 222.7 87.9 224.2 92.6 C 227.1 99.6 231.0 107.6 227.6 115.1 C 227.8 115.7 228.1 116.3 228.4 116.9 C 228.4 117.2 228.5 117.7 228.5 117.9 C 227.7 117.9 226.0 118.0 225.2 118.0 C 226.0 119.4 226.9 120.6 227.6 122.1 C 227.4 124.0 225.6 125.3 224.5 126.7 C 225.0 127.0 226.1 127.5 226.6 127.7 C 225.1 131.6 224.8 136.3 221.3 139.1 C 220.9 140.5 220.6 141.9 220.2 143.3 C 219.7 143.7 218.7 144.5 218.2 144.9 C 221.8 127.2 220.0 108.5 213.1 91.9 C 200.8 61.2 170.5 38.1 137.3 36.0 L 138.7 35.4 C 140.6 35.2 142.4 35.0 144.3 34.8 C 141.4 33.2 138.1 32.3 134.8 32.4 C 134.6 32.1 134.4 31.4 134.2 31.1 C 131.7 30.8 129.2 30.0 126.9 28.8 C 125.9 29.0 124.8 29.1 123.8 29.2 C 116.4 23.8 106.7 24.4 98.1 22.7 C 99.4 22.3 100.7 21.9 102.1 21.5 C 101.0 21.1 99.9 20.7 98.8 20.3 C 102.7 19.2 106.7 18.2 110.7 17.7 Z" />
<path fill="#fde87b" stroke="#fde87b" stroke-width="0.09375" opacity="1.00" d=" M 124.3 16.8 C 133.2 16.3 142.0 17.4 150.7 19.2 C 151.3 19.4 152.6 19.7 153.2 19.8 C 152.7 20.2 151.7 21.0 151.2 21.4 C 155.8 23.2 160.0 25.5 164.3 27.7 C 168.2 29.8 172.9 30.6 175.7 34.2 C 177.3 34.7 179.0 35.3 180.6 35.8 C 180.5 36.7 180.4 37.7 180.3 38.6 C 181.5 38.2 182.7 37.8 183.9 37.3 C 184.8 38.6 185.6 39.8 186.5 41.1 C 189.0 41.3 190.9 42.7 191.6 45.1 C 195.4 45.1 197.8 48.4 200.3 50.7 C 203.7 53.9 207.7 56.8 209.0 61.5 C 211.3 62.7 212.9 64.6 213.5 67.1 C 214.6 67.4 215.7 67.7 216.8 68.2 C 217.6 69.4 217.3 70.9 217.5 72.2 C 220.8 72.5 221.7 75.7 221.6 78.6 C 223.3 78.7 225.0 78.9 226.7 79.0 C 233.3 93.4 237.7 109.1 237.1 125.0 C 236.6 131.4 236.8 137.9 235.9 144.3 C 235.5 142.8 235.0 141.2 234.6 139.7 C 229.7 147.7 227.4 156.7 225.5 165.8 C 224.6 165.3 223.7 164.9 222.8 164.4 C 219.7 171.4 216.8 178.8 217.0 186.5 C 217.6 186.5 218.8 186.5 219.4 186.5 C 215.9 191.9 211.7 196.9 207.3 201.7 C 204.8 204.4 202.1 206.9 199.3 209.3 C 199.4 208.0 199.5 206.7 199.6 205.3 C 199.4 205.1 199.0 204.5 198.8 204.3 C 198.3 207.7 195.6 209.2 192.5 209.8 C 192.1 209.0 191.7 208.1 191.3 207.3 C 190.1 209.1 189.4 211.7 186.9 212.0 C 185.6 212.5 184.6 211.2 183.4 210.8 C 182.1 213.6 179.3 214.8 176.5 215.4 C 173.9 215.3 171.3 215.1 168.6 215.3 C 170.1 214.6 171.5 213.8 172.8 213.1 C 167.3 213.2 162.0 215.1 156.5 215.6 C 156.6 215.2 156.7 214.2 156.8 213.8 C 160.0 212.6 163.1 211.4 166.2 210.3 C 170.0 211.6 173.7 209.6 177.2 208.4 C 179.7 207.6 181.7 205.8 183.5 203.9 C 187.3 205.6 190.0 201.9 192.3 199.5 C 193.4 199.5 194.4 199.6 195.5 199.6 C 196.0 198.5 196.5 197.5 197.1 196.5 C 197.7 196.9 198.4 197.3 199.1 197.7 C 199.7 196.2 200.4 194.8 201.1 193.4 C 201.8 193.9 202.5 194.4 203.2 194.9 C 203.7 193.0 204.2 191.1 204.8 189.3 C 205.5 189.8 206.3 190.2 207.1 190.7 C 207.3 187.7 207.2 184.6 209.0 182.0 C 211.0 178.6 211.9 174.8 212.4 171.0 C 212.9 167.5 215.0 164.4 216.4 161.2 C 217.3 161.1 218.2 160.9 219.2 160.8 C 220.7 153.9 224.4 147.8 226.0 140.9 C 228.4 135.8 228.6 130.0 230.7 124.7 C 230.3 124.6 229.6 124.4 229.3 124.3 C 229.0 122.2 228.7 120.0 228.5 117.9 C 228.5 117.7 228.4 117.2 228.4 116.9 C 228.1 116.3 227.8 115.7 227.6 115.1 C 231.0 107.6 227.1 99.6 224.2 92.6 C 222.7 87.9 218.4 84.8 216.7 80.2 C 212.0 73.1 206.3 66.6 201.1 59.9 C 191.6 49.5 179.1 42.9 167.3 35.7 C 159.1 32.2 151.3 27.3 142.6 24.9 C 139.1 23.3 135.6 21.4 131.7 21.1 C 130.0 18.1 126.3 19.2 124.3 16.8 Z" />
<path fill="#8e7121" stroke="#8e7121" stroke-width="0.09375" opacity="1.00" d=" M 174.2 16.9 C 179.4 19.1 184.4 21.6 189.3 24.5 C 188.8 26.6 188.3 28.6 187.8 30.6 C 183.3 27.9 178.7 25.3 173.8 23.2 C 173.9 21.1 174.1 19.0 174.2 16.9 Z" />
<path fill="#cca43d" stroke="#cca43d" stroke-width="0.09375" opacity="1.00" d=" M 150.7 19.2 C 153.4 18.8 156.1 18.2 158.9 17.9 C 164.0 19.3 168.9 21.3 173.8 23.2 C 178.7 25.3 183.3 27.9 187.8 30.6 C 191.4 32.8 194.8 35.2 198.0 37.9 C 197.3 38.7 196.6 39.6 195.9 40.4 C 183.4 30.5 168.7 23.5 153.2 19.8 C 152.6 19.7 151.3 19.4 150.7 19.2 Z" />
<path fill="#fce060" stroke="#fce060" stroke-width="0.09375" opacity="1.00" d=" M 153.2 19.8 C 168.7 23.5 183.4 30.5 195.9 40.4 C 208.8 50.9 219.5 64.1 226.7 79.0 C 225.0 78.9 223.3 78.7 221.6 78.6 C 221.7 75.7 220.8 72.5 217.5 72.2 C 217.3 70.9 217.6 69.4 216.8 68.2 C 215.7 67.7 214.6 67.4 213.5 67.1 C 212.9 64.6 211.3 62.7 209.0 61.5 C 207.7 56.8 203.7 53.9 200.3 50.7 C 197.8 48.4 195.4 45.1 191.6 45.1 C 190.9 42.7 189.0 41.3 186.5 41.1 C 185.6 39.8 184.8 38.6 183.9 37.3 C 182.7 37.8 181.5 38.2 180.3 38.6 C 180.4 37.7 180.5 36.7 180.6 35.8 C 179.0 35.3 177.3 34.7 175.7 34.2 C 172.9 30.6 168.2 29.8 164.3 27.7 C 160.0 25.5 155.8 23.2 151.2 21.4 C 151.7 21.0 152.7 20.2 153.2 19.8 Z" />
<path fill="#fef5c6" stroke="#fef5c6" stroke-width="0.09375" opacity="1.00" d=" M 73.8 30.9 C 81.5 26.2 90.1 22.9 98.8 20.3 C 99.9 20.7 101.0 21.1 102.1 21.5 C 100.7 21.9 99.4 22.3 98.1 22.7 C 106.7 24.4 116.4 23.8 123.8 29.2 C 124.8 29.1 125.9 29.0 126.9 28.8 C 129.2 30.0 131.7 30.8 134.2 31.1 C 134.4 31.4 134.6 32.1 134.8 32.4 C 138.1 32.3 141.4 33.2 144.3 34.8 C 142.4 35.0 140.6 35.2 138.7 35.4 C 128.1 34.2 117.4 35.2 107.2 37.8 C 105.3 38.2 103.4 38.4 101.6 38.7 C 93.3 39.5 85.1 36.5 76.9 38.3 C 78.9 39.1 80.9 39.8 82.9 40.6 C 80.4 40.8 78.0 41.1 75.6 41.4 C 75.0 38.8 73.5 36.6 71.6 34.8 C 72.3 33.5 73.0 32.3 73.7 31.0 L 73.8 30.9 Z" />
<path fill="#faf3dd" stroke="#faf3dd" stroke-width="0.09375" opacity="1.00" d=" M 56.7 30.9 C 61.8 27.4 66.7 23.4 72.4 21.3 C 73.9 22.6 74.6 24.4 75.2 26.2 C 73.8 27.0 72.3 27.8 70.9 28.7 C 53.9 38.9 39.6 53.4 29.6 70.6 C 27.3 73.4 25.4 76.7 22.3 78.8 C 21.7 77.7 21.1 76.5 20.6 75.4 C 28.7 57.9 41.4 42.6 56.7 30.9 Z" />
<path fill="#84671a" stroke="#84671a" stroke-width="0.09375" opacity="1.00" d=" M 189.3 24.5 C 195.1 28.3 200.9 32.1 205.9 36.9 C 206.1 39.5 206.4 42.1 206.0 44.7 C 203.3 42.4 200.6 40.2 198.0 37.9 C 194.8 35.2 191.4 32.8 187.8 30.6 C 188.3 28.6 188.8 26.6 189.3 24.5 Z" />
<path fill="#826418" stroke="#826418" stroke-width="0.09375" opacity="1.00" d=" M 29.6 70.6 C 39.6 53.4 53.9 38.9 70.9 28.7 C 71.8 29.5 72.8 30.2 73.8 30.9 L 73.7 31.0 C 53.9 42.4 37.5 60.0 28.3 81.0 C 25.8 86.4 23.9 92.1 22.3 97.9 C 21.4 101.1 20.7 104.4 20.2 107.8 C 19.9 109.7 19.6 111.6 19.4 113.6 C 18.7 118.2 18.8 123.0 18.8 127.7 C 18.7 137.1 20.0 146.5 22.6 155.5 C 29.3 179.8 44.6 201.7 65.3 215.9 C 64.5 216.7 63.7 217.5 62.9 218.3 C 61.3 217.1 59.8 216.0 58.2 214.8 C 37.5 198.8 23.1 175.1 17.6 149.6 C 14.9 137.4 14.7 124.8 16.0 112.4 C 17.7 97.7 22.7 83.6 29.6 70.6 Z" />
<path fill="#fff7d5" stroke="#fff7d5" stroke-width="0.09375" opacity="1.00" d=" M 28.3 81.0 C 37.5 60.0 53.9 42.4 73.7 31.0 C 73.0 32.3 72.3 33.5 71.6 34.8 C 73.5 36.6 75.0 38.8 75.6 41.4 C 78.0 41.1 80.4 40.8 82.9 40.6 C 80.9 39.8 78.9 39.1 76.9 38.3 C 85.1 36.5 93.3 39.5 101.6 38.7 C 80.3 46.1 61.3 60.6 49.8 80.1 C 44.6 88.7 40.5 98.1 38.7 107.9 C 38.5 108.5 38.3 109.8 38.2 110.4 C 35.2 104.6 34.8 97.8 34.2 91.3 C 32.3 89.3 31.2 86.7 31.4 83.8 C 30.4 82.9 29.3 81.9 28.3 81.0 Z" />
<path fill="#f0d773" stroke="#f0d773" stroke-width="0.09375" opacity="1.00" d=" M 107.2 37.8 C 117.4 35.2 128.1 34.2 138.7 35.4 L 137.3 36.0 C 135.8 36.3 134.2 36.6 132.7 36.8 C 126.5 37.2 120.3 37.6 114.1 38.7 C 111.5 39.1 108.9 39.4 106.3 39.9 C 106.6 39.4 107.0 38.3 107.2 37.8 Z" />
<path fill="#eac434" stroke="#eac434" stroke-width="0.09375" opacity="1.00" d=" M 132.7 36.8 C 134.2 36.6 135.8 36.3 137.3 36.0 C 170.5 38.1 200.8 61.2 213.1 91.9 C 220.0 108.5 221.8 127.2 218.2 144.9 C 217.2 149.1 216.1 153.3 214.8 157.4 C 206.7 180.6 188.6 200.0 166.2 210.3 C 163.1 211.4 160.0 212.6 156.8 213.8 C 144.9 218.0 132.1 218.7 119.6 218.2 C 104.4 216.1 89.3 211.2 76.7 202.3 C 61.6 192.0 49.7 177.1 43.1 160.1 C 41.2 154.8 39.6 149.4 38.5 143.8 C 38.2 142.3 37.9 140.8 37.7 139.3 C 37.7 136.3 38.4 133.4 39.1 130.5 C 40.2 138.1 40.7 145.8 43.0 153.1 C 49.5 173.4 63.0 191.6 81.4 202.7 C 110.2 221.0 149.8 220.4 178.0 201.0 C 197.2 188.2 211.3 167.7 215.8 145.0 C 219.9 126.4 217.6 106.6 209.6 89.3 C 196.6 60.9 167.8 39.9 136.4 38.2 C 135.2 37.7 133.9 37.3 132.7 36.8 Z" />
<path fill="#d2b854" stroke="#d2b854" stroke-width="0.09375" opacity="1.00" d=" M 114.1 38.7 C 120.3 37.6 126.5 37.2 132.7 36.8 C 133.9 37.3 135.2 37.7 136.4 38.2 C 134.3 38.2 132.2 38.3 130.1 38.4 C 131.8 38.9 134.3 38.5 135.0 40.6 C 133.3 40.8 131.6 41.0 129.9 41.2 C 124.0 40.5 118.1 40.1 112.2 41.5 C 112.7 40.8 113.7 39.4 114.1 38.7 Z" />
<path fill="#ead99d" stroke="#ead99d" stroke-width="0.09375" opacity="1.00" d=" M 101.6 38.7 C 103.4 38.4 105.3 38.2 107.2 37.8 C 107.0 38.3 106.6 39.4 106.3 39.9 C 102.3 41.3 98.2 42.6 94.6 45.0 C 97.1 45.2 99.6 45.4 102.1 45.4 C 98.3 47.3 95.0 50.0 91.8 52.7 C 86.5 51.7 83.9 56.6 80.1 59.0 C 76.2 60.6 72.1 61.9 69.4 65.3 C 69.7 65.8 70.4 66.6 70.7 67.1 C 68.9 67.8 67.0 68.3 65.4 69.4 C 64.0 71.1 63.6 73.5 62.3 75.3 C 60.9 77.1 59.1 78.7 57.5 80.3 C 56.6 79.7 55.6 79.0 54.7 78.3 C 54.0 78.9 53.2 79.5 52.5 80.1 C 51.8 80.1 50.5 80.1 49.8 80.1 C 61.3 60.6 80.3 46.1 101.6 38.7 Z" />
<path fill="#c8a525" stroke="#c8a525" stroke-width="0.09375" opacity="1.00" d=" M 130.1 38.4 C 132.2 38.3 134.3 38.2 136.4 38.2 C 167.8 39.9 196.6 60.9 209.6 89.3 C 217.6 106.6 219.9 126.4 215.8 145.0 C 211.3 167.7 197.2 188.2 178.0 201.0 C 149.8 220.4 110.2 221.0 81.4 202.7 C 63.0 191.6 49.5 173.4 43.0 153.1 C 40.7 145.8 40.2 138.1 39.1 130.5 C 39.1 129.5 39.2 128.4 39.2 127.4 C 39.6 126.3 40.0 125.3 40.4 124.2 C 40.9 125.3 41.3 126.3 41.8 127.4 C 41.8 127.6 41.9 128.1 42.0 128.4 C 41.8 129.9 41.3 131.4 41.5 133.0 C 42.0 134.5 43.5 135.3 44.5 136.4 C 43.7 136.9 43.0 137.5 42.2 138.1 C 42.6 139.3 43.1 140.4 43.6 141.5 C 45.2 142.2 47.0 142.3 48.8 142.6 C 49.1 144.4 49.4 146.3 49.7 148.1 C 50.0 148.6 50.6 149.6 50.8 150.1 C 52.0 151.3 53.1 152.9 55.0 152.8 C 59.6 153.1 64.2 152.5 68.7 152.9 C 70.3 155.0 70.4 160.1 74.1 159.1 C 76.9 164.6 80.7 169.6 84.7 174.3 C 83.8 178.4 88.1 180.2 90.5 182.5 C 103.9 193.5 122.1 196.6 139.0 195.2 C 152.3 194.5 165.2 188.9 174.6 179.5 C 186.4 168.0 193.7 151.6 193.6 135.1 C 193.6 132.3 193.7 129.6 193.6 126.8 C 194.9 126.9 196.2 127.1 197.5 127.2 C 197.1 128.4 196.7 129.6 196.3 130.9 C 197.0 132.1 197.8 133.3 198.5 134.6 C 197.9 134.7 196.6 135.1 196.0 135.3 C 195.7 142.4 195.9 149.5 196.1 156.5 L 196.1 157.4 C 195.5 155.3 194.7 153.3 193.9 151.2 C 192.4 156.3 191.6 161.6 189.8 166.6 C 189.1 166.1 188.5 165.6 187.8 165.1 C 187.2 167.6 186.7 170.2 186.1 172.7 C 185.5 172.3 184.8 171.9 184.2 171.5 C 182.8 174.2 181.3 176.8 179.8 179.5 C 179.5 179.2 178.8 178.7 178.5 178.5 C 175.3 180.7 173.0 183.7 172.5 187.6 C 171.9 186.8 171.2 186.1 170.6 185.3 C 167.8 187.1 165.5 189.6 164.3 192.7 C 164.1 192.1 163.7 190.9 163.5 190.3 C 158.8 192.6 154.0 194.7 149.0 196.0 C 145.6 196.6 143.1 199.9 139.5 199.1 C 137.4 198.6 135.2 198.6 133.2 199.4 C 131.4 198.9 129.5 198.6 127.8 199.5 C 126.0 197.8 123.8 197.1 121.3 197.1 C 120.8 197.9 120.2 198.8 119.6 199.6 C 119.0 198.7 118.5 197.9 117.9 197.0 C 110.7 195.4 103.8 193.0 97.2 189.9 C 96.4 190.6 95.7 191.2 95.0 191.9 C 93.6 189.3 91.1 187.8 88.9 186.1 C 84.6 183.1 80.7 179.6 76.4 176.6 C 77.9 176.6 79.4 176.6 80.8 176.5 C 77.2 172.9 74.2 168.8 71.7 164.3 C 69.7 160.9 67.6 156.7 63.3 155.8 C 57.9 154.7 52.5 153.6 47.0 153.0 C 48.0 158.0 49.2 163.5 53.3 166.9 C 53.0 170.3 55.4 172.6 58.1 174.3 C 58.4 175.8 58.7 177.3 59.3 178.6 C 60.6 180.3 62.8 181.1 64.6 182.1 C 64.3 182.5 63.7 183.3 63.4 183.6 C 69.0 189.9 75.3 195.5 82.5 199.9 C 82.7 199.2 83.1 197.8 83.3 197.2 C 84.2 199.5 85.5 201.8 87.7 203.2 C 88.1 202.8 89.0 201.9 89.4 201.4 C 90.4 203.3 91.8 205.0 93.7 206.0 C 94.3 205.5 94.9 205.0 95.6 204.5 C 96.7 206.0 97.7 207.8 99.7 208.3 C 105.5 210.4 111.6 211.4 117.7 212.6 C 118.3 211.8 119.0 211.1 119.6 210.3 C 120.2 211.2 120.8 212.0 121.4 212.8 C 123.7 213.1 125.8 212.5 127.3 210.6 C 127.9 211.4 128.6 212.1 129.3 212.8 C 131.1 213.3 132.6 212.0 134.1 211.3 C 134.8 211.8 135.5 212.3 136.1 212.8 C 137.5 212.7 138.8 212.5 140.2 212.4 C 140.6 211.4 141.1 210.4 141.6 209.3 C 142.2 210.1 142.8 210.9 143.3 211.7 C 150.4 210.7 157.0 208.2 163.6 205.7 C 163.7 205.0 163.8 203.6 163.9 202.9 L 163.9 201.9 C 164.8 202.9 165.8 203.8 166.7 204.8 C 169.1 203.2 171.3 201.2 172.5 198.5 C 173.1 199.0 173.7 199.5 174.2 200.0 C 177.1 198.7 178.9 196.2 180.1 193.4 C 180.7 193.8 181.3 194.2 182.0 194.6 C 184.4 192.6 187.2 190.3 186.9 186.8 C 186.9 186.3 186.9 185.4 187.0 184.9 C 187.7 185.8 188.5 186.8 189.3 187.7 C 192.7 184.7 195.1 180.8 195.4 176.3 C 195.8 177.1 196.2 178.0 196.6 178.9 C 199.0 176.2 201.1 173.2 202.9 170.1 C 202.5 169.7 201.7 168.8 201.4 168.3 C 204.5 163.5 209.3 159.7 210.9 154.0 C 212.4 149.0 213.6 143.8 214.4 138.6 C 214.9 136.6 213.2 135.1 212.2 133.5 C 212.8 133.2 214.1 132.7 214.7 132.4 C 214.7 131.1 214.7 129.8 214.7 128.6 C 214.1 128.3 213.0 127.8 212.4 127.6 C 216.2 123.4 214.3 117.3 213.4 112.4 C 211.7 109.0 209.4 105.6 210.5 101.5 C 209.8 101.6 209.2 101.6 208.5 101.7 C 208.8 100.2 209.3 98.8 209.4 97.3 C 208.5 96.0 207.3 95.0 206.2 93.9 C 206.7 93.3 207.2 92.7 207.7 92.0 C 206.2 91.2 204.7 90.3 203.2 89.5 C 203.9 89.3 205.2 88.8 205.8 88.6 C 203.1 82.8 199.7 77.3 195.4 72.6 C 194.5 71.4 193.0 71.5 191.7 71.3 C 191.5 70.1 191.5 68.9 191.2 67.7 C 190.3 66.5 188.7 66.6 187.4 66.1 C 186.8 63.5 185.5 61.3 182.6 61.2 C 181.7 59.0 180.1 57.4 177.6 57.3 C 176.7 55.7 175.9 53.8 174.1 52.9 C 169.7 50.1 165.0 47.9 160.2 45.9 C 158.7 45.2 157.1 46.0 155.5 46.3 C 154.4 43.1 151.2 43.8 148.5 43.9 C 146.4 41.9 143.8 42.4 141.5 43.8 C 141.6 42.7 141.7 41.7 141.8 40.6 C 139.2 40.3 136.8 41.3 134.6 42.7 C 134.7 42.2 134.9 41.2 135.0 40.6 C 134.3 38.5 131.8 38.9 130.1 38.4 Z" />
<path fill="#e0b447" stroke="#e0b447" stroke-width="0.09375" opacity="1.00" d=" M 195.9 40.4 C 196.6 39.6 197.3 38.7 198.0 37.9 C 200.6 40.2 203.3 42.4 206.0 44.7 C 213.6 52.2 220.2 60.7 225.7 69.8 C 238.2 91.5 243.2 117.3 239.7 142.1 C 237.1 159.3 230.9 176.0 220.9 190.3 C 217.1 195.5 212.9 200.5 208.5 205.3 C 208.1 204.1 207.7 202.9 207.3 201.7 C 211.7 196.9 215.9 191.9 219.4 186.5 C 222.4 182.1 224.9 177.3 227.2 172.5 C 231.6 163.7 234.3 154.0 235.9 144.3 C 236.8 137.9 236.6 131.4 237.1 125.0 C 237.7 109.1 233.3 93.4 226.7 79.0 C 219.5 64.1 208.8 50.9 195.9 40.4 Z" />
<path fill="#795c11" stroke="#795c11" stroke-width="0.09375" opacity="1.00" d=" M 206.0 44.7 C 206.4 42.1 206.1 39.5 205.9 36.9 C 214.6 43.6 221.1 52.4 227.4 61.2 L 227.3 61.6 C 226.8 64.3 226.3 67.1 225.7 69.8 C 220.2 60.7 213.6 52.2 206.0 44.7 Z" />
<path fill="#ddc774" stroke="#ddc774" stroke-width="0.09375" opacity="1.00" d=" M 106.3 39.9 C 108.9 39.4 111.5 39.1 114.1 38.7 C 113.7 39.4 112.7 40.8 112.2 41.5 C 111.1 42.7 109.9 43.8 108.7 44.9 C 106.5 45.2 104.3 45.3 102.1 45.4 C 99.6 45.4 97.1 45.2 94.6 45.0 C 98.2 42.6 102.3 41.3 106.3 39.9 Z" />
<path fill="#f6d65d" stroke="#f6d65d" stroke-width="0.09375" opacity="1.00" d=" M 112.2 41.5 C 118.1 40.1 124.0 40.5 129.9 41.2 C 130.6 42.4 131.2 43.6 131.9 44.9 C 129.3 49.7 126.3 54.2 122.5 58.1 C 117.8 57.9 113.2 59.4 108.7 60.8 C 109.7 59.5 110.8 58.2 111.4 56.7 C 111.1 54.6 109.6 53.0 108.6 51.2 C 110.5 48.5 113.2 46.6 116.6 46.3 C 116.5 45.3 116.4 44.3 116.4 43.3 C 113.8 43.8 111.3 44.4 108.7 44.9 C 109.9 43.8 111.1 42.7 112.2 41.5 Z" />
<path fill="#e5c34b" stroke="#e5c34b" stroke-width="0.09375" opacity="1.00" d=" M 129.9 41.2 C 131.6 41.0 133.3 40.8 135.0 40.6 C 134.9 41.2 134.7 42.2 134.6 42.7 C 136.8 41.3 139.2 40.3 141.8 40.6 C 141.7 41.7 141.6 42.7 141.5 43.8 C 143.8 42.4 146.4 41.9 148.5 43.9 C 148.2 44.1 147.5 44.6 147.1 44.9 C 145.3 45.2 143.4 44.9 141.8 45.7 C 138.4 48.5 136.5 52.7 134.9 56.7 C 136.5 56.9 138.2 57.0 139.8 57.2 C 137.1 60.3 132.9 58.0 129.5 59.2 C 127.4 60.0 125.2 59.3 123.3 58.4 L 122.5 58.1 C 126.3 54.2 129.3 49.7 131.9 44.9 C 131.2 43.6 130.6 42.4 129.9 41.2 M 134.3 45.3 C 131.2 48.6 128.8 52.6 127.1 56.8 C 128.9 56.5 131.4 57.4 132.6 55.6 C 135.4 52.1 137.7 48.2 139.8 44.2 C 137.9 44.3 135.6 43.6 134.3 45.3 Z" />
<path fill="#f7dc7a" stroke="#f7dc7a" stroke-width="0.09375" opacity="1.00" d=" M 108.7 44.9 C 111.3 44.4 113.8 43.8 116.4 43.3 C 116.4 44.3 116.5 45.3 116.6 46.3 C 113.2 46.6 110.5 48.5 108.6 51.2 C 109.6 53.0 111.1 54.6 111.4 56.7 C 110.8 58.2 109.7 59.5 108.7 60.8 C 107.0 61.5 105.3 62.3 103.6 62.9 C 99.2 64.5 94.9 65.9 90.4 66.9 C 90.8 67.6 91.2 68.3 91.6 69.0 C 85.2 73.1 81.3 80.7 73.5 82.5 C 73.8 82.8 74.4 83.5 74.6 83.8 C 73.2 88.7 69.5 92.4 67.9 97.2 C 67.5 97.7 67.0 98.1 66.6 98.6 C 66.2 98.2 65.3 97.4 64.8 97.0 C 64.0 97.8 63.2 98.6 62.4 99.4 C 62.8 100.1 63.2 100.9 63.5 101.6 C 57.7 102.0 52.0 102.6 46.3 103.8 C 46.3 102.3 46.3 100.8 46.3 99.3 C 46.7 99.1 47.6 98.7 48.0 98.5 C 48.7 98.8 49.4 99.2 50.1 99.6 C 50.1 98.0 50.0 96.4 50.1 94.9 C 50.0 92.1 52.2 90.5 54.3 89.4 C 57.5 88.0 60.0 85.8 62.7 83.7 C 65.8 81.1 70.1 81.2 73.9 80.6 C 73.0 78.4 72.1 76.2 71.2 74.0 C 72.7 75.1 74.1 76.4 75.8 77.1 C 76.9 76.5 77.8 75.8 78.7 75.1 C 78.3 73.7 77.8 72.4 77.4 71.1 C 78.8 71.5 80.1 72.6 81.6 72.5 C 83.3 71.5 84.6 69.9 85.9 68.5 C 84.2 68.1 82.5 67.7 80.8 67.3 C 83.2 66.5 85.7 66.0 88.1 65.1 C 92.1 62.4 95.5 58.3 96.2 53.4 C 94.7 53.1 93.2 52.9 91.8 52.7 C 95.0 50.0 98.3 47.3 102.1 45.4 C 104.3 45.3 106.5 45.2 108.7 44.9 Z" />
<path fill="#e7bf2c" stroke="#e7bf2c" stroke-width="0.09375" opacity="1.00" d=" M 148.5 43.9 C 151.2 43.8 154.4 43.1 155.5 46.3 C 157.1 46.0 158.7 45.2 160.2 45.9 C 165.0 47.9 169.7 50.1 174.1 52.9 C 175.9 53.8 176.7 55.7 177.6 57.3 C 180.1 57.4 181.7 59.0 182.6 61.2 C 185.5 61.3 186.8 63.5 187.4 66.1 C 188.7 66.6 190.3 66.5 191.2 67.7 C 191.5 68.9 191.5 70.1 191.7 71.3 C 193.0 71.5 194.5 71.4 195.4 72.6 C 199.7 77.3 203.1 82.8 205.8 88.6 C 205.2 88.8 203.9 89.3 203.2 89.5 C 204.7 90.3 206.2 91.2 207.7 92.0 C 207.2 92.7 206.7 93.3 206.2 93.9 C 207.3 95.0 208.5 96.0 209.4 97.3 C 209.3 98.8 208.8 100.2 208.5 101.7 C 209.2 101.6 209.8 101.6 210.5 101.5 C 209.4 105.6 211.7 109.0 213.4 112.4 C 214.3 117.3 216.2 123.4 212.4 127.6 C 213.0 127.8 214.1 128.3 214.7 128.6 C 214.7 129.8 214.7 131.1 214.7 132.4 C 214.1 132.7 212.8 133.2 212.2 133.5 C 213.2 135.1 214.9 136.6 214.4 138.6 C 213.6 143.8 212.4 149.0 210.9 154.0 C 209.3 159.7 204.5 163.5 201.4 168.3 C 201.7 168.8 202.5 169.7 202.9 170.1 C 201.1 173.2 199.0 176.2 196.6 178.9 C 196.2 178.0 195.8 177.1 195.4 176.3 C 195.1 180.8 192.7 184.7 189.3 187.7 C 188.5 186.8 187.7 185.8 187.0 184.9 C 187.0 181.5 186.8 178.1 186.6 174.7 C 179.4 177.3 181.0 185.9 181.3 191.8 C 183.2 190.1 185.0 188.5 186.9 186.8 C 187.2 190.3 184.4 192.6 182.0 194.6 C 181.3 194.2 180.7 193.8 180.1 193.4 C 178.9 196.2 177.1 198.7 174.2 200.0 C 173.7 199.5 173.1 199.0 172.5 198.5 C 171.3 201.2 169.1 203.2 166.7 204.8 C 165.8 203.8 164.8 202.9 163.9 201.9 C 164.0 199.0 163.6 196.0 163.1 193.2 C 158.2 196.1 152.6 197.4 147.2 199.2 C 145.6 202.6 144.0 206.0 142.8 209.6 C 149.9 207.6 156.9 205.4 163.9 202.9 C 163.8 203.6 163.7 205.0 163.6 205.7 C 157.0 208.2 150.4 210.7 143.3 211.7 C 142.8 210.9 142.2 210.1 141.6 209.3 C 141.1 210.4 140.6 211.4 140.2 212.4 C 138.8 212.5 137.5 212.7 136.1 212.8 C 135.5 212.3 134.8 211.8 134.1 211.3 C 132.6 212.0 131.1 213.3 129.3 212.8 C 128.6 212.1 127.9 211.4 127.3 210.6 C 125.8 212.5 123.7 213.1 121.4 212.8 C 120.8 212.0 120.2 211.2 119.6 210.3 C 119.0 211.1 118.3 211.8 117.7 212.6 C 111.6 211.4 105.5 210.4 99.7 208.3 C 97.7 207.8 96.7 206.0 95.6 204.5 C 94.9 205.0 94.3 205.5 93.7 206.0 C 91.8 205.0 90.4 203.3 89.4 201.4 C 89.0 201.9 88.1 202.8 87.7 203.2 C 85.5 201.8 84.2 199.5 83.3 197.2 C 83.1 197.8 82.7 199.2 82.5 199.9 C 75.3 195.5 69.0 189.9 63.4 183.6 C 63.7 183.3 64.3 182.5 64.6 182.1 C 62.8 181.1 60.6 180.3 59.3 178.6 C 58.7 177.3 58.4 175.8 58.1 174.3 C 55.4 172.6 53.0 170.3 53.3 166.9 C 49.2 163.5 48.0 158.0 47.0 153.0 C 52.5 153.6 57.9 154.7 63.3 155.8 C 67.6 156.7 69.7 160.9 71.7 164.3 C 74.2 168.8 77.2 172.9 80.8 176.5 C 79.4 176.6 77.9 176.6 76.4 176.6 C 72.6 174.1 69.3 170.9 65.7 168.3 C 62.8 166.1 59.0 168.0 55.9 168.5 C 56.8 169.7 57.3 171.4 58.6 172.3 C 61.7 173.4 65.3 173.6 68.0 175.8 C 74.7 180.8 81.4 185.8 88.1 190.7 C 91.3 192.6 89.9 196.7 90.7 199.7 C 90.7 201.8 93.1 202.2 94.6 203.1 C 94.7 199.4 94.9 195.6 95.0 191.9 C 95.7 191.2 96.4 190.6 97.2 189.9 C 103.8 193.0 110.7 195.4 117.9 197.0 C 118.5 197.9 119.0 198.7 119.6 199.6 C 120.2 198.8 120.8 197.9 121.3 197.1 C 123.8 197.1 126.0 197.8 127.8 199.5 C 128.0 202.9 128.2 206.2 128.4 209.6 C 129.9 209.7 131.3 209.8 132.8 209.8 C 132.9 206.4 133.1 202.9 133.2 199.4 C 135.2 198.6 137.4 198.6 139.5 199.1 C 143.1 199.9 145.6 196.6 149.0 196.0 C 154.0 194.7 158.8 192.6 163.5 190.3 C 163.7 190.9 164.1 192.1 164.3 192.7 C 165.5 189.6 167.8 187.1 170.6 185.3 C 171.2 186.1 171.9 186.8 172.5 187.6 C 173.0 183.7 175.3 180.7 178.5 178.5 C 178.8 178.7 179.5 179.2 179.8 179.5 C 181.3 176.8 182.8 174.2 184.2 171.5 C 184.8 171.9 185.5 172.3 186.1 172.7 C 186.7 170.2 187.2 167.6 187.8 165.1 C 188.5 165.6 189.1 166.1 189.8 166.6 C 191.6 161.6 192.4 156.3 193.9 151.2 C 194.7 153.3 195.5 155.3 196.1 157.4 C 196.1 157.8 196.1 158.6 196.2 158.9 C 194.4 160.8 192.0 162.6 191.6 165.4 C 191.1 168.8 191.2 172.5 189.7 175.7 C 188.3 178.0 189.0 180.7 189.5 183.1 C 191.4 181.1 193.2 178.8 194.0 176.1 C 195.1 172.2 198.6 169.9 200.8 166.8 C 206.4 158.3 208.9 148.3 210.4 138.4 C 210.7 134.8 209.6 131.1 210.4 127.5 C 211.6 120.4 210.4 113.1 208.8 106.1 C 208.2 102.7 203.9 102.2 202.5 99.4 C 202.2 97.7 202.4 96.1 202.5 94.4 C 199.6 94.9 195.2 94.9 194.7 91.1 C 193.7 87.5 197.2 85.8 199.7 84.4 C 197.8 80.4 195.3 76.6 192.0 73.7 C 189.8 76.2 188.0 79.1 186.5 82.2 C 187.7 85.5 189.1 89.2 187.7 92.7 C 186.2 97.2 180.8 99.8 181.0 105.0 C 180.9 107.8 180.4 111.1 182.7 113.3 C 185.8 118.0 192.3 117.9 195.7 122.3 C 197.8 125.3 202.3 125.8 203.7 129.3 C 204.9 132.5 201.5 134.6 199.5 136.4 C 198.3 143.1 197.6 149.9 196.1 156.5 C 195.9 149.5 195.7 142.4 196.0 135.3 C 196.6 135.1 197.9 134.7 198.5 134.6 C 197.8 133.3 197.0 132.1 196.3 130.9 C 196.7 129.6 197.1 128.4 197.5 127.2 C 196.2 127.1 194.9 126.9 193.6 126.8 C 193.4 125.3 192.7 123.9 191.2 123.3 C 190.7 123.0 189.7 122.5 189.2 122.2 C 187.3 121.0 185.5 119.8 183.6 118.6 C 181.3 119.4 178.8 119.4 176.5 118.7 C 176.0 119.0 175.2 119.6 174.7 119.9 C 173.9 119.1 173.1 118.3 172.3 117.5 C 171.6 118.4 170.8 119.3 170.1 120.2 C 169.6 119.3 169.1 118.5 168.5 117.6 C 166.4 119.2 163.8 119.7 161.3 118.6 C 160.6 118.9 159.8 119.3 159.1 119.6 C 158.5 119.2 157.8 118.8 157.2 118.4 C 152.8 121.4 147.5 119.6 142.6 119.5 C 140.8 119.4 138.5 119.8 137.8 121.7 C 135.1 128.0 133.8 135.1 135.2 141.9 C 135.5 143.2 136.4 144.1 137.2 145.1 C 138.5 146.4 139.9 147.6 141.2 148.8 C 141.0 149.7 140.7 150.6 140.5 151.5 C 142.1 151.9 143.7 152.3 145.3 152.7 C 145.4 152.2 145.5 151.3 145.6 150.8 C 149.0 150.6 152.3 150.8 155.7 151.4 C 155.8 153.8 156.8 156.8 154.8 158.7 C 149.9 163.0 143.4 165.2 137.0 166.0 C 127.8 167.2 118.0 165.9 110.0 161.0 C 107.9 159.8 106.6 157.4 106.7 155.0 C 108.5 151.5 111.6 148.3 110.9 144.1 C 110.8 139.6 106.4 137.6 104.0 134.5 C 101.5 134.8 99.0 135.0 96.6 135.0 C 96.5 134.3 96.4 133.5 96.3 132.7 C 94.9 131.9 92.9 131.5 92.2 129.8 C 94.5 125.6 99.5 124.0 103.7 122.2 C 106.3 121.3 109.0 119.7 109.9 116.9 C 110.5 114.1 109.6 111.2 109.3 108.3 C 109.6 106.9 110.0 105.4 110.4 104.0 C 111.0 104.7 111.5 105.4 112.1 106.2 C 113.8 109.5 114.8 113.1 115.5 116.7 C 116.2 116.4 116.9 116.0 117.6 115.6 C 117.7 108.9 117.7 102.1 117.9 95.4 C 117.9 95.0 117.9 94.3 117.8 93.9 C 120.4 92.1 123.7 89.7 126.7 92.3 C 126.9 91.8 127.4 90.8 127.6 90.3 C 137.9 89.1 147.4 93.8 155.9 99.1 C 156.1 100.6 156.4 102.1 156.6 103.7 C 157.4 103.2 158.1 102.8 158.9 102.4 C 161.2 103.9 163.4 105.7 164.6 108.3 C 165.8 107.0 167.0 105.1 169.1 105.5 C 170.9 105.3 171.5 107.4 172.6 108.5 C 172.9 104.9 175.5 102.4 178.1 100.1 C 178.7 100.6 179.2 101.0 179.8 101.5 C 181.0 98.1 182.9 95.0 184.4 91.6 C 185.1 88.8 184.6 85.8 184.5 82.9 C 182.3 81.9 180.4 80.4 180.2 77.9 C 178.5 77.3 176.9 76.7 175.3 76.0 C 175.5 74.9 175.6 73.8 175.8 72.7 C 173.0 74.6 170.8 72.2 169.3 70.0 C 164.3 68.8 160.3 65.1 155.3 63.9 C 151.9 62.8 147.6 62.8 145.8 59.1 C 148.2 54.9 152.1 51.2 152.9 46.2 C 148.5 45.5 146.6 49.9 143.9 52.3 C 144.8 49.8 145.8 47.2 147.1 44.9 C 147.5 44.6 148.2 44.1 148.5 43.9 M 156.2 48.2 C 153.3 51.1 150.6 54.3 149.1 58.1 C 149.7 59.5 151.7 59.3 153.0 59.9 C 158.6 61.1 163.3 64.4 168.4 66.6 C 169.4 67.1 170.3 66.9 170.9 65.9 C 172.7 63.6 174.4 61.0 174.9 58.0 C 169.7 53.2 162.4 51.4 156.2 48.2 M 177.4 60.4 C 174.9 62.4 173.3 65.3 172.2 68.2 C 171.6 69.8 174.1 71.8 175.4 70.5 C 177.3 68.3 179.2 65.8 179.9 62.9 C 180.2 61.6 178.8 59.3 177.4 60.4 M 181.9 64.9 C 180.1 66.8 178.6 69.1 177.5 71.5 C 176.5 73.2 178.4 74.6 179.2 75.9 C 182.3 73.3 184.1 69.6 185.8 66.1 C 184.6 65.5 183.2 63.2 181.9 64.9 M 186.6 69.5 C 184.6 71.9 182.7 74.6 182.3 77.7 C 183.0 78.4 184.1 80.4 185.2 79.3 C 187.4 77.3 189.0 74.6 189.8 71.8 C 190.5 70.0 188.0 68.2 186.6 69.5 M 119.5 96.3 C 119.0 103.2 119.7 110.1 119.3 117.0 C 116.6 119.1 113.9 121.2 111.3 123.3 C 107.7 126.2 103.3 128.2 100.1 131.5 C 101.7 131.8 103.5 133.1 105.1 132.1 C 110.4 129.2 115.0 125.3 120.2 122.1 C 122.3 120.6 125.6 119.2 125.2 116.0 C 125.2 108.4 126.5 100.7 124.8 93.3 C 122.9 93.9 119.8 93.7 119.5 96.3 M 127.4 94.2 C 126.7 102.7 128.0 111.3 126.7 119.7 C 121.3 124.3 114.5 127.4 109.7 132.7 C 112.9 135.2 115.5 138.7 115.8 143.0 C 116.5 148.0 113.9 152.5 112.5 157.1 C 120.8 162.4 131.5 163.4 140.8 160.7 C 138.5 158.4 136.3 155.7 137.4 152.2 C 134.6 149.5 132.4 146.2 132.5 142.2 C 132.2 143.0 131.9 143.8 131.6 144.7 C 130.4 144.9 129.2 145.1 127.9 145.3 C 127.9 146.8 127.8 148.4 127.8 149.9 C 129.0 151.1 131.0 152.1 131.2 154.0 C 131.9 156.7 129.9 160.0 127.0 160.2 C 123.5 160.7 121.0 156.2 122.4 153.3 C 123.4 152.1 124.7 151.1 125.7 149.9 C 125.9 148.4 125.8 146.8 125.8 145.3 C 124.6 145.1 123.4 144.8 122.1 144.6 C 121.9 141.5 121.9 138.4 122.1 135.2 C 125.2 135.2 128.3 135.0 131.4 134.5 C 131.8 130.0 132.1 125.0 135.4 121.5 C 137.1 119.0 141.7 118.8 140.9 115.1 C 139.7 112.7 136.4 110.7 137.6 107.6 C 138.8 103.3 145.8 103.9 146.9 108.0 C 147.8 111.7 142.7 113.1 143.1 116.7 C 147.3 116.9 151.5 116.9 155.7 116.8 C 155.8 111.9 157.8 105.2 152.9 102.1 C 145.6 96.7 136.4 93.7 127.4 94.2 M 174.1 108.2 C 172.9 110.8 172.9 113.8 173.5 116.6 C 175.8 115.8 177.0 113.2 179.0 111.8 C 179.0 109.3 178.9 106.7 178.8 104.1 C 177.1 105.4 175.3 106.5 174.1 108.2 M 141.4 106.3 C 137.8 107.4 138.9 113.3 142.9 111.9 C 146.6 111.2 144.6 105.7 141.4 106.3 M 124.0 137.0 C 124.0 139.0 124.0 141.0 124.1 143.0 C 125.8 142.8 127.7 143.1 129.4 142.4 C 129.9 140.8 129.6 139.0 129.6 137.4 C 127.8 137.2 125.9 137.1 124.0 137.0 M 124.1 153.1 C 124.0 154.7 123.6 156.8 125.2 157.8 C 126.4 157.9 127.6 157.9 128.9 157.9 C 129.2 156.4 130.3 154.5 128.8 153.2 C 127.6 151.5 125.6 152.8 124.1 153.1 M 52.2 157.2 C 52.4 159.9 52.2 162.9 54.0 165.0 C 57.5 166.4 61.3 165.6 64.9 166.2 C 67.4 167.2 69.5 169.0 72.0 170.0 C 70.7 167.1 69.0 164.4 67.1 161.7 C 64.0 156.8 57.3 157.6 52.2 157.2 M 60.9 175.2 C 61.8 177.4 63.2 179.3 65.2 180.7 C 69.4 183.8 73.2 187.4 77.5 190.5 C 80.3 192.7 83.6 194.6 85.4 197.9 C 85.9 198.8 87.1 200.0 88.3 199.4 C 88.9 197.5 88.7 195.4 88.6 193.4 C 82.7 189.1 76.9 184.5 71.0 180.2 C 67.9 178.0 65.1 174.7 60.9 175.2 M 97.1 194.2 C 96.8 197.0 94.7 201.3 98.0 203.0 C 104.2 206.3 111.4 207.6 118.4 208.4 C 119.0 205.8 118.7 203.2 118.5 200.6 C 111.0 199.8 103.9 197.2 97.1 194.2 M 120.5 200.4 C 120.2 203.4 120.2 206.5 120.6 209.5 C 122.3 209.6 124.0 209.7 125.7 209.9 C 126.1 206.7 126.2 203.5 125.7 200.3 C 124.0 200.3 122.2 200.4 120.5 200.4 Z" />
<path fill="#f9d54c" stroke="#f9d54c" stroke-width="0.09375" opacity="1.00" d=" M 134.3 45.3 C 135.6 43.6 137.9 44.3 139.8 44.2 C 137.7 48.2 135.4 52.1 132.6 55.6 C 131.4 57.4 128.9 56.5 127.1 56.8 C 128.8 52.6 131.2 48.6 134.3 45.3 Z" />
<path fill="#f8d13d" stroke="#f8d13d" stroke-width="0.09375" opacity="1.00" d=" M 141.8 45.7 C 143.4 44.9 145.3 45.2 147.1 44.9 C 145.8 47.2 144.8 49.8 143.9 52.3 C 146.6 49.9 148.5 45.5 152.9 46.2 C 152.1 51.2 148.2 54.9 145.8 59.1 C 144.4 59.0 142.9 58.9 141.4 58.7 C 141.5 57.5 141.7 56.3 141.8 55.1 C 141.1 55.8 140.5 56.5 139.8 57.2 C 138.2 57.0 136.5 56.9 134.9 56.7 C 136.5 52.7 138.4 48.5 141.8 45.7 Z" />
<path fill="#f8ce30" stroke="#f8ce30" stroke-width="0.09375" opacity="1.00" d=" M 156.2 48.2 C 162.4 51.4 169.7 53.2 174.9 58.0 C 174.4 61.0 172.7 63.6 170.9 65.9 C 170.3 66.9 169.4 67.1 168.4 66.6 C 163.3 64.4 158.6 61.1 153.0 59.9 C 151.7 59.3 149.7 59.5 149.1 58.1 C 150.6 54.3 153.3 51.1 156.2 48.2 Z" />
<path fill="#fae491" stroke="#fae491" stroke-width="0.09375" opacity="1.00" d=" M 80.1 59.0 C 83.9 56.6 86.5 51.7 91.8 52.7 C 93.2 52.9 94.7 53.1 96.2 53.4 C 95.5 58.3 92.1 62.4 88.1 65.1 C 85.7 66.0 83.2 66.5 80.8 67.3 C 82.5 67.7 84.2 68.1 85.9 68.5 C 84.6 69.9 83.3 71.5 81.6 72.5 C 80.1 72.6 78.8 71.5 77.4 71.1 C 77.8 72.4 78.3 73.7 78.7 75.1 C 77.8 75.8 76.9 76.5 75.8 77.1 C 74.1 76.4 72.7 75.1 71.2 74.0 C 72.1 76.2 73.0 78.4 73.9 80.6 C 70.1 81.2 65.8 81.1 62.7 83.7 C 60.0 85.8 57.5 88.0 54.3 89.4 C 54.0 89.1 53.3 88.5 53.0 88.2 C 55.8 86.4 57.5 83.7 57.5 80.3 C 59.1 78.7 60.9 77.1 62.3 75.3 C 63.6 73.5 64.0 71.1 65.4 69.4 C 67.0 68.3 68.9 67.8 70.7 67.1 C 70.4 66.6 69.7 65.8 69.4 65.3 C 72.1 61.9 76.2 60.6 80.1 59.0 Z" />
<path fill="#d3af34" stroke="#d3af34" stroke-width="0.09375" opacity="1.00" d=" M 139.8 57.2 C 140.5 56.5 141.1 55.8 141.8 55.1 C 141.7 56.3 141.5 57.5 141.4 58.7 C 142.9 58.9 144.4 59.0 145.8 59.1 C 145.1 60.3 144.2 61.4 143.4 62.5 C 152.5 64.6 161.6 67.9 168.6 74.1 C 168.5 74.6 168.3 75.6 168.2 76.1 C 161.2 71.0 153.1 67.3 144.6 65.5 C 143.1 64.3 141.7 62.8 139.7 62.5 C 133.6 61.3 127.4 61.2 121.2 60.8 C 121.9 60.0 122.6 59.2 123.3 58.4 C 125.2 59.3 127.4 60.0 129.5 59.2 C 132.9 58.0 137.1 60.3 139.8 57.2 Z" />
<path fill="#dec15b" stroke="#dec15b" stroke-width="0.09375" opacity="1.00" d=" M 108.7 60.8 C 113.2 59.4 117.8 57.9 122.5 58.1 L 123.3 58.4 C 122.6 59.2 121.9 60.0 121.2 60.8 C 127.4 61.2 133.6 61.3 139.7 62.5 C 141.7 62.8 143.1 64.3 144.6 65.5 C 139.4 64.7 134.2 64.1 128.9 64.0 C 129.6 63.4 130.2 62.8 130.8 62.2 C 123.0 62.1 114.8 61.6 107.4 64.7 C 103.8 66.1 100.2 67.5 96.8 69.3 C 98.5 66.6 101.5 65.2 103.6 62.9 C 105.3 62.3 107.0 61.5 108.7 60.8 Z" />
<path fill="#c09e27" stroke="#c09e27" stroke-width="0.09375" opacity="1.00" d=" M 145.8 59.1 C 147.6 62.8 151.9 62.8 155.3 63.9 C 160.3 65.1 164.3 68.8 169.3 70.0 C 170.8 72.2 173.0 74.6 175.8 72.7 C 175.6 73.8 175.5 74.9 175.3 76.0 C 176.9 76.7 178.5 77.3 180.2 77.9 C 180.4 80.4 182.3 81.9 184.5 82.9 C 184.6 85.8 185.1 88.8 184.4 91.6 C 182.9 95.0 181.0 98.1 179.8 101.5 C 179.2 101.0 178.7 100.6 178.1 100.1 C 175.5 102.4 172.9 104.9 172.6 108.5 C 171.5 107.4 170.9 105.3 169.1 105.5 C 167.0 105.1 165.8 107.0 164.6 108.3 C 163.4 105.7 161.2 103.9 158.9 102.4 C 158.1 102.8 157.4 103.2 156.6 103.7 C 156.4 102.1 156.1 100.6 155.9 99.1 C 155.2 97.8 154.5 96.5 153.7 95.3 C 154.2 94.7 154.8 94.2 155.4 93.6 C 159.2 96.2 162.7 99.3 166.0 102.6 C 170.1 103.0 172.2 99.2 174.7 96.7 C 177.1 94.0 179.7 91.7 181.9 88.9 C 178.2 83.9 173.1 80.0 168.2 76.1 C 168.3 75.6 168.5 74.6 168.6 74.1 C 161.6 67.9 152.5 64.6 143.4 62.5 C 144.2 61.4 145.1 60.3 145.8 59.1 Z" />
<path fill="#f7cd2f" stroke="#f7cd2f" stroke-width="0.09375" opacity="1.00" d=" M 177.4 60.4 C 178.8 59.3 180.2 61.6 179.9 62.9 C 179.2 65.8 177.3 68.3 175.4 70.5 C 174.1 71.8 171.6 69.8 172.2 68.2 C 173.3 65.3 174.9 62.4 177.4 60.4 Z" />
<path fill="#ecd76e" stroke="#ecd76e" stroke-width="0.09375" opacity="1.00" d=" M 107.4 64.7 C 114.8 61.6 123.0 62.1 130.8 62.2 C 130.2 62.8 129.6 63.4 128.9 64.0 C 122.6 64.0 116.3 64.6 110.2 66.4 C 109.5 66.0 108.1 65.2 107.4 64.7 Z" />
<path fill="#70520a" stroke="#70520a" stroke-width="0.09375" opacity="1.00" d=" M 227.3 61.6 C 233.0 69.2 236.7 78.1 240.0 86.9 C 244.0 99.8 247.1 113.3 246.6 127.0 C 247.0 139.3 244.2 151.3 240.9 163.0 C 236.8 175.9 230.4 188.0 222.1 198.7 C 221.8 195.9 221.4 193.1 220.9 190.3 C 230.9 176.0 237.1 159.3 239.7 142.1 C 243.2 117.3 238.2 91.5 225.7 69.8 C 226.3 67.1 226.8 64.3 227.3 61.6 Z" />
<path fill="#e3ca73" stroke="#e3ca73" stroke-width="0.09375" opacity="1.00" d=" M 90.4 66.9 C 94.9 65.9 99.2 64.5 103.6 62.9 C 101.5 65.2 98.5 66.6 96.8 69.3 C 93.0 72.7 88.4 75.1 84.8 78.8 C 80.7 83.0 77.1 87.7 73.8 92.6 C 71.0 92.8 69.8 95.7 67.9 97.2 C 69.5 92.4 73.2 88.7 74.6 83.8 C 74.4 83.5 73.8 82.8 73.5 82.5 C 81.3 80.7 85.2 73.1 91.6 69.0 C 91.2 68.3 90.8 67.6 90.4 66.9 Z" />
<path fill="#fefdef" stroke="#fefdef" stroke-width="0.09375" opacity="1.00" d=" M 110.2 66.4 C 116.3 64.6 122.6 64.0 128.9 64.0 C 134.2 64.1 139.4 64.7 144.6 65.5 C 153.1 67.3 161.2 71.0 168.2 76.1 C 173.1 80.0 178.2 83.9 181.9 88.9 C 179.7 91.7 177.1 94.0 174.7 96.7 C 172.2 99.2 170.1 103.0 166.0 102.6 C 162.7 99.3 159.2 96.2 155.4 93.6 C 150.2 90.1 144.3 87.7 138.2 86.5 C 129.0 84.6 119.0 85.5 110.5 89.7 C 102.9 93.5 96.7 99.8 92.6 107.3 C 92.4 107.6 92.0 108.3 91.9 108.6 C 96.2 108.8 100.6 108.1 104.9 109.1 C 109.0 111.2 108.0 117.1 104.8 119.6 C 99.3 119.5 93.9 119.7 88.5 119.4 C 87.2 125.6 87.0 132.0 88.6 138.1 C 88.7 138.5 88.8 139.3 88.8 139.7 C 94.3 139.5 99.8 139.4 105.2 139.7 C 108.2 142.3 108.9 148.1 104.8 150.0 C 101.0 150.7 97.1 150.2 93.3 150.5 C 97.4 156.3 101.9 162.2 108.3 165.6 C 113.6 168.7 119.6 170.3 125.6 171.0 C 123.6 171.4 121.6 171.9 119.6 172.4 C 119.9 172.9 120.3 173.4 120.7 173.9 C 115.9 178.9 111.5 184.3 106.4 189.0 C 98.2 185.9 90.6 180.9 84.7 174.3 C 80.7 169.6 76.9 164.6 74.1 159.1 C 72.7 156.3 71.5 153.3 70.3 150.4 C 64.4 149.9 58.3 151.3 52.6 149.2 C 52.3 146.8 52.1 144.4 51.9 142.0 C 56.1 137.9 62.4 140.0 67.6 139.5 C 66.2 132.9 66.6 126.2 66.6 119.5 L 65.4 119.5 C 62.1 119.6 58.8 119.5 55.5 119.4 C 54.6 118.6 53.7 117.7 52.8 116.8 C 52.8 113.9 52.4 109.8 56.0 109.0 C 60.4 108.4 64.9 108.9 69.3 108.7 C 75.0 89.2 90.6 72.4 110.2 66.4 Z" />
<path fill="#f7cd30" stroke="#f7cd30" stroke-width="0.09375" opacity="1.00" d=" M 181.9 64.9 C 183.2 63.2 184.6 65.5 185.8 66.1 C 184.1 69.6 182.3 73.3 179.2 75.9 C 178.4 74.6 176.5 73.2 177.5 71.5 C 178.6 69.1 180.1 66.8 181.9 64.9 Z" />
<path fill="#f4df76" stroke="#f4df76" stroke-width="0.09375" opacity="1.00" d=" M 96.8 69.3 C 100.2 67.5 103.8 66.1 107.4 64.7 C 108.1 65.2 109.5 66.0 110.2 66.4 C 90.6 72.4 75.0 89.2 69.3 108.7 C 64.9 108.9 60.4 108.4 56.0 109.0 C 52.4 109.8 52.8 113.9 52.8 116.8 C 52.2 117.2 51.2 118.1 50.6 118.5 C 50.5 115.6 50.3 112.8 50.1 109.9 C 51.9 108.8 53.6 107.3 55.7 106.7 C 59.5 106.0 63.6 107.5 67.3 106.4 C 69.8 101.9 71.0 96.9 73.8 92.6 C 77.1 87.7 80.7 83.0 84.8 78.8 C 88.4 75.1 93.0 72.7 96.8 69.3 Z" />
<path fill="#f8cd30" stroke="#f8cd30" stroke-width="0.09375" opacity="1.00" d=" M 186.6 69.5 C 188.0 68.2 190.5 70.0 189.8 71.8 C 189.0 74.6 187.4 77.3 185.2 79.3 C 184.1 80.4 183.0 78.4 182.3 77.7 C 182.7 74.6 184.6 71.9 186.6 69.5 Z" />
<path fill="#fbebb1" stroke="#fbebb1" stroke-width="0.09375" opacity="1.00" d=" M 22.3 78.8 C 25.4 76.7 27.3 73.4 29.6 70.6 C 22.7 83.6 17.7 97.7 16.0 112.4 C 15.5 111.4 15.1 110.5 14.6 109.6 C 13.8 110.0 13.1 110.5 12.3 110.9 C 12.1 108.2 11.9 105.6 11.8 102.9 C 13.6 93.4 16.4 84.1 20.6 75.4 C 21.1 76.5 21.7 77.7 22.3 78.8 Z" />
<path fill="#f9cf30" stroke="#f9cf30" stroke-width="0.09375" opacity="1.00" d=" M 186.5 82.2 C 188.0 79.1 189.8 76.2 192.0 73.7 C 195.3 76.6 197.8 80.4 199.7 84.4 C 197.2 85.8 193.7 87.5 194.7 91.1 C 195.2 94.9 199.6 94.9 202.5 94.4 C 202.4 96.1 202.2 97.7 202.5 99.4 C 203.9 102.2 208.2 102.7 208.8 106.1 C 210.4 113.1 211.6 120.4 210.4 127.5 C 209.6 131.1 210.7 134.8 210.4 138.4 C 208.9 148.3 206.4 158.3 200.8 166.8 C 198.6 169.9 195.1 172.2 194.0 176.1 C 193.2 178.8 191.4 181.1 189.5 183.1 C 189.0 180.7 188.3 178.0 189.7 175.7 C 191.2 172.5 191.1 168.8 191.6 165.4 C 192.0 162.6 194.4 160.8 196.2 158.9 C 196.1 158.6 196.1 157.8 196.1 157.4 L 196.1 156.5 C 197.6 149.9 198.3 143.1 199.5 136.4 C 201.5 134.6 204.9 132.5 203.7 129.3 C 202.3 125.8 197.8 125.3 195.7 122.3 C 192.3 117.9 185.8 118.0 182.7 113.3 C 180.4 111.1 180.9 107.8 181.0 105.0 C 180.8 99.8 186.2 97.2 187.7 92.7 C 189.1 89.2 187.7 85.5 186.5 82.2 M 198.3 112.3 C 194.5 112.9 192.8 118.6 196.4 120.7 C 198.8 122.9 202.3 121.2 203.7 118.7 C 205.3 115.5 201.6 111.4 198.3 112.3 Z" />
<path fill="#e6d389" stroke="#e6d389" stroke-width="0.09375" opacity="1.00" d=" M 52.5 80.1 C 53.2 79.5 54.0 78.9 54.7 78.3 C 55.6 79.0 56.6 79.7 57.5 80.3 C 57.5 83.7 55.8 86.4 53.0 88.2 C 53.3 88.5 54.0 89.1 54.3 89.4 C 52.2 90.5 50.0 92.1 50.1 94.9 C 49.7 95.3 48.9 96.1 48.5 96.5 C 47.0 96.6 45.5 96.7 44.0 96.8 C 45.9 90.8 49.4 85.5 52.5 80.1 Z" />
<path fill="#f3df90" stroke="#f3df90" stroke-width="0.09375" opacity="1.00" d=" M 49.8 80.1 C 50.5 80.1 51.8 80.1 52.5 80.1 C 49.4 85.5 45.9 90.8 44.0 96.8 C 43.4 98.8 42.7 100.8 42.0 102.8 C 40.9 104.5 39.7 106.2 38.7 107.9 C 40.5 98.1 44.6 88.7 49.8 80.1 Z" />
<path fill="#fff5b9" stroke="#fff5b9" stroke-width="0.09375" opacity="1.00" d=" M 22.3 97.9 C 23.9 92.1 25.8 86.4 28.3 81.0 C 29.3 81.9 30.4 82.9 31.4 83.8 C 31.2 86.7 32.3 89.3 34.2 91.3 C 34.8 97.8 35.2 104.6 38.2 110.4 C 37.8 113.5 37.3 116.6 36.8 119.7 C 36.3 123.1 35.8 126.5 35.5 130.0 C 35.6 121.8 29.3 115.2 29.3 107.0 C 27.4 104.7 25.2 101.9 27.3 99.0 C 25.6 98.6 24.0 98.2 22.3 97.9 Z" />
<path fill="#e2cb63" stroke="#e2cb63" stroke-width="0.09375" opacity="1.00" d=" M 110.5 89.7 C 119.0 85.5 129.0 84.6 138.2 86.5 C 130.8 87.0 123.0 86.8 116.0 90.0 C 108.0 92.8 101.5 98.7 96.4 105.5 C 96.3 105.6 96.1 105.8 96.0 106.0 C 96.4 106.4 97.2 107.3 97.6 107.8 C 96.0 107.6 94.3 107.4 92.6 107.3 C 96.7 99.8 102.9 93.5 110.5 89.7 Z" />
<path fill="#c9a835" stroke="#c9a835" stroke-width="0.09375" opacity="1.00" d=" M 116.0 90.0 C 123.0 86.8 130.8 87.0 138.2 86.5 C 144.3 87.7 150.2 90.1 155.4 93.6 C 154.8 94.2 154.2 94.7 153.7 95.3 C 154.5 96.5 155.2 97.8 155.9 99.1 C 147.4 93.8 137.9 89.1 127.6 90.3 C 127.4 90.8 126.9 91.8 126.7 92.3 C 123.7 89.7 120.4 92.1 117.8 93.9 C 117.8 93.4 117.7 92.5 117.6 92.0 C 114.9 92.4 112.6 94.0 110.9 96.0 C 108.7 96.4 106.3 97.1 105.3 99.3 C 103.8 101.5 105.1 104.1 106.1 106.2 C 102.9 106.3 99.7 105.9 96.4 105.5 C 101.5 98.7 108.0 92.8 116.0 90.0 Z" />
<path fill="#dfc564" stroke="#dfc564" stroke-width="0.09375" opacity="1.00" d=" M 67.9 97.2 C 69.8 95.7 71.0 92.8 73.8 92.6 C 71.0 96.9 69.8 101.9 67.3 106.4 C 63.6 107.5 59.5 106.0 55.7 106.7 C 53.6 107.3 51.9 108.8 50.1 109.9 C 47.5 112.5 43.8 112.1 40.5 111.2 C 41.1 108.4 41.5 105.6 42.0 102.8 C 42.7 100.8 43.4 98.8 44.0 96.8 C 45.5 96.7 47.0 96.6 48.5 96.5 C 48.9 96.1 49.7 95.3 50.1 94.9 C 50.0 96.4 50.1 98.0 50.1 99.6 C 49.4 99.2 48.7 98.8 48.0 98.5 C 47.6 98.7 46.7 99.1 46.3 99.3 C 46.3 100.8 46.3 102.3 46.3 103.8 C 52.0 102.6 57.7 102.0 63.5 101.6 C 63.2 100.9 62.8 100.1 62.4 99.4 C 63.2 98.6 64.0 97.8 64.8 97.0 C 65.3 97.4 66.2 98.2 66.6 98.6 C 67.0 98.1 67.5 97.7 67.9 97.2 Z" />
<path fill="#e6c240" stroke="#e6c240" stroke-width="0.09375" opacity="1.00" d=" M 110.9 96.0 C 112.6 94.0 114.9 92.4 117.6 92.0 C 117.7 92.5 117.8 93.4 117.8 93.9 C 117.9 94.3 117.9 95.0 117.9 95.4 C 116.0 95.8 113.9 96.1 112.4 97.4 C 111.7 100.3 111.9 103.3 112.1 106.2 C 111.5 105.4 111.0 104.7 110.4 104.0 C 110.0 105.4 109.6 106.9 109.3 108.3 C 108.2 107.6 107.2 107.0 106.1 106.2 C 105.1 104.1 103.8 101.5 105.3 99.3 C 106.3 97.1 108.7 96.4 110.9 96.0 Z" />
<path fill="#f9d034" stroke="#f9d034" stroke-width="0.09375" opacity="1.00" d=" M 119.5 96.3 C 119.8 93.7 122.9 93.9 124.8 93.3 C 126.5 100.7 125.2 108.4 125.2 116.0 C 125.6 119.2 122.3 120.6 120.2 122.1 C 115.0 125.3 110.4 129.2 105.1 132.1 C 103.5 133.1 101.7 131.8 100.1 131.5 C 103.3 128.2 107.7 126.2 111.3 123.3 C 113.9 121.2 116.6 119.1 119.3 117.0 C 119.7 110.1 119.0 103.2 119.5 96.3 Z" />
<path fill="#f9cf30" stroke="#f9cf30" stroke-width="0.09375" opacity="1.00" d=" M 127.4 94.2 C 136.4 93.7 145.6 96.7 152.9 102.1 C 157.8 105.2 155.8 111.9 155.7 116.8 C 151.5 116.9 147.3 116.9 143.1 116.7 C 142.7 113.1 147.8 111.7 146.9 108.0 C 145.8 103.9 138.8 103.3 137.6 107.6 C 136.4 110.7 139.7 112.7 140.9 115.1 C 141.7 118.8 137.1 119.0 135.4 121.5 C 132.1 125.0 131.8 130.0 131.4 134.5 C 128.3 135.0 125.2 135.2 122.1 135.2 C 121.9 138.4 121.9 141.5 122.1 144.6 C 123.4 144.8 124.6 145.1 125.8 145.3 C 125.8 146.8 125.9 148.4 125.7 149.9 C 124.7 151.1 123.4 152.1 122.4 153.3 C 121.0 156.2 123.5 160.7 127.0 160.2 C 129.9 160.0 131.9 156.7 131.2 154.0 C 131.0 152.1 129.0 151.1 127.8 149.9 C 127.8 148.4 127.9 146.8 127.9 145.3 C 129.2 145.1 130.4 144.9 131.6 144.7 C 131.9 143.8 132.2 143.0 132.5 142.2 C 132.4 146.2 134.6 149.5 137.4 152.2 C 136.3 155.7 138.5 158.4 140.8 160.7 C 131.5 163.4 120.8 162.4 112.5 157.1 C 113.9 152.5 116.5 148.0 115.8 143.0 C 115.5 138.7 112.9 135.2 109.7 132.7 C 114.5 127.4 121.3 124.3 126.7 119.7 C 128.0 111.3 126.7 102.7 127.4 94.2 Z" />
<path fill="#f6cf3d" stroke="#f6cf3d" stroke-width="0.09375" opacity="1.00" d=" M 112.4 97.4 C 113.9 96.1 116.0 95.8 117.9 95.4 C 117.7 102.1 117.7 108.9 117.6 115.6 C 116.9 116.0 116.2 116.4 115.5 116.7 C 114.8 113.1 113.8 109.5 112.1 106.2 C 111.9 103.3 111.7 100.3 112.4 97.4 Z" />
<path fill="#ffee9f" stroke="#ffee9f" stroke-width="0.09375" opacity="1.00" d=" M 22.3 97.9 C 24.0 98.2 25.6 98.6 27.3 99.0 C 25.2 101.9 27.4 104.7 29.3 107.0 C 29.3 115.2 35.6 121.8 35.5 130.0 C 35.8 126.5 36.3 123.1 36.8 119.7 C 36.7 126.2 36.4 132.8 37.7 139.3 C 37.9 140.8 38.2 142.3 38.5 143.8 C 38.2 144.6 37.8 146.3 37.5 147.1 C 35.6 138.3 31.8 130.1 28.1 121.9 C 26.7 118.9 26.3 115.4 23.9 113.1 C 22.3 111.6 20.9 109.8 20.2 107.8 C 20.7 104.4 21.4 101.1 22.3 97.9 Z" />
<path fill="#f9df82" stroke="#f9df82" stroke-width="0.09375" opacity="1.00" d=" M 9.6 116.9 C 10.1 112.2 10.6 107.5 11.8 102.9 C 11.9 105.6 12.1 108.2 12.3 110.9 C 13.1 110.5 13.8 110.0 14.6 109.6 C 15.1 110.5 15.5 111.4 16.0 112.4 C 14.7 124.8 14.9 137.4 17.6 149.6 C 17.4 150.4 17.1 151.9 16.9 152.7 C 16.3 152.2 15.6 151.7 15.0 151.2 C 14.4 151.6 13.9 152.1 13.4 152.6 C 12.9 151.6 12.3 150.7 11.8 149.8 C 9.0 139.1 9.1 127.9 9.6 116.9 Z" />
<path fill="#f0d36b" stroke="#f0d36b" stroke-width="0.09375" opacity="1.00" d=" M 38.7 107.9 C 39.7 106.2 40.9 104.5 42.0 102.8 C 41.5 105.6 41.1 108.4 40.5 111.2 C 39.4 116.6 38.1 122.0 39.2 127.4 C 39.2 128.4 39.1 129.5 39.1 130.5 C 38.4 133.4 37.7 136.3 37.7 139.3 C 36.4 132.8 36.7 126.2 36.8 119.7 C 37.3 116.6 37.8 113.5 38.2 110.4 C 38.3 109.8 38.5 108.5 38.7 107.9 Z" />
<path fill="#f7cd2f" stroke="#f7cd2f" stroke-width="0.09375" opacity="1.00" d=" M 174.1 108.2 C 175.3 106.5 177.1 105.4 178.8 104.1 C 178.9 106.7 179.0 109.3 179.0 111.8 C 177.0 113.2 175.8 115.8 173.5 116.6 C 172.9 113.8 172.9 110.8 174.1 108.2 Z" />
<path fill="#dbc04d" stroke="#dbc04d" stroke-width="0.09375" opacity="1.00" d=" M 96.0 106.0 C 96.1 105.8 96.3 105.6 96.4 105.5 C 99.7 105.9 102.9 106.3 106.1 106.2 C 107.2 107.0 108.2 107.6 109.3 108.3 C 109.6 111.2 110.5 114.1 109.9 116.9 C 109.0 119.7 106.3 121.3 103.7 122.2 C 99.4 121.9 95.2 122.0 90.9 122.4 C 89.1 127.5 90.5 133.0 88.6 138.1 C 87.0 132.0 87.2 125.6 88.5 119.4 C 93.9 119.7 99.3 119.5 104.8 119.6 C 108.0 117.1 109.0 111.2 104.9 109.1 C 100.6 108.1 96.2 108.8 91.9 108.6 C 92.0 108.3 92.4 107.6 92.6 107.3 C 94.3 107.4 96.0 107.6 97.6 107.8 C 97.2 107.3 96.4 106.4 96.0 106.0 Z" />
<path fill="#f9cf30" stroke="#f9cf30" stroke-width="0.09375" opacity="1.00" d=" M 141.4 106.3 C 144.6 105.7 146.6 111.2 142.9 111.9 C 138.9 113.3 137.8 107.4 141.4 106.3 Z" />
<path fill="#fde58a" stroke="#fde58a" stroke-width="0.09375" opacity="1.00" d=" M 19.4 113.6 C 19.6 111.6 19.9 109.7 20.2 107.8 C 20.9 109.8 22.3 111.6 23.9 113.1 C 26.3 115.4 26.7 118.9 28.1 121.9 C 31.8 130.1 35.6 138.3 37.5 147.1 C 37.8 146.3 38.2 144.6 38.5 143.8 C 39.6 149.4 41.2 154.8 43.1 160.1 C 42.3 161.6 40.5 163.0 41.3 164.8 C 42.0 167.5 41.9 170.3 42.0 173.0 C 42.5 174.3 43.8 175.1 44.7 176.1 C 44.3 176.7 43.9 177.3 43.5 177.8 C 47.1 182.9 50.2 188.8 56.0 191.6 C 56.7 195.8 60.6 197.9 64.3 199.2 C 64.0 199.8 63.7 200.4 63.4 201.1 C 66.5 203.8 70.1 205.8 74.2 206.5 C 74.5 208.3 75.3 210.1 77.3 210.7 C 83.6 213.4 89.6 216.8 96.2 218.9 C 96.4 218.4 96.7 217.4 96.8 216.9 C 99.7 218.3 102.5 220.0 105.1 221.9 C 106.1 221.5 107.2 221.1 108.3 220.7 C 109.2 221.4 110.1 222.2 111.0 222.9 C 112.1 222.6 113.1 222.2 114.2 221.9 C 116.1 222.5 118.1 223.2 120.1 222.3 C 124.5 220.6 129.3 219.8 134.0 219.5 C 129.2 219.0 124.4 219.2 119.6 218.2 C 132.1 218.7 144.9 218.0 156.8 213.8 C 156.7 214.2 156.6 215.2 156.5 215.6 C 162.0 215.1 167.3 213.2 172.8 213.1 C 171.5 213.8 170.1 214.6 168.6 215.3 C 161.6 217.2 154.2 217.4 147.3 220.0 C 146.8 219.9 146.2 219.8 145.6 219.8 C 143.9 221.5 141.8 222.7 139.6 223.6 C 139.3 223.0 138.8 221.8 138.6 221.2 C 136.1 227.6 128.7 231.3 122.0 230.8 C 119.9 230.8 117.8 230.6 115.7 230.5 C 115.3 228.8 114.9 227.0 114.5 225.3 C 113.8 226.5 113.1 227.7 112.4 228.9 C 110.7 227.9 109.4 226.6 108.5 224.8 C 107.2 225.7 105.8 226.5 104.4 227.2 C 103.7 225.9 103.1 224.7 102.4 223.4 C 101.8 224.2 101.2 225.0 100.6 225.9 C 96.5 222.9 92.6 219.7 88.1 217.4 C 87.3 217.9 86.6 218.5 85.8 219.0 C 83.9 218.0 82.0 217.1 80.2 216.1 C 80.6 215.5 81.1 215.0 81.5 214.4 C 76.4 213.8 71.6 211.6 67.4 208.8 C 67.8 208.0 68.1 207.2 68.5 206.5 C 63.8 206.3 59.3 203.6 57.9 199.0 C 54.5 197.7 51.4 195.4 51.0 191.6 C 45.2 189.0 42.9 182.7 39.0 178.1 C 39.5 177.5 40.0 176.9 40.5 176.3 C 38.3 175.2 36.6 173.5 35.8 171.1 C 36.7 170.3 37.5 169.5 38.4 168.7 C 37.5 167.8 36.7 166.9 35.9 165.9 C 35.2 164.1 36.6 162.5 37.3 161.0 C 34.9 157.6 37.1 153.4 35.0 149.9 C 33.3 146.2 33.3 142.0 32.1 138.2 C 29.6 134.5 29.1 129.9 27.2 125.9 C 26.1 121.8 22.4 118.9 22.2 114.5 C 21.5 114.3 20.1 113.8 19.4 113.6 Z" />
<path fill="#dec156" stroke="#dec156" stroke-width="0.09375" opacity="1.00" d=" M 40.5 111.2 C 43.8 112.1 47.5 112.5 50.1 109.9 C 50.3 112.8 50.5 115.6 50.6 118.5 C 54.0 121.8 58.8 122.1 63.3 122.2 C 61.8 122.4 60.3 122.7 58.8 123.1 C 57.7 123.4 56.6 123.7 55.4 124.0 C 51.4 123.4 49.1 119.4 45.5 117.9 C 44.5 121.0 43.6 124.1 42.7 127.2 L 41.8 127.4 C 41.3 126.3 40.9 125.3 40.4 124.2 C 40.0 125.3 39.6 126.3 39.2 127.4 C 38.1 122.0 39.4 116.6 40.5 111.2 Z" />
<path fill="#e9bf20" stroke="#e9bf20" stroke-width="0.09375" opacity="1.00" d=" M 198.3 112.3 C 201.6 111.4 205.3 115.5 203.7 118.7 C 202.3 121.2 198.8 122.9 196.4 120.7 C 192.8 118.6 194.5 112.9 198.3 112.3 M 197.2 114.1 C 196.8 115.6 195.6 117.5 197.2 118.8 C 198.6 120.8 202.4 119.8 202.0 117.0 C 202.5 114.1 199.2 114.1 197.2 114.1 Z" />
<path fill="#fce174" stroke="#fce174" stroke-width="0.09375" opacity="1.00" d=" M 18.8 127.7 C 18.8 123.0 18.7 118.2 19.4 113.6 C 20.1 113.8 21.5 114.3 22.2 114.5 C 22.4 118.9 26.1 121.8 27.2 125.9 C 29.1 129.9 29.6 134.5 32.1 138.2 C 33.3 142.0 33.3 146.2 35.0 149.9 C 37.1 153.4 34.9 157.6 37.3 161.0 C 36.6 162.5 35.2 164.1 35.9 165.9 C 36.7 166.9 37.5 167.8 38.4 168.7 C 37.5 169.5 36.7 170.3 35.8 171.1 C 36.6 173.5 38.3 175.2 40.5 176.3 C 40.0 176.9 39.5 177.5 39.0 178.1 C 42.9 182.7 45.2 189.0 51.0 191.6 C 51.4 195.4 54.5 197.7 57.9 199.0 C 59.3 203.6 63.8 206.3 68.5 206.5 C 68.1 207.2 67.8 208.0 67.4 208.8 C 71.6 211.6 76.4 213.8 81.5 214.4 C 81.1 215.0 80.6 215.5 80.2 216.1 C 82.0 217.1 83.9 218.0 85.8 219.0 C 86.6 218.5 87.3 217.9 88.1 217.4 C 92.6 219.7 96.5 222.9 100.6 225.9 C 101.2 225.0 101.8 224.2 102.4 223.4 C 103.1 224.7 103.7 225.9 104.4 227.2 C 105.8 226.5 107.2 225.7 108.5 224.8 C 109.4 226.6 110.7 227.9 112.4 228.9 C 113.1 227.7 113.8 226.5 114.5 225.3 C 114.9 227.0 115.3 228.8 115.7 230.5 C 117.8 230.6 119.9 230.8 122.0 230.8 C 128.7 231.3 136.1 227.6 138.6 221.2 C 138.8 221.8 139.3 223.0 139.6 223.6 C 141.8 222.7 143.9 221.5 145.6 219.8 C 146.2 219.8 146.8 219.9 147.3 220.0 C 154.2 217.4 161.6 217.2 168.6 215.3 C 171.3 215.1 173.9 215.3 176.5 215.4 C 168.3 218.1 159.5 218.3 151.6 221.5 C 150.0 222.1 148.8 223.4 147.6 224.5 C 147.2 224.1 146.4 223.4 146.0 223.0 C 144.5 225.9 142.5 228.4 139.6 229.8 C 139.1 228.5 138.7 227.2 138.2 226.0 C 137.4 229.0 137.0 232.2 136.7 235.4 C 129.5 235.6 122.3 235.7 115.1 234.9 C 97.3 233.0 80.1 226.2 65.3 215.9 C 44.6 201.7 29.3 179.8 22.6 155.5 C 24.6 155.0 26.7 154.5 28.8 154.0 C 28.0 152.7 26.8 151.5 26.7 149.9 C 26.2 145.9 25.7 141.9 25.5 137.9 C 23.7 135.6 21.0 133.0 22.2 129.7 C 21.1 129.0 19.9 128.4 18.8 127.7 Z" />
<path fill="#f9cf30" stroke="#f9cf30" stroke-width="0.09375" opacity="1.00" d=" M 197.2 114.1 C 199.2 114.1 202.5 114.1 202.0 117.0 C 202.4 119.8 198.6 120.8 197.2 118.8 C 195.6 117.5 196.8 115.6 197.2 114.1 Z" />
<path fill="#ecd66b" stroke="#ecd66b" stroke-width="0.09375" opacity="1.00" d=" M 50.6 118.5 C 51.2 118.1 52.2 117.2 52.8 116.8 C 53.7 117.7 54.6 118.6 55.5 119.4 C 58.8 119.5 62.1 119.6 65.4 119.5 C 65.1 120.2 64.4 121.6 64.1 122.2 L 63.3 122.2 C 58.8 122.1 54.0 121.8 50.6 118.5 Z" />
<path fill="#cfa81f" stroke="#cfa81f" stroke-width="0.09375" opacity="1.00" d=" M 161.3 118.6 C 163.8 119.7 166.4 119.2 168.5 117.6 C 169.1 118.5 169.6 119.3 170.1 120.2 C 170.8 119.3 171.6 118.4 172.3 117.5 C 173.1 118.3 173.9 119.1 174.7 119.9 C 175.2 119.6 176.0 119.0 176.5 118.7 C 178.8 119.4 181.3 119.4 183.6 118.6 C 185.5 119.8 187.3 121.0 189.2 122.2 C 181.8 123.3 174.3 120.9 166.9 122.2 C 162.8 122.9 158.7 121.3 154.5 121.8 C 150.1 122.5 145.5 122.3 141.2 123.5 C 139.2 124.1 137.6 125.9 137.6 128.0 C 137.2 133.7 137.6 139.4 137.2 145.1 C 136.4 144.1 135.5 143.2 135.2 141.9 C 133.8 135.1 135.1 128.0 137.8 121.7 C 138.5 119.8 140.8 119.4 142.6 119.5 C 147.5 119.6 152.8 121.4 157.2 118.4 C 157.8 118.8 158.5 119.2 159.1 119.6 C 159.8 119.3 160.6 118.9 161.3 118.6 Z" />
<path fill="#f2ce4a" stroke="#f2ce4a" stroke-width="0.09375" opacity="1.00" d=" M 45.5 117.9 C 49.1 119.4 51.4 123.4 55.4 124.0 C 56.3 125.0 57.2 126.0 58.1 127.1 C 55.4 127.7 52.7 128.2 49.9 128.6 C 53.1 128.8 56.5 128.9 59.4 130.5 C 55.6 133.9 50.4 135.7 45.3 134.6 C 43.8 133.5 43.9 131.3 43.2 129.8 C 45.1 129.3 47.0 128.9 48.9 128.4 C 46.9 128.0 44.8 127.5 42.7 127.2 C 43.6 124.1 44.5 121.0 45.5 117.9 Z" />
<path fill="#fee28c" stroke="#fee28c" stroke-width="0.09375" opacity="1.00" d=" M 225.2 118.0 C 226.0 118.0 227.7 117.9 228.5 117.9 C 228.7 120.0 229.0 122.2 229.3 124.3 C 229.6 124.4 230.3 124.6 230.7 124.7 C 228.6 130.0 228.4 135.8 226.0 140.9 C 224.4 147.8 220.7 153.9 219.2 160.8 C 218.2 160.9 217.3 161.1 216.4 161.2 C 215.9 159.9 215.3 158.6 214.8 157.4 C 216.1 153.3 217.2 149.1 218.2 144.9 C 218.7 144.5 219.7 143.7 220.2 143.3 C 220.6 141.9 220.9 140.5 221.3 139.1 C 224.8 136.3 225.1 131.6 226.6 127.7 C 226.1 127.5 225.0 127.0 224.5 126.7 C 225.6 125.3 227.4 124.0 227.6 122.1 C 226.9 120.6 226.0 119.4 225.2 118.0 Z" />
<path fill="#dfc348" stroke="#dfc348" stroke-width="0.09375" opacity="1.00" d=" M 65.4 119.5 L 66.6 119.5 C 66.6 126.2 66.2 132.9 67.6 139.5 C 62.4 140.0 56.1 137.9 51.9 142.0 C 52.1 144.4 52.3 146.8 52.6 149.2 C 52.1 149.5 51.3 149.9 50.8 150.1 C 50.6 149.6 50.0 148.6 49.7 148.1 C 49.7 144.0 50.1 139.4 53.9 136.9 C 57.5 137.3 61.2 137.2 64.8 137.0 C 64.0 132.1 63.2 127.2 64.1 122.2 C 64.4 121.6 65.1 120.2 65.4 119.5 Z" />
<path fill="#a38420" stroke="#a38420" stroke-width="0.09375" opacity="1.00" d=" M 154.5 121.8 C 158.7 121.3 162.8 122.9 166.9 122.2 C 174.3 120.9 181.8 123.3 189.2 122.2 C 189.7 122.5 190.7 123.0 191.2 123.3 C 190.5 123.9 189.8 124.5 189.2 125.1 C 173.7 125.5 158.3 124.9 142.8 124.7 C 141.7 125.7 140.7 126.7 139.6 127.7 C 139.8 132.5 139.5 137.2 139.7 142.0 C 139.6 143.8 141.1 145.0 142.0 146.3 C 150.7 146.3 159.5 146.2 168.2 146.3 C 165.6 153.3 161.6 160.0 155.4 164.4 C 146.9 170.6 135.9 171.6 125.6 171.0 C 119.6 170.3 113.6 168.7 108.3 165.6 C 113.7 164.9 118.6 167.8 123.9 168.2 C 132.1 168.9 140.6 168.7 148.2 165.4 C 155.5 162.4 161.0 156.1 164.2 149.0 C 156.5 148.7 148.9 148.4 141.2 148.8 C 139.9 147.6 138.5 146.4 137.2 145.1 C 137.6 139.4 137.2 133.7 137.6 128.0 C 137.6 125.9 139.2 124.1 141.2 123.5 C 145.5 122.3 150.1 122.5 154.5 121.8 Z" />
<path fill="#c5a331" stroke="#c5a331" stroke-width="0.09375" opacity="1.00" d=" M 63.3 122.2 L 64.1 122.2 C 63.2 127.2 64.0 132.1 64.8 137.0 C 61.2 137.2 57.5 137.3 53.9 136.9 C 53.2 136.8 51.7 136.6 51.0 136.5 C 54.2 135.6 57.7 135.3 60.6 133.6 C 62.4 132.3 61.7 130.1 61.0 128.4 C 61.1 127.6 61.3 126.8 61.4 126.1 C 60.6 125.1 59.7 124.1 58.8 123.1 C 60.3 122.7 61.8 122.4 63.3 122.2 Z" />
<path fill="#c19e24" stroke="#c19e24" stroke-width="0.09375" opacity="1.00" d=" M 90.9 122.4 C 95.2 122.0 99.4 121.9 103.7 122.2 C 99.5 124.0 94.5 125.6 92.2 129.8 C 92.9 131.5 94.9 131.9 96.3 132.7 C 96.4 133.5 96.5 134.3 96.6 135.0 C 99.0 135.0 101.5 134.8 104.0 134.5 C 106.4 137.6 110.8 139.6 110.9 144.1 C 111.6 148.3 108.5 151.5 106.7 155.0 C 106.6 157.4 107.9 159.8 110.0 161.0 C 118.0 165.9 127.8 167.2 137.0 166.0 C 143.4 165.2 149.9 163.0 154.8 158.7 C 156.8 156.8 155.8 153.8 155.7 151.4 C 152.3 150.8 149.0 150.6 145.6 150.8 C 145.5 151.3 145.4 152.2 145.3 152.7 C 143.7 152.3 142.1 151.9 140.5 151.5 C 140.7 150.6 141.0 149.7 141.2 148.8 C 148.9 148.4 156.5 148.7 164.2 149.0 C 161.0 156.1 155.5 162.4 148.2 165.4 C 140.6 168.7 132.1 168.9 123.9 168.2 C 118.6 167.8 113.7 164.9 108.3 165.6 C 101.9 162.2 97.4 156.3 93.3 150.5 C 97.1 150.2 101.0 150.7 104.8 150.0 C 108.9 148.1 108.2 142.3 105.2 139.7 C 99.8 139.4 94.3 139.5 88.8 139.7 C 88.8 139.3 88.7 138.5 88.6 138.1 C 90.5 133.0 89.1 127.5 90.9 122.4 Z" />
<path fill="#e0bb37" stroke="#e0bb37" stroke-width="0.09375" opacity="1.00" d=" M 55.4 124.0 C 56.6 123.7 57.7 123.4 58.8 123.1 C 59.7 124.1 60.6 125.1 61.4 126.1 C 61.3 126.8 61.1 127.6 61.0 128.4 C 61.7 130.1 62.4 132.3 60.6 133.6 C 57.7 135.3 54.2 135.6 51.0 136.5 C 51.7 136.6 53.2 136.8 53.9 136.9 C 50.1 139.4 49.7 144.0 49.7 148.1 C 49.4 146.3 49.1 144.4 48.8 142.6 C 47.0 142.3 45.2 142.2 43.6 141.5 C 43.1 140.4 42.6 139.3 42.2 138.1 C 43.0 137.5 43.7 136.9 44.5 136.4 C 43.5 135.3 42.0 134.5 41.5 133.0 C 41.3 131.4 41.8 129.9 42.0 128.4 C 41.9 128.1 41.8 127.6 41.8 127.4 L 42.7 127.2 C 44.8 127.5 46.9 128.0 48.9 128.4 C 47.0 128.9 45.1 129.3 43.2 129.8 C 43.9 131.3 43.8 133.5 45.3 134.6 C 50.4 135.7 55.6 133.9 59.4 130.5 C 56.5 128.9 53.1 128.8 49.9 128.6 C 52.7 128.2 55.4 127.7 58.1 127.1 C 57.2 126.0 56.3 125.0 55.4 124.0 Z" />
<path fill="#937214" stroke="#937214" stroke-width="0.09375" opacity="1.00" d=" M 191.2 123.3 C 192.7 123.9 193.4 125.3 193.6 126.8 C 193.7 129.6 193.6 132.3 193.6 135.1 C 193.7 151.6 186.4 168.0 174.6 179.5 C 165.2 188.9 152.3 194.5 139.0 195.2 C 122.1 196.6 103.9 193.5 90.5 182.5 C 88.1 180.2 83.8 178.4 84.7 174.3 C 90.6 180.9 98.2 185.9 106.4 189.0 C 114.2 192.0 122.7 193.1 131.0 192.9 C 140.9 193.1 151.1 191.6 159.9 186.9 C 171.9 180.5 181.2 169.8 186.4 157.4 C 190.4 148.9 191.1 139.3 191.2 130.0 C 191.5 128.0 190.2 126.6 189.2 125.1 C 189.8 124.5 190.5 123.9 191.2 123.3 Z" />
<path fill="#fdfce7" stroke="#fdfce7" stroke-width="0.09375" opacity="1.00" d=" M 139.6 127.7 C 140.7 126.7 141.7 125.7 142.8 124.7 C 158.3 124.9 173.7 125.5 189.2 125.1 C 190.2 126.6 191.5 128.0 191.2 130.0 C 191.1 139.3 190.4 148.9 186.4 157.4 C 181.2 169.8 171.9 180.5 159.9 186.9 C 151.1 191.6 140.9 193.1 131.0 192.9 C 122.7 193.1 114.2 192.0 106.4 189.0 C 111.5 184.3 115.9 178.9 120.7 173.9 C 120.3 173.4 119.9 172.9 119.6 172.4 C 121.6 171.9 123.6 171.4 125.6 171.0 C 135.9 171.6 146.9 170.6 155.4 164.4 C 161.6 160.0 165.6 153.3 168.2 146.3 C 159.5 146.2 150.7 146.3 142.0 146.3 C 141.1 145.0 139.6 143.8 139.7 142.0 C 139.5 137.2 139.8 132.5 139.6 127.7 Z" />
<path fill="#fdd659" stroke="#fdd659" stroke-width="0.09375" opacity="1.00" d=" M 18.8 127.7 C 19.9 128.4 21.1 129.0 22.2 129.7 C 21.0 133.0 23.7 135.6 25.5 137.9 C 25.7 141.9 26.2 145.9 26.7 149.9 C 26.8 151.5 28.0 152.7 28.8 154.0 C 26.7 154.5 24.6 155.0 22.6 155.5 C 20.0 146.5 18.7 137.1 18.8 127.7 Z" />
<path fill="#f9cf31" stroke="#f9cf31" stroke-width="0.09375" opacity="1.00" d=" M 124.0 137.0 C 125.9 137.1 127.8 137.2 129.6 137.4 C 129.6 139.0 129.9 140.8 129.4 142.4 C 127.7 143.1 125.8 142.8 124.1 143.0 C 124.0 141.0 124.0 139.0 124.0 137.0 Z" />
<path fill="#fdd659" stroke="#fdd659" stroke-width="0.09375" opacity="1.00" d=" M 225.5 165.8 C 227.4 156.7 229.7 147.7 234.6 139.7 C 235.0 141.2 235.5 142.8 235.9 144.3 C 234.3 154.0 231.6 163.7 227.2 172.5 C 226.5 170.3 225.9 168.1 225.5 165.8 Z" />
<path fill="#d4b83a" stroke="#d4b83a" stroke-width="0.09375" opacity="1.00" d=" M 50.8 150.1 C 51.3 149.9 52.1 149.5 52.6 149.2 C 58.3 151.3 64.4 149.9 70.3 150.4 C 71.5 153.3 72.7 156.3 74.1 159.1 C 70.4 160.1 70.3 155.0 68.7 152.9 C 64.2 152.5 59.6 153.1 55.0 152.8 C 53.1 152.9 52.0 151.3 50.8 150.1 Z" />
<path fill="#f2d56d" stroke="#f2d56d" stroke-width="0.09375" opacity="1.00" d=" M 11.8 149.8 C 12.3 150.7 12.9 151.6 13.4 152.6 C 13.9 152.1 14.4 151.6 15.0 151.2 C 15.6 151.7 16.3 152.2 16.9 152.7 C 17.1 151.9 17.4 150.4 17.6 149.6 C 23.1 175.1 37.5 198.8 58.2 214.8 C 57.7 215.7 57.1 216.7 56.6 217.6 C 55.2 216.9 53.8 216.2 52.4 215.5 C 51.9 215.7 51.1 216.2 50.6 216.4 C 30.8 199.3 16.5 175.6 11.8 149.8 Z" />
<path fill="#f9cf30" stroke="#f9cf30" stroke-width="0.09375" opacity="1.00" d=" M 124.1 153.1 C 125.6 152.8 127.6 151.5 128.8 153.2 C 130.3 154.5 129.2 156.4 128.9 157.9 C 127.6 157.9 126.4 157.9 125.2 157.8 C 123.6 156.8 124.0 154.7 124.1 153.1 Z" />
<path fill="#f6cc2f" stroke="#f6cc2f" stroke-width="0.09375" opacity="1.00" d=" M 52.2 157.2 C 57.3 157.6 64.0 156.8 67.1 161.7 C 69.0 164.4 70.7 167.1 72.0 170.0 C 69.5 169.0 67.4 167.2 64.9 166.2 C 61.3 165.6 57.5 166.4 54.0 165.0 C 52.2 162.9 52.4 159.9 52.2 157.2 Z" />
<path fill="#fdf09e" stroke="#fdf09e" stroke-width="0.09375" opacity="1.00" d=" M 166.2 210.3 C 188.6 200.0 206.7 180.6 214.8 157.4 C 215.3 158.6 215.9 159.9 216.4 161.2 C 215.0 164.4 212.9 167.5 212.4 171.0 C 211.9 174.8 211.0 178.6 209.0 182.0 C 207.2 184.6 207.3 187.7 207.1 190.7 C 206.3 190.2 205.5 189.8 204.8 189.3 C 204.2 191.1 203.7 193.0 203.2 194.9 C 202.5 194.4 201.8 193.9 201.1 193.4 C 200.4 194.8 199.7 196.2 199.1 197.7 C 198.4 197.3 197.7 196.9 197.1 196.5 C 196.5 197.5 196.0 198.5 195.5 199.6 C 194.4 199.6 193.4 199.5 192.3 199.5 C 190.0 201.9 187.3 205.6 183.5 203.9 C 181.7 205.8 179.7 207.6 177.2 208.4 C 173.7 209.6 170.0 211.6 166.2 210.3 Z" />
<path fill="#fdea9f" stroke="#fdea9f" stroke-width="0.09375" opacity="1.00" d=" M 41.3 164.8 C 40.5 163.0 42.3 161.6 43.1 160.1 C 49.7 177.1 61.6 192.0 76.7 202.3 C 89.3 211.2 104.4 216.1 119.6 218.2 C 124.4 219.2 129.2 219.0 134.0 219.5 C 129.3 219.8 124.5 220.6 120.1 222.3 C 118.1 223.2 116.1 222.5 114.2 221.9 C 113.1 222.2 112.1 222.6 111.0 222.9 C 110.1 222.2 109.2 221.4 108.3 220.7 C 107.2 221.1 106.1 221.5 105.1 221.9 C 102.5 220.0 99.7 218.3 96.8 216.9 C 96.7 217.4 96.4 218.4 96.2 218.9 C 89.6 216.8 83.6 213.4 77.3 210.7 C 75.3 210.1 74.5 208.3 74.2 206.5 C 70.1 205.8 66.5 203.8 63.4 201.1 C 63.7 200.4 64.0 199.8 64.3 199.2 C 60.6 197.9 56.7 195.8 56.0 191.6 C 50.2 188.8 47.1 182.9 43.5 177.8 C 43.9 177.3 44.3 176.7 44.7 176.1 C 43.8 175.1 42.5 174.3 42.0 173.0 C 41.9 170.3 42.0 167.5 41.3 164.8 Z" />
<path fill="#fde665" stroke="#fde665" stroke-width="0.09375" opacity="1.00" d=" M 217.0 186.5 C 216.8 178.8 219.7 171.4 222.8 164.4 C 223.7 164.9 224.6 165.3 225.5 165.8 C 225.9 168.1 226.5 170.3 227.2 172.5 C 224.9 177.3 222.4 182.1 219.4 186.5 C 218.8 186.5 217.6 186.5 217.0 186.5 Z" />
<path fill="#f6cc2f" stroke="#f6cc2f" stroke-width="0.09375" opacity="1.00" d=" M 55.9 168.5 C 59.0 168.0 62.8 166.1 65.7 168.3 C 69.3 170.9 72.6 174.1 76.4 176.6 C 80.7 179.6 84.6 183.1 88.9 186.1 C 91.1 187.8 93.6 189.3 95.0 191.9 C 94.9 195.6 94.7 199.4 94.6 203.1 C 93.1 202.2 90.7 201.8 90.7 199.7 C 89.9 196.7 91.3 192.6 88.1 190.7 C 81.4 185.8 74.7 180.8 68.0 175.8 C 65.3 173.6 61.7 173.4 58.6 172.3 C 57.3 171.4 56.8 169.7 55.9 168.5 Z" />
<path fill="#f7cd30" stroke="#f7cd30" stroke-width="0.09375" opacity="1.00" d=" M 60.9 175.2 C 65.1 174.7 67.9 178.0 71.0 180.2 C 76.9 184.5 82.7 189.1 88.6 193.4 C 88.7 195.4 88.9 197.5 88.3 199.4 C 87.1 200.0 85.9 198.8 85.4 197.9 C 83.6 194.6 80.3 192.7 77.5 190.5 C 73.2 187.4 69.4 183.8 65.2 180.7 C 63.2 179.3 61.8 177.4 60.9 175.2 Z" />
<path fill="#f6cc2f" stroke="#f6cc2f" stroke-width="0.09375" opacity="1.00" d=" M 181.3 191.8 C 181.0 185.9 179.4 177.3 186.6 174.7 C 186.8 178.1 187.0 181.5 187.0 184.9 C 186.9 185.4 186.9 186.3 186.9 186.8 C 185.0 188.5 183.2 190.1 181.3 191.8 Z" />
<path fill="#7c5f14" stroke="#7c5f14" stroke-width="0.09375" opacity="1.00" d=" M 208.5 205.3 C 212.9 200.5 217.1 195.5 220.9 190.3 C 221.4 193.1 221.8 195.9 222.1 198.7 C 215.9 206.8 208.7 214.1 200.6 220.3 C 199.9 218.3 199.1 216.4 198.2 214.6 C 201.8 211.7 205.4 208.7 208.5 205.3 Z" />
<path fill="#f5cc2f" stroke="#f5cc2f" stroke-width="0.09375" opacity="1.00" d=" M 147.2 199.2 C 152.6 197.4 158.2 196.1 163.1 193.2 C 163.6 196.0 164.0 199.0 163.9 201.9 L 163.9 202.9 C 156.9 205.4 149.9 207.6 142.8 209.6 C 144.0 206.0 145.6 202.6 147.2 199.2 Z" />
<path fill="#f8ce30" stroke="#f8ce30" stroke-width="0.09375" opacity="1.00" d=" M 97.1 194.2 C 103.9 197.2 111.0 199.8 118.5 200.6 C 118.7 203.2 119.0 205.8 118.4 208.4 C 111.4 207.6 104.2 206.3 98.0 203.0 C 94.7 201.3 96.8 197.0 97.1 194.2 Z" />
<path fill="#f5cc2f" stroke="#f5cc2f" stroke-width="0.09375" opacity="1.00" d=" M 127.8 199.5 C 129.5 198.6 131.4 198.9 133.2 199.4 C 133.1 202.9 132.9 206.4 132.8 209.8 C 131.3 209.8 129.9 209.7 128.4 209.6 C 128.2 206.2 128.0 202.9 127.8 199.5 Z" />
<path fill="#f7cd2f" stroke="#f7cd2f" stroke-width="0.09375" opacity="1.00" d=" M 120.5 200.4 C 122.2 200.4 124.0 200.3 125.7 200.3 C 126.2 203.5 126.1 206.7 125.7 209.9 C 124.0 209.7 122.3 209.6 120.6 209.5 C 120.2 206.5 120.2 203.4 120.5 200.4 Z" />
<path fill="#d4ab42" stroke="#d4ab42" stroke-width="0.09375" opacity="1.00" d=" M 199.3 209.3 C 202.1 206.9 204.8 204.4 207.3 201.7 C 207.7 202.9 208.1 204.1 208.5 205.3 C 205.4 208.7 201.8 211.7 198.2 214.6 C 194.1 217.8 189.8 220.7 185.4 223.4 C 184.7 222.5 184.1 221.5 183.4 220.6 C 189.0 217.2 194.5 213.7 199.3 209.3 Z" />
<path fill="#fcdb5f" stroke="#fcdb5f" stroke-width="0.09375" opacity="1.00" d=" M 198.8 204.3 C 199.0 204.5 199.4 205.1 199.6 205.3 C 199.5 206.7 199.4 208.0 199.3 209.3 C 194.5 213.7 189.0 217.2 183.4 220.6 C 181.1 222.0 178.7 223.3 176.3 224.5 C 177.1 223.3 177.9 222.0 178.7 220.7 C 174.7 221.2 170.7 222.1 166.6 222.5 C 163.9 222.7 161.1 221.9 158.4 222.5 C 156.8 223.5 155.7 225.0 154.5 226.3 C 153.8 225.6 153.1 224.9 152.4 224.2 C 151.7 226.5 150.9 228.8 150.2 231.1 C 150.8 231.7 151.4 232.3 152.0 233.0 C 149.6 233.5 147.1 234.0 144.7 234.4 C 142.0 234.9 139.4 235.2 136.7 235.4 C 137.0 232.2 137.4 229.0 138.2 226.0 C 138.7 227.2 139.1 228.5 139.6 229.8 C 142.5 228.4 144.5 225.9 146.0 223.0 C 146.4 223.4 147.2 224.1 147.6 224.5 C 148.8 223.4 150.0 222.1 151.6 221.5 C 159.5 218.3 168.3 218.1 176.5 215.4 C 179.3 214.8 182.1 213.6 183.4 210.8 C 184.6 211.2 185.6 212.5 186.9 212.0 C 189.4 211.7 190.1 209.1 191.3 207.3 C 191.7 208.1 192.1 209.0 192.5 209.8 C 195.6 209.2 198.3 207.7 198.8 204.3 Z" />
<path fill="#ddc05c" stroke="#ddc05c" stroke-width="0.09375" opacity="1.00" d=" M 52.4 215.5 C 53.8 216.2 55.2 216.9 56.6 217.6 C 57.1 216.7 57.7 215.7 58.2 214.8 C 59.8 216.0 61.3 217.1 62.9 218.3 C 69.7 223.4 77.3 227.5 85.2 230.7 C 84.9 231.6 84.7 232.4 84.4 233.3 C 82.6 233.5 80.9 233.9 79.2 234.5 C 68.8 230.0 59.3 223.7 50.6 216.4 C 51.1 216.2 51.9 215.7 52.4 215.5 Z" />
<path fill="#886b1d" stroke="#886b1d" stroke-width="0.09375" opacity="1.00" d=" M 185.4 223.4 C 189.8 220.7 194.1 217.8 198.2 214.6 C 199.1 216.4 199.9 218.3 200.6 220.3 C 194.5 224.7 188.3 229.0 181.5 232.3 L 181.1 232.1 C 181.0 230.9 181.2 229.8 181.5 228.6 C 180.9 228.0 180.2 227.3 179.6 226.7 C 181.6 225.7 183.5 224.6 185.4 223.4 Z" />
<path fill="#9d7b25" stroke="#9d7b25" stroke-width="0.09375" opacity="1.00" d=" M 65.3 215.9 C 80.1 226.2 97.3 233.0 115.1 234.9 C 115.1 235.7 115.1 237.4 115.1 238.2 C 111.8 237.5 108.4 237.2 105.1 236.6 C 98.3 235.4 91.7 233.1 85.2 230.7 C 77.3 227.5 69.7 223.4 62.9 218.3 C 63.7 217.5 64.5 216.7 65.3 215.9 Z" />
<path fill="#fbd049" stroke="#fbd049" stroke-width="0.09375" opacity="1.00" d=" M 166.6 222.5 C 170.7 222.1 174.7 221.2 178.7 220.7 C 177.9 222.0 177.1 223.3 176.3 224.5 C 168.6 228.5 160.3 230.8 152.0 233.0 C 151.4 232.3 150.8 231.7 150.2 231.1 C 150.9 228.8 151.7 226.5 152.4 224.2 C 153.1 224.9 153.8 225.6 154.5 226.3 C 155.7 225.0 156.8 223.5 158.4 222.5 C 161.1 221.9 163.9 222.7 166.6 222.5 Z" />
<path fill="#c79f3a" stroke="#c79f3a" stroke-width="0.09375" opacity="1.00" d=" M 176.3 224.5 C 178.7 223.3 181.1 222.0 183.4 220.6 C 184.1 221.5 184.7 222.5 185.4 223.4 C 183.5 224.6 181.6 225.7 179.6 226.7 C 174.9 229.0 170.1 231.2 165.1 232.8 C 160.0 234.4 154.7 235.4 149.6 237.1 C 148.0 236.2 146.3 235.3 144.7 234.4 C 147.1 234.0 149.6 233.5 152.0 233.0 C 160.3 230.8 168.6 228.5 176.3 224.5 Z" />
<path fill="#937625" stroke="#937625" stroke-width="0.09375" opacity="1.00" d=" M 165.1 232.8 C 170.1 231.2 174.9 229.0 179.6 226.7 C 180.2 227.3 180.9 228.0 181.5 228.6 C 181.2 229.8 181.0 230.9 181.1 232.1 C 176.8 235.4 171.1 236.6 166.1 238.7 C 165.8 236.7 165.4 234.8 165.1 232.8 Z" />
<path fill="#ccb050" stroke="#ccb050" stroke-width="0.09375" opacity="1.00" d=" M 85.2 230.7 C 91.7 233.1 98.3 235.4 105.1 236.6 C 103.7 238.2 102.5 239.8 101.6 241.7 C 93.8 240.5 86.4 237.6 79.2 234.5 C 80.9 233.9 82.6 233.5 84.4 233.3 C 84.7 232.4 84.9 231.6 85.2 230.7 Z" />
<path fill="#9e812d" stroke="#9e812d" stroke-width="0.09375" opacity="1.00" d=" M 149.6 237.1 C 154.7 235.4 160.0 234.4 165.1 232.8 C 165.4 234.8 165.8 236.7 166.1 238.7 C 159.9 240.8 153.5 242.2 147.1 243.4 C 146.6 242.8 146.1 242.2 145.6 241.7 C 146.9 240.1 148.2 238.6 149.6 237.1 Z" />
<path fill="#b29137" stroke="#b29137" stroke-width="0.09375" opacity="1.00" d=" M 115.1 234.9 C 122.3 235.7 129.5 235.6 136.7 235.4 C 139.4 235.2 142.0 234.9 144.7 234.4 C 146.3 235.3 148.0 236.2 149.6 237.1 C 148.2 238.6 146.9 240.1 145.6 241.7 C 146.1 242.2 146.6 242.8 147.1 243.4 C 136.6 245.1 125.7 245.6 115.1 244.2 C 116.6 244.1 118.0 243.9 119.5 243.8 C 119.7 242.5 120.0 241.2 120.2 239.8 C 118.5 239.3 116.8 238.7 115.1 238.2 C 115.1 237.4 115.1 235.7 115.1 234.9 Z" />
<path fill="#bfa246" stroke="#bfa246" stroke-width="0.09375" opacity="1.00" d=" M 105.1 236.6 C 108.4 237.2 111.8 237.5 115.1 238.2 C 116.8 238.7 118.5 239.3 120.2 239.8 C 120.0 241.2 119.7 242.5 119.5 243.8 C 118.0 243.9 116.6 244.1 115.1 244.2 C 110.5 244.0 106.0 242.7 101.4 242.0 L 101.6 241.7 C 102.5 239.8 103.7 238.2 105.1 236.6 Z" />
</svg>
